<svg width="360" height="231" viewBox="0 0 360 231" fill="none" xmlns="http://www.w3.org/2000/svg">
<g clip-path="url(#clip0_22_37)">
<path d="M273.894 202.923C274.081 203.061 275.533 204.573 275.264 204.997C275.1 205.257 273.449 203.703 273.32 203.597C272.219 202.704 271.107 201.796 270.077 200.819C270.803 201.221 271.517 201.625 272.231 202.016C272.758 202.31 273.402 202.557 273.894 202.923ZM255.264 194.793C255.451 194.371 255.639 193.946 255.826 193.518C256.306 192.363 256.868 191.081 257.009 189.789C259.128 190.853 261.821 191.406 263.988 190.497C264.105 190.449 264.21 190.396 264.315 190.342C264.339 190.397 264.362 190.453 264.386 190.508C264.479 190.73 264.632 190.846 264.807 190.883C264.526 191.143 264.292 191.464 264.128 191.868C263.554 193.333 264.105 195.054 264.889 196.544C261.775 195.231 258.601 194.512 255.264 194.793ZM263.73 202.382C264.936 202.939 265.639 203.765 266.692 204.556C267.77 205.364 269.444 206.228 269.561 207.638C266.564 206.746 263.882 205.208 261.423 203.275C260.17 202.293 258.976 201.238 257.805 200.166C257.302 199.713 256.739 199.274 256.283 198.782C258.941 199.548 261.634 201.404 263.73 202.382ZM252.231 205.362C252.582 205.721 252.91 206.093 253.238 206.46C252.102 206.23 250.967 206.233 250.018 206.999C246.037 210.187 253.472 214.487 255.334 216.068C256.201 216.804 257.02 217.587 257.805 218.419C258.472 219.138 258.894 219.56 259.105 220.542C259.304 221.488 259.116 221.73 258.203 222.145C257.817 222.322 257.325 222.382 256.915 222.497C254.023 223.304 251.189 224.282 248.344 225.231C245.51 226.177 242.665 227.105 239.772 227.813C238.473 228.13 237.173 228.407 235.85 228.622C235.147 228.734 234.117 229.071 233.285 229.042C232.969 228.897 232.653 228.809 232.337 228.738C232.148 228.585 232.009 228.367 231.934 228.059C231.622 226.783 232.992 225.249 233.718 224.272C234.655 222.999 235.709 221.803 236.751 220.617C238.66 218.465 240.475 216.267 242.255 214.008C244.995 210.536 247.782 207.087 250.287 203.437C250.92 204.123 251.646 204.744 252.231 205.362ZM259.983 210.502C261.002 211.08 261.833 211.724 262.629 212.582C262.84 212.808 263.121 213.063 263.32 213.307C263.753 213.84 264.058 214.883 263.168 215.34C261.634 216.119 258.812 211.004 257.969 209.889C257.828 209.707 257.688 209.531 257.547 209.351C258.39 209.682 259.198 210.06 259.983 210.502ZM251.236 199.233C251.201 199.295 251.166 199.358 251.131 199.418C250.908 199.779 250.686 200.135 250.463 200.488C250.475 200.032 250.697 199.604 251.236 199.233ZM226.737 226.465C224.476 225.269 222.224 224.049 219.864 223.055C217.786 222.18 215.631 221.499 213.389 221.212C210.619 220.857 207.934 221.282 205.194 221.683C199.015 222.583 192.786 223.632 186.522 223.103C185.224 222.992 183.911 222.829 182.589 222.661C183.027 222.621 183.466 222.583 183.904 222.536C187.509 222.152 191.194 221.69 194.654 220.563C196.176 220.069 200.133 218.895 198.017 216.779C196.989 215.749 195.229 215.555 193.51 215.637C193.728 215.548 193.941 215.452 194.147 215.343C195.625 214.568 198.327 211.548 196.139 209.992C195.067 209.23 193.085 210.175 191.99 210.473C189.6 211.124 187.246 211.915 184.925 212.783C186.467 211.468 187.942 210.055 189.185 208.46C190.144 207.226 191.201 205.671 190.835 204.028C190.783 203.798 190.555 203.554 190.316 203.509C185.555 202.651 180.777 206.34 177.222 209.008C176.402 209.622 168.54 215.886 165.695 217.74C167.207 216.165 168.58 214.434 169.939 212.745C170.055 212.6 170.168 212.452 170.284 212.307C170.331 212.258 170.378 212.208 170.426 212.16C171.598 210.945 172.516 209.536 173.482 208.163C173.797 207.739 174.112 207.313 174.422 206.883C174.84 206.342 175.282 205.819 175.77 205.33C177.503 203.597 178.662 201.168 179.878 199.046C180.829 197.387 181.727 195.697 182.562 193.976C184.132 190.743 185.589 187.465 187.285 184.294C188.819 181.431 190.38 178.745 191.61 175.744C192.706 173.069 193.631 170.263 194.865 167.644C195.347 167.665 195.863 167.586 196.285 167.564C196.838 167.534 197.392 167.496 197.946 167.472C198.206 167.46 198.913 167.54 198.847 167.445C199.03 167.538 199.24 167.561 199.424 167.485C200.028 169.108 203.052 168.691 204.281 168.768C207.411 168.964 210.549 169.079 213.675 169.354C225.293 170.375 236.423 175.499 246.54 181.226C247.688 182.395 248.882 183.458 250.182 184.458C250.873 184.989 251.576 185.508 252.302 185.991C252.629 186.212 253.039 186.421 253.437 186.642C253.496 188.137 254.046 189.45 255.486 190.191C255.241 191.608 254.421 193.102 253.917 194.205C253.437 195.228 252.934 196.231 252.395 197.218C250.732 197.553 248.859 198.391 248.835 200.312C248.824 201.007 249.035 201.624 249.351 202.189C247.665 204.686 245.826 207.088 243.976 209.459C241.482 212.638 239.011 215.845 236.33 218.868C235.194 220.149 234.046 221.429 232.992 222.785C232.076 223.967 230.673 225.494 230.414 227.008C230.344 227.416 230.367 227.876 230.462 228.323C230.378 228.294 230.292 228.269 230.208 228.235C229.017 227.748 227.874 227.067 226.737 226.465ZM142.137 226.036C140.647 225.902 139.158 226.019 137.66 225.849C136.304 225.694 134.96 225.714 133.601 225.665C131.577 225.592 129.541 225.417 127.502 225.184C130.269 225.371 133.076 225.236 135.839 225.187C137.493 225.159 139.136 225.104 140.773 225.379C142.057 225.596 143.308 225.965 144.602 226.135C147.8 226.552 151.097 226.244 154.312 226.244C154.43 226.244 154.549 226.245 154.667 226.246C153.504 226.426 152.328 226.561 151.134 226.635C148.041 226.829 145.193 226.313 142.137 226.036ZM118.536 223.891C120.027 224.048 121.494 224.322 122.964 224.582C121.483 224.362 120.007 224.128 118.536 223.891ZM181.826 220.909C184.678 219.5 187.319 217.944 190.517 217.468C192.103 217.234 193.798 217.064 195.395 217.295C195.972 217.378 196.613 217.491 197.038 217.916C197.086 217.963 197.423 217.811 196.816 218.049C196.351 218.232 195.916 218.516 195.45 218.706C191.69 220.235 187.431 220.692 183.427 221.102C182.643 221.182 181.857 221.247 181.071 221.312C181.36 221.212 181.628 221.087 181.826 220.909ZM182.731 212.689C181.879 213.383 181.004 214.052 180.107 214.692C177.659 215.746 175.264 216.954 173.12 218.47C173.07 218.485 173.02 218.502 172.972 218.526C172.624 218.696 172.524 218.828 172.225 219.132C171.871 219.492 171.976 220.292 172.552 220.374C172.564 220.376 172.574 220.376 172.585 220.377C172.636 220.389 172.689 220.393 172.747 220.393C173.967 220.488 174.777 219.781 175.768 219.088C176.513 218.567 177.337 218.227 178.12 217.771C179.024 217.245 179.9 216.667 180.757 216.057C181.503 215.735 182.253 215.423 182.997 215.121C186.578 213.667 190.268 212.369 194.035 211.483C195.082 211.237 195.748 211.04 195.203 212.351C194.612 213.773 192.851 214.41 191.475 214.699C189.963 215.018 189.927 214.885 188.715 215.69C187.639 216.403 186.447 216.913 185.25 217.387C184.193 217.805 183.037 218.116 182.025 218.639C181.588 218.868 181.255 219.19 180.907 219.502C180.585 219.623 180.311 219.876 180.065 220.158C180.049 220.177 180.038 220.196 180.024 220.214C180.013 220.23 180.001 220.244 179.99 220.259C179.979 220.28 179.967 220.299 179.955 220.32C179.946 220.337 179.938 220.354 179.931 220.371C179.836 220.577 179.844 220.788 179.926 220.968C179.929 220.975 179.933 220.984 179.936 220.992C179.942 221.005 179.947 221.016 179.954 221.027C180.029 221.178 180.147 221.305 180.302 221.372C179.618 221.427 178.935 221.482 178.253 221.546C177.436 221.621 176.654 221.786 175.886 221.993C173.598 221.902 171.325 222.028 169.109 222.622C167.73 222.991 166.365 223.382 165.002 223.771C164.536 223.705 164.079 223.625 163.644 223.518C162.757 223.299 161.872 223.105 161.677 222.159C161.473 221.183 162.088 220.956 162.807 220.375C163.158 220.09 163.506 219.799 163.85 219.501C165.592 220.715 169.401 217.067 170.501 216.205C173.92 213.529 177.206 210.669 180.823 208.258C182.438 207.182 184.137 206.143 185.967 205.475C186.713 205.204 187.495 204.97 188.285 204.887C188.636 204.851 189.024 204.822 189.377 204.869C189.379 204.869 189.673 204.437 189.381 205.13C188.071 208.252 185.315 210.587 182.731 212.689ZM105.888 221.384C103.076 220.645 100.182 219.968 97.5118 218.796C92.6266 216.652 88.5891 212.789 86.1933 208.015C83.8736 203.392 83.4626 198.132 83.7272 193.041C84.2893 182.161 86.7178 171.291 89.2986 160.71C89.39 161.689 89.6196 162.54 90.2413 163.437C91.4673 165.203 93.5457 166.083 95.6593 166.088C99.0152 166.097 102.367 164.884 105.513 163.855C105.676 163.801 105.831 163.743 105.992 163.686C107.494 164.71 108.954 165.79 110.366 166.875C112.587 168.585 114.42 170.64 116.268 172.731C117.013 173.576 117.772 174.405 118.511 175.25C118.221 176.193 117.923 177.134 117.616 178.072C117.221 178.89 116.782 179.698 116.454 180.486C115.868 181.898 115.145 183.932 115.055 185.772C114.776 187.15 114.879 188.5 116.07 189.636C116.924 190.449 117.979 190.731 119.113 190.908C119.558 190.976 119.996 191.052 120.431 191.13C120.472 191.15 120.516 191.17 120.558 191.191C121.839 191.814 123.123 192.184 124.537 192.391C125.081 192.472 125.886 192.629 126.543 192.589C129.013 193.307 131.371 194.188 133.643 195.563C136.541 197.318 139.269 199.261 142.243 200.915C144.918 202.401 147.379 204.228 149.988 205.835C152.083 207.124 154.242 208.383 156.615 209.093C157.684 209.412 158.787 209.608 159.898 209.709C161.181 209.826 163.048 210.047 164.273 209.625C165.148 209.323 165.929 208.567 166.669 208.021C168.229 206.871 169.781 205.711 171.337 204.556C172.958 203.355 174.577 202.152 176.216 200.976C176.454 200.806 176.693 200.635 176.932 200.465C176.273 201.601 175.545 202.698 174.803 203.78C174.418 204.342 174.024 204.898 173.629 205.453C173.216 205.898 172.823 206.361 172.488 206.885C172.241 207.273 171.988 207.659 171.73 208.046C170.889 209.163 170.029 210.264 169.157 211.355C167.384 213.328 165.556 215.169 164.014 217.331C163.835 217.509 163.653 217.685 163.468 217.856C162.075 219.149 157.99 221.651 160.666 223.815C160.946 224.042 161.257 224.234 161.585 224.41C160.538 224.595 159.543 224.773 158.432 224.768C157.058 224.762 155.686 224.759 154.312 224.759C151.3 224.759 148.221 225.03 145.218 224.72C142.924 224.482 140.754 223.748 138.432 223.68C135.461 223.594 132.483 223.804 129.512 223.767C126.438 223.727 123.555 223.006 120.529 222.609C117.873 222.26 115.194 222.174 112.517 222.225C111.58 222.242 110.64 222.276 109.703 222.316C108.425 222.028 107.153 221.717 105.888 221.384ZM90.2753 156.779C90.8233 156.416 92.6476 157.405 92.9965 157.533C95.0738 158.288 97.1863 158.874 99.2085 159.788C100.994 160.594 102.725 161.574 104.405 162.642C103.164 163.078 101.897 163.471 100.584 163.812C98.5247 164.347 96.1078 165.001 94.0001 164.378C93.1757 164.135 92.4309 163.706 91.8455 163.069C90.7424 161.868 90.7998 160.704 90.7811 159.225C90.7787 159.005 90.3502 157.435 90.2237 156.985C90.2413 156.916 90.2589 156.848 90.2753 156.779ZM120.444 189.476C119.509 188.988 118.583 188.529 117.633 188.085C116.514 187.559 116.487 186.265 116.685 185.108C116.97 184.24 117.364 183.371 117.63 182.648C118.22 181.045 118.761 179.425 119.277 177.799C119.322 177.698 119.365 177.599 119.41 177.498C119.532 177.219 119.624 176.939 119.7 176.658C120.153 177.217 120.591 177.788 121.003 178.382C122.29 180.239 123.405 182.212 124.382 184.248C124.985 185.505 125.581 186.785 125.886 188.151C126.051 188.882 126.308 189.718 126.461 190.526C126.253 190.561 126.097 190.666 125.993 190.811C124.317 190.359 122.617 189.993 120.907 189.704C120.754 189.628 120.599 189.558 120.444 189.476ZM123.722 155.873C123.498 156.992 123.234 158.099 122.98 159.206C122.121 162.234 121.309 165.278 120.482 168.316C119.808 169.412 119.241 170.539 118.898 171.793C118.783 172.208 118.727 172.624 118.692 173.04C117.187 171.305 115.596 169.644 114.005 168.074C112.152 166.246 110.015 164.546 107.77 163.01C110.074 162.042 112.203 160.843 114.434 159.593C117.735 157.743 121.158 155.777 124.337 153.526C124.076 154.286 123.884 155.062 123.722 155.873ZM136.556 125.403C136.623 125.321 136.674 125.215 136.695 125.077C136.698 125.065 136.7 125.054 136.702 125.041C136.917 124.507 137.133 123.974 137.37 123.448C138.214 124.075 138.713 125.961 138.903 126.698C139.346 128.421 138.899 130.245 138.372 131.901C137.184 135.641 134.81 139.125 132.855 142.504C131.59 144.687 130.022 146.605 128.253 148.331C128.192 148.3 128.128 148.278 128.061 148.265C130.659 140.558 133.527 132.936 136.556 125.403ZM98.4227 125.758C99.3278 123.1 100.443 120.53 101.423 117.902C102.163 115.922 102.678 113.868 103.361 111.868C104.919 107.299 107.244 102.937 110.535 99.3776C113.877 95.771 118.293 92.9608 122.988 91.4619C125.783 90.572 128.986 90.5252 131.895 90.1973C134.836 89.8695 137.781 89.5533 140.723 89.2371C141.61 90.5369 142.796 91.5087 144.332 92.2347C147.026 93.5228 149.229 95.3729 151.585 97.1762C154.013 99.0263 156.514 100.642 159.173 102.129C161.836 103.628 164.237 105.515 166.682 107.333C171.337 110.793 176.03 112.99 181.84 113.618C187.826 114.265 193.742 113.632 199.563 112.162C205.028 110.782 209.813 106.565 211.05 101.005C211.774 97.7383 212.189 94.5766 212.151 91.2394C212.144 90.6305 212.016 89.8929 211.762 89.1786C212.879 90.6071 214.792 91.4151 216.416 92.0591C216.697 92.1645 216.978 92.2699 217.262 92.3636C219.418 93.3823 221.799 93.2653 224.187 93.6166C230.163 94.5182 235.978 96.3214 240.978 99.7757C243.683 101.649 246.084 103.944 248.215 106.439C249.468 107.905 250.604 109.344 251.376 111.118C252.243 113.128 252.91 115.228 253.472 117.345C255.522 125.17 256.318 133.554 256.611 141.621C256.786 146.52 257.173 151.245 258.063 156.067C258.484 158.34 258.953 160.605 259.479 162.854C260.042 165.218 260.978 167.422 261.084 169.843C260.545 169.284 260.065 168.596 259.55 168.187C258.332 167.229 256.564 166.806 255.135 166.292C250.662 164.689 246.669 161.901 242.466 159.725C238.906 157.876 235.299 155.725 232.09 153.295C231.125 152.566 230.231 151.743 229.407 150.852C229.413 148.73 229.491 146.606 229.323 144.489C229.135 142.133 228.638 139.795 228.166 137.484C227.252 133.009 226.177 128.505 224.553 124.225C223.84 122.346 221.685 117.57 218.954 118C216.38 118.407 217.82 122.622 218.247 124.096C219.31 127.773 219.38 131.663 220.518 135.333C221.254 137.703 221.717 140.18 222.644 142.486C223.566 144.783 224.78 147.044 226.134 149.116C226.679 149.95 227.279 150.712 227.923 151.425C227.925 151.889 227.929 152.354 227.946 152.816C228.024 155.25 228.483 157.629 228.606 160.055C228.663 161.188 228.783 162.279 229.153 163.357C229.421 164.146 229.736 164.843 229.929 165.59C225.489 162.992 220.812 160.537 216.838 157.334C215.418 156.189 214.771 154.149 212.549 154.477C210.313 154.808 209.366 157.245 208.134 158.798C206.413 160.965 204.442 162.137 202.188 163.646C201.437 164.147 200.097 165.101 199.559 166.138C199.544 166.129 199.531 166.117 199.514 166.109C198.912 165.823 198.113 165.978 197.473 166.012C196.913 166.04 195.368 166.309 194.897 166.205C194.554 165.973 194.027 165.97 193.811 166.408C192.709 168.652 191.905 171.081 190.969 173.398C189.783 176.34 188.507 178.999 186.969 181.771C184.095 186.958 181.836 192.527 178.983 197.745C178.282 197.632 176.995 198.614 176.577 198.905C174.302 200.494 172.082 202.164 169.853 203.819C168.065 205.148 166.188 207.011 164.181 208.002C162.959 208.608 161.008 208.349 159.644 208.2C157.454 207.964 155.407 207.184 153.478 206.152C151.409 205.047 149.402 203.774 147.447 202.48C145.349 201.09 143.269 199.8 141.061 198.56C136.674 196.099 132.889 193 128.064 191.416C128.006 190.579 127.695 189.821 127.527 188.984C127.273 187.731 127.012 186.558 126.514 185.368C125.615 183.226 124.53 181.143 123.3 179.173C122.368 177.682 121.315 176.232 120.189 174.828C120.787 172.811 121.35 170.782 121.904 168.75C122.424 167.816 122.923 166.874 123.184 165.786C123.384 164.953 123.575 164.134 123.676 163.282C123.822 162.067 124.22 161.007 124.447 159.818C124.472 159.691 124.494 159.561 124.518 159.434C125.246 156.983 126.005 154.539 126.794 152.105C127.104 151.706 127.438 151.317 127.734 150.915C128.601 150.185 129.437 149.427 130.228 148.632C132.528 146.322 134.063 143.431 135.618 140.598C136.987 138.102 138.592 135.725 139.556 133.033C140.376 130.744 140.938 128.255 140.206 125.876C139.77 124.458 138.962 122.149 137.308 121.804C137.104 121.694 136.865 121.669 136.665 121.774C136.366 121.821 136.131 122.004 136.034 122.303C135.812 122.977 135.509 123.609 135.343 124.293C132.705 130.181 130.766 136.496 128.57 142.523C127.585 145.226 126.571 147.924 125.636 150.646C121.784 153.751 117.335 156.231 113.095 158.643C110.821 159.937 108.553 161.04 106.201 161.971C104.698 161.012 103.164 160.127 101.652 159.332C99.5574 158.23 97.3373 157.383 95.089 156.654C93.6523 156.185 92.1851 155.427 90.6722 155.258C91.842 150.818 93.1031 146.4 94.1359 141.928C95.3947 136.482 96.6206 131.057 98.4227 125.758ZM140.591 84.9748C139.643 80.0334 141.692 74.729 143.838 70.3613C145.8 66.3684 147.52 62.3051 149.124 58.1599C150.976 53.3707 152.673 48.4645 154.941 43.851C156.131 41.4271 157.605 39.1906 158.407 36.591C159.22 33.9447 160.16 31.4271 161.151 28.8509C161.201 28.7807 161.239 28.687 161.256 28.5817C161.294 28.4763 161.307 28.3943 161.305 28.3124C162.819 19.8581 168.213 12.8675 175.287 8.17192C182.743 3.21878 192.378 2.04785 201.126 1.52092C207.961 1.11109 215.56 4.22581 221.295 7.70354C227.202 11.2867 232.442 17.3405 234.854 23.8276C238.051 32.3873 237.032 41.6612 236.201 50.5722C236.037 50.7361 235.932 50.9586 235.978 51.2396C236.131 52.2467 235.569 53.3942 235.487 54.4012C235.416 55.1506 235.405 55.9937 235.323 56.7782C235.007 59.5768 234.878 62.2232 234.889 65.0452C234.948 73.441 234.14 82.3753 228.067 88.8039C225.183 91.86 221.593 92.2582 217.844 90.9936C217.672 90.9116 217.501 90.8297 217.329 90.7243C215.906 89.8578 214.345 88.6751 212.686 87.8905C212.408 87.3987 212.282 86.8367 212.378 86.1926C212.776 85.5018 213.131 84.7757 213.514 84.0966C214.676 82.832 215.778 81.4971 216.851 80.1271C218.086 78.8508 219.281 77.551 220.211 75.8999C220.261 75.8062 220.286 75.7244 220.299 75.6424C220.4 75.5019 220.501 75.373 220.6 75.2442C220.793 74.9983 220.778 74.7524 220.654 74.5533C221.865 72.3988 222.891 70.1389 223.761 67.8321C224.508 65.8532 225.131 63.8274 225.604 61.7666C226.033 59.8813 226.111 57.8906 226.783 56.0757C227.522 54.0733 228.687 52.2701 229.47 50.2912C230.261 48.2889 230.343 46.3451 230.004 44.2959C230.039 44.2022 230.053 44.0969 230.043 43.968C229.365 36.9657 228.985 22.961 218.501 24.577C213.724 25.3147 210.062 28.4177 206.633 31.5676C204.336 33.6753 201.688 35.4668 198.463 35.6425C196.004 35.7713 193.744 34.7994 191.226 35.1507C188.817 35.4902 186.681 36.6144 185.075 38.4411C183.015 40.783 181.16 43.3708 179.534 46.0405C179.514 46.0523 179.497 46.0641 179.48 46.0758C178.303 43.1601 176.248 39.6589 172.797 39.6237C169.479 39.5886 167.819 42.68 167.289 45.5488C166.71 48.6636 167.091 51.6964 167.547 54.7994C167.977 57.7268 168.329 62.4223 171.237 64.1085C171.259 64.249 171.325 64.3777 171.442 64.4831C171.615 65.6306 171.456 66.907 171.426 68.0428C171.39 69.3894 171.139 70.7595 171.214 72.071C171.219 72.1647 171.24 72.2349 171.264 72.3052C171.177 72.3871 171.109 72.5042 171.08 72.6681C170.085 78.3824 165.812 82.1997 160.689 84.3191C154.937 86.7079 148.356 86.907 142.211 87.5861C141.987 87.6096 141.763 87.6329 141.541 87.6563C141.106 86.8835 140.789 86.0053 140.591 84.9748ZM178.917 79.8812C181.876 79.8226 183.664 83.1833 185.475 85.01C187.598 87.1646 190.852 88.921 193.687 89.8812C195.754 90.5954 197.968 90.8413 200.168 90.771C191.474 92.6329 183.305 87.1177 178.851 79.9749C178.874 79.9515 178.898 79.9163 178.917 79.8812ZM172.513 73.0663C172.54 72.9024 172.518 72.7618 172.466 72.633C172.616 72.5159 172.714 72.3286 172.699 72.071C172.652 71.2513 172.865 70.3497 172.872 69.4949C172.879 68.8977 172.906 68.2887 172.92 67.6916C172.954 66.4035 173.091 65.01 172.817 63.7454C172.78 63.5815 172.654 63.4176 172.502 63.3239C172.455 63.1717 172.349 63.0311 172.159 62.9257C169.728 61.6728 169.436 57.434 169.073 55.0452C168.72 52.7267 168.364 50.4433 168.483 48.0897C168.597 45.8415 169.028 42.4575 171.365 41.3919C174.934 39.776 177.36 44.5769 178.332 47.2115C178.52 47.715 179.064 47.8087 179.439 47.6213C179.76 47.8204 180.207 47.8087 180.453 47.3871C182.173 44.4949 184.141 41.4856 186.506 39.0617C188.892 36.6144 192.274 36.1928 195.497 36.7549C198.138 37.2233 200.312 37.1296 202.81 36.0289C205.409 34.8931 207.337 32.8908 209.398 31.0056C213.06 27.6566 220.488 23.1718 224.721 28.0547C228.121 31.9774 228.079 38.5699 228.517 43.5348C228.446 43.6753 228.416 43.8392 228.454 44.0266C229.043 46.9071 228.432 49.1787 227.168 51.7431C226.227 53.6635 225.174 55.5605 224.823 57.6799C224.135 61.8251 223.115 65.7829 221.432 69.6471C219.796 73.4058 217.7 77.0592 214.892 80.0686C214.583 80.3847 214.275 80.7125 213.967 81.0521C213.153 81.9069 212.278 82.8789 211.66 83.9327C210.247 85.3964 208.731 86.7196 207.062 87.832C206.272 88.0545 205.51 88.3472 204.85 88.558C201.206 89.7524 196.798 89.565 193.257 88.1364C191.53 87.4455 189.906 86.4386 188.37 85.3964C186.806 84.3309 186.018 83.0544 184.763 81.7547C182.921 79.846 180.604 77.9374 177.756 78.5346C177.391 78.6165 177.214 78.9679 177.225 79.3075C177.065 79.5182 177.014 79.7993 177.185 80.092C181.72 87.832 190.242 93.839 199.544 92.387C202.734 91.8952 205.47 90.6892 207.906 89.0498C208.747 88.8625 209.536 88.839 210.154 89.1902C210.21 89.2254 210.265 89.2488 210.319 89.2722C211.046 90.9467 210.653 93.8741 210.571 95.0568C210.384 97.7734 209.922 101.532 208.528 103.909C205.626 108.845 200.475 110.572 195.213 111.592C189.748 112.652 183.885 112.798 178.427 111.572C173.089 110.373 169.126 107.269 164.816 104.097C162.695 102.528 160.493 101.228 158.216 99.9163C155.647 98.4409 153.283 96.6376 150.952 94.8226C149.242 93.4877 147.596 92.1763 145.637 91.2161C144.387 90.6072 143.362 89.9163 142.556 89.0498C152.22 88.1131 163.825 87.7266 169.912 79.1904C171.22 77.3637 172.125 75.2911 172.513 73.0663ZM262.746 189.31C262.313 189.418 261.821 189.454 261.236 189.424C260.557 189.389 259.878 189.261 259.222 189.066C259.901 188.959 260.592 188.883 261.306 188.992C261.798 189.065 262.278 189.175 262.746 189.31ZM266.271 170.189C267.629 169.229 268.882 168.364 270.065 167.183C271.283 165.962 272.407 164.701 273.906 163.807C274.948 163.184 275.955 162.612 276.962 161.909C278.062 161.142 278.718 160.793 280.018 161.111C282.606 161.747 285.229 162.223 287.793 162.97C288.753 163.253 290.053 163.533 291.154 163.976C290.17 164.428 289.269 164.962 288.73 165.197C285.873 166.46 283.039 167.792 280.358 169.405C278.999 170.229 277.617 171.102 276.388 172.117C275.358 172.964 274.69 174.11 273.742 175.033C271.236 177.484 268.835 179.772 266.786 182.662C265.838 184.013 264.62 185.528 263.976 187.061C263.835 187.41 263.765 187.754 263.753 188.095C262.992 187.846 262.208 187.647 261.412 187.511C260.088 187.288 258.871 187.693 257.618 187.82C257.559 187.818 257.489 187.812 257.43 187.811C257.395 187.715 257.337 187.621 257.243 187.533C256.95 187.238 256.657 186.942 256.365 186.645C256.025 186.229 255.639 185.836 255.276 185.478C255.17 185.383 255.065 185.292 254.96 185.198C255.393 182.59 257.196 179.487 258.098 178.136C260.241 174.924 263.145 172.412 266.271 170.189ZM292.817 164.999C293.027 165.25 293.051 165.446 292.957 165.601C292.781 165.716 292.594 165.825 292.418 165.928C291.856 166.116 291.037 166.172 290.639 166.21C290.416 166.23 290.194 166.245 289.983 166.261C290.592 165.994 291.201 165.729 291.809 165.463C291.95 165.398 292.395 165.17 292.817 164.999ZM223.836 141.459C222.481 137.763 221.467 133.721 220.819 129.836C220.532 128.116 220.345 126.358 219.948 124.659C219.697 123.592 219.3 122.568 219.104 121.489C219.036 121.118 218.694 119.739 219.227 119.474C219.6 119.287 220.786 120.648 221.072 120.961C222.429 122.451 223.086 124.42 223.707 126.301C224.928 130.002 225.887 133.765 226.674 137.58C227.144 139.857 227.649 142.169 227.838 144.489C227.962 146.02 227.954 147.553 227.937 149.089C226.185 146.777 224.818 144.142 223.836 141.459ZM245.287 177.716C241.447 173.524 237.032 169.934 232.189 166.943C231.99 166.82 231.789 166.699 231.588 166.576C231.473 164.336 230.228 162.35 230.091 160.055C229.949 157.677 229.558 155.329 229.444 152.952C231.502 154.822 233.871 156.332 236.295 157.839C241.236 160.91 246.4 163.761 251.587 166.412C253.742 167.512 256.54 167.848 258.496 169.237C259.491 169.945 260.182 171.189 261.248 171.825C261.212 171.996 261.236 172.145 261.306 172.268C258.952 174.405 256.915 176.83 255.428 179.712C254.831 180.849 254.128 182.471 253.73 184.127C252.325 182.98 250.779 181.962 249.234 181.061C248.672 180.736 248.109 180.417 247.547 180.1C246.786 179.328 246.037 178.531 245.287 177.716ZM201.364 167.08C201.322 166.924 201.236 166.785 201.104 166.689C202.867 164.134 206.498 163.142 208.511 160.711C209.023 160.092 209.551 159.466 210.035 158.829C210.542 158.164 210.808 157.373 211.412 156.757C211.933 156.226 213.011 155.852 213.769 156.156C214.268 156.356 214.408 156.963 214.701 157.343C215.192 157.983 215.683 158.329 216.367 158.814C219.724 161.192 223.256 163.305 226.785 165.414C227.955 166.113 229.099 166.832 230.232 167.56C230.326 167.69 230.464 167.771 230.617 167.811C232.899 169.285 235.112 170.816 237.337 172.429C239.55 174.035 241.423 175.878 243.273 177.796C240.217 176.223 237.114 174.763 233.953 173.423C228.676 171.192 223.351 169.136 217.656 168.321C214.841 167.917 212.003 167.718 209.166 167.556C207.77 167.477 206.374 167.408 204.978 167.326C204.302 167.285 202.42 167.398 201.364 167.08ZM283.718 177.108C281.95 179.868 280.205 182.567 278.742 185.514C278.016 186.977 277.325 188.458 276.657 189.943C276.341 190.618 275.627 192.936 274.737 193.994C273.332 192.726 271.845 191.535 270.24 190.73C269.585 190.396 268.742 190.145 267.887 190.065C267.372 189.72 266.856 189.394 266.271 189.115C266.119 189.036 265.955 188.962 265.791 188.885C266.048 188.439 266.283 187.94 266.54 187.403C267.536 185.392 268.753 183.512 270.065 181.693C272.922 177.698 276.599 174.941 280.685 172.295C282.5 171.124 284.28 169.616 286.259 168.775C287.301 168.334 288.32 167.916 289.444 167.784C289.737 167.75 290.018 167.727 290.299 167.706C289.514 168.499 288.8 169.357 288.121 170.253C286.493 172.431 285.194 174.823 283.718 177.108ZM359.28 223.463C347.711 223.683 336.118 223.6 324.549 223.34C318.87 223.213 313.191 223.039 307.512 222.81C304.468 222.687 301.376 222.849 298.367 222.43C295.486 222.029 292.594 222.083 289.69 222.104C287.91 222.117 286.13 222.143 284.35 222.159C282.641 222.176 280.475 222.463 280.627 220.054C280.791 217.528 282.863 215.657 282.711 213.047C282.699 212.95 282.676 212.864 282.641 212.786C282.77 209.857 283.226 206.881 282.723 203.965C282.184 200.794 280.252 199.073 277.969 196.995C277.278 196.364 276.564 195.686 275.838 195.006C276.611 194.043 277.067 192.6 277.524 191.584C278.882 188.606 280.252 185.627 281.868 182.779C283.402 180.07 285.217 177.522 286.856 174.866C288.343 172.433 289.901 170.003 292.044 168.087C292.43 167.744 293.098 167.364 293.742 166.931C293.976 166.806 294.187 166.661 294.35 166.49C295.205 165.812 295.803 165.006 295.217 164.006C294.784 163.273 294.011 163.143 293.121 163.302C292.536 163.017 291.891 162.814 291.341 162.601C287.91 161.258 284.304 160.595 280.732 159.756C279.749 159.524 278.988 159.193 278.004 159.569C276.611 160.099 275.51 161.252 274.222 161.97C272.758 162.779 271.505 163.614 270.311 164.8C268.472 166.626 266.611 168.086 264.538 169.627C263.929 170.079 263.332 170.544 262.746 171.023C262.7 170.943 262.641 170.871 262.559 170.813C262.571 170.793 262.571 170.775 262.571 170.756C262.594 170.638 262.606 170.524 262.618 170.408C262.629 170.282 262.618 170.175 262.582 170.082C262.547 168.158 262.032 166.38 261.482 164.524C260.803 162.288 260.334 159.986 259.878 157.696C258.917 152.827 258.309 148.034 258.133 143.073C257.852 134.786 257.149 126.254 255.205 118.171C254.316 114.436 253.203 110.389 250.826 107.317C248.718 104.588 246.353 102.059 243.648 99.9163C238.871 96.1341 233.262 93.839 227.317 92.6563C226.784 92.551 226.249 92.4572 225.714 92.3753C225.895 92.2933 226.076 92.1996 226.255 92.106C229.821 90.2207 232.395 86.0522 233.836 82.4105C235.451 78.3239 236.189 74.0616 236.341 69.6822C236.47 65.8063 236.189 61.9422 236.646 58.0897C236.798 56.8485 236.821 55.5839 236.95 54.3661C237.032 53.6167 237.36 52.633 237.43 51.6846C237.524 51.5792 237.594 51.4269 237.618 51.2513C238.426 42.5511 239.526 33.4294 236.81 24.9517C234.608 18.0665 229.777 11.8487 223.902 7.645C218.031 3.44127 210.011 0.279618 202.757 0.022008C198.56 -0.141926 194.125 0.642637 189.991 1.3335C185.466 2.08291 180.967 3.28897 176.906 5.46695C168.301 10.0805 161.466 18.4528 159.825 28.1835C158.795 30.8533 157.814 33.4528 156.975 36.1929C156.127 38.9563 154.465 41.3568 153.252 43.968C151.076 48.6402 149.343 53.5113 147.478 58.3239C145.619 63.1131 143.276 67.6448 141.304 72.3637C139.376 77.0007 137.816 82.633 139.797 87.5041C139.843 87.6095 139.898 87.7149 139.946 87.8203C134.87 88.3473 129.765 88.7921 124.727 89.565C120.197 90.2676 115.596 92.9022 112.117 95.8296C108.686 98.6984 105.982 102.387 104.02 106.393C102.026 110.462 101.025 114.876 99.3572 119.067C95.0785 129.826 92.7729 141.164 89.8702 152.341C89.6079 153.352 89.349 154.363 89.0926 155.375C88.9321 155.475 88.794 155.645 88.7659 155.812C88.7108 156.145 88.7061 156.473 88.733 156.794C86.2131 166.849 84.0189 177.004 82.7671 187.296C82.1758 192.155 81.828 197.11 82.6851 201.959C83.5446 206.819 85.7975 211.057 89.1183 214.68C92.5656 218.444 97.0727 220.47 101.902 221.831C102.855 222.1 103.807 222.349 104.758 222.589C101.392 222.803 98.027 223.039 94.6535 223.096C83.698 223.282 72.759 222.66 61.8117 222.42C53.1103 222.231 44.4066 222.286 35.7064 222.383C24.0437 222.514 12.3809 222.68 0.717064 222.683C-0.238436 222.683 -0.239607 224.167 0.717064 224.167C20.2053 224.163 39.7017 223.53 59.1887 223.855C70.0458 224.035 80.8923 224.672 91.7529 224.612C97.5035 224.582 103.21 224.148 108.95 223.845C109.31 223.826 109.672 223.807 110.033 223.792C113.276 224.455 116.54 225.001 119.863 225.479C122.777 225.899 125.687 226.344 128.612 226.687C131.828 227.066 135.055 227.043 138.26 227.433C139.72 227.61 141.197 227.444 142.663 227.631C144.132 227.818 145.571 228.068 147.056 228.146C149.866 228.293 152.672 228.062 155.449 227.632C158.451 227.17 161.376 226.468 164.28 225.593C164.496 225.527 164.713 225.461 164.928 225.395C167.639 225.714 170.674 225.233 172.767 224.545C173.852 224.189 174.901 223.815 175.972 223.519C181.37 223.715 186.695 224.91 192.126 224.689C198.272 224.439 204.305 222.731 210.429 222.541C215.995 222.369 220.953 225.081 225.724 227.608C226.872 228.214 228.021 228.82 229.188 229.386C229.696 229.633 230.189 229.906 230.738 230.034C230.994 230.094 231.234 230.115 231.469 230.136C231.873 230.439 232.325 230.507 232.828 230.488C232.864 230.511 232.899 230.528 232.946 230.553C233.309 230.793 233.66 230.652 233.859 230.382C233.929 230.374 233.988 230.365 234.046 230.358C238.098 229.892 242.032 228.833 245.896 227.596C249.807 226.345 253.672 224.93 257.629 223.84C259.035 223.452 259.995 223.299 260.662 221.908C261.177 220.833 261.06 220.027 260.334 219.11C259.28 217.765 258.098 216.525 256.81 215.393C255.334 214.093 253.59 213.114 252.126 211.82C251.213 211.011 250.358 209.982 250.826 208.764C251.376 207.326 252.817 207.935 253.999 208.228C254.327 208.31 254.667 208.399 254.995 208.492C255.967 209.686 256.903 210.913 257.805 212.162C258.941 213.726 260.088 216.581 262.243 216.87C263.648 217.059 265.229 216.32 265.404 214.806C265.615 212.922 263.835 211.396 262.524 210.369C260.592 208.863 258.18 207.882 255.838 207.19C255.276 206.519 254.714 205.857 254.128 205.214C253.461 204.479 252.009 203.328 251.142 202.156C251.4 201.759 251.669 201.363 251.915 200.961C252.43 200.143 252.922 199.314 253.39 198.474C253.648 198.445 253.894 198.435 254.152 198.438C254.374 198.901 254.725 199.348 255.287 199.864C256.751 201.22 258.227 202.583 259.772 203.849C262.828 206.335 266.154 208.339 269.995 209.308C270.393 209.408 270.791 209.18 270.908 208.788C271.353 207.285 270.849 206.067 269.725 205.02C269.128 204.461 268.437 204.009 267.781 203.524C267.044 202.978 266.505 202.251 265.814 201.699C265.006 201.057 263.636 200.696 262.7 200.206C261.494 199.576 260.299 198.916 259.058 198.358C257.887 197.829 256.634 197.378 255.369 197.173C255.311 196.888 255.311 196.59 255.311 196.258C259.222 195.873 262.864 197.127 266.33 198.828C267.969 201.086 270.112 202.896 272.266 204.648C273.109 205.328 274.796 207.251 276.072 206.207C277.618 204.954 275.803 202.394 274.643 201.641C272.36 200.153 269.807 198.786 267.266 197.602C266.634 196.689 266.072 195.699 265.709 194.662C265.51 194.097 265.229 193.233 265.44 192.65C265.756 191.8 266.54 191.52 267.337 191.506C268.086 192.081 268.777 192.707 269.62 193.135C270.873 193.777 271.927 194.525 272.863 195.528C272.922 195.677 273.027 195.803 273.168 195.882C273.238 195.963 273.308 196.042 273.379 196.125C273.625 196.439 274.163 196.384 274.421 196.125C274.479 196.07 274.538 196.015 274.596 195.959C275.217 196.511 275.838 197.067 276.458 197.627C278.847 199.793 281.013 201.562 281.376 204.963C281.669 207.57 281.271 210.223 281.154 212.829C281.154 212.963 281.177 213.075 281.224 213.171C281.236 215.976 276.06 222.683 281.493 223.583C284.339 224.055 287.524 223.6 290.404 223.584C292.067 223.575 293.73 223.566 295.381 223.621C297.126 223.679 298.824 224.09 300.557 224.169C313.074 224.739 325.662 224.93 338.191 225.038C345.229 225.098 352.254 225.08 359.28 224.946C360.24 224.927 360.24 223.444 359.28 223.463Z" fill="#2A324B"/>
</g>
<defs>
<clipPath id="clip0_22_37">
<rect width="360" height="230.676" fill="white"/>
</clipPath>
</defs>
</svg>
