<svg width="24" height="24" viewBox="0 0 24 24" fill="none" xmlns="http://www.w3.org/2000/svg">
<path d="M13 12H15C15.2653 12 15.5196 12.1054 15.7071 12.2929C15.8947 12.4804 16 12.7348 16 13C16 13.2652 15.8947 13.5196 15.7071 13.7071C15.5196 13.8946 15.2653 14 15 14H12C11.7348 14 11.4805 13.8946 11.2929 13.7071C11.1054 13.5196 11 13.2652 11 13V8C11 7.73478 11.1054 7.48043 11.2929 7.29289C11.4805 7.10536 11.7348 7 12 7C12.2653 7 12.5196 7.10536 12.7071 7.29289C12.8947 7.48043 13 7.73478 13 8V12ZM20.63 10.438C21.0274 11.7806 21.106 13.1975 20.8596 14.5758C20.6132 15.9542 20.0486 17.256 19.2107 18.3778C18.3728 19.4997 17.2847 20.4105 16.0329 21.0379C14.7811 21.6653 13.4002 21.992 12 21.992C10.5998 21.992 9.21895 21.6653 7.96719 21.0379C6.71542 20.4105 5.62732 19.4997 4.78941 18.3778C3.9515 17.256 3.38689 15.9542 3.14049 14.5758C2.89409 13.1975 2.97269 11.7806 3.37004 10.438C2.89993 9.94183 2.53655 9.35453 2.30234 8.7124C2.06813 8.07027 1.96806 7.38694 2.00831 6.70461C2.04857 6.02229 2.2283 5.35546 2.53639 4.74533C2.84449 4.13519 3.27441 3.59471 3.7996 3.15725C4.32479 2.7198 4.93409 2.39468 5.58987 2.20196C6.24565 2.00924 6.93398 1.95302 7.61234 2.03678C8.2907 2.12054 8.94468 2.3425 9.53389 2.68893C10.1231 3.03537 10.635 3.49894 11.038 4.051C11.6776 3.98303 12.3225 3.98303 12.962 4.051C13.3651 3.49894 13.877 3.03537 14.4662 2.68893C15.0554 2.3425 15.7094 2.12054 16.3877 2.03678C17.0661 1.95302 17.7544 2.00924 18.4102 2.20196C19.066 2.39468 19.6753 2.7198 20.2005 3.15725C20.7257 3.59471 21.1556 4.13519 21.4637 4.74533C21.7718 5.35546 21.9515 6.02229 21.9918 6.70461C22.032 7.38694 21.932 8.07027 21.6977 8.7124C21.4635 9.35453 21.1001 9.94183 20.63 10.438ZM19.692 8.325C19.9899 7.72116 20.076 7.03468 19.9364 6.376C19.7969 5.71731 19.4398 5.12472 18.9226 4.69356C18.4055 4.26241 17.7583 4.01776 17.0853 3.99897C16.4122 3.98019 15.7524 4.18836 15.212 4.59C17.0774 5.30515 18.653 6.61871 19.692 8.325ZM8.78704 4.59C8.24664 4.18836 7.58684 3.98019 6.9138 3.99897C6.24075 4.01776 5.59359 4.26241 5.07644 4.69356C4.55928 5.12472 4.2022 5.71731 4.06264 6.376C3.92309 7.03468 4.00917 7.72116 4.30704 8.325C5.3461 6.61871 6.92166 5.30515 8.78704 4.59ZM12 20C12.9193 20 13.8295 19.8189 14.6788 19.4672C15.5281 19.1154 16.2998 18.5998 16.9498 17.9497C17.5998 17.2997 18.1154 16.5281 18.4672 15.6788C18.819 14.8295 19 13.9193 19 13C19 12.0807 18.819 11.1705 18.4672 10.3212C18.1154 9.47194 17.5998 8.70026 16.9498 8.05025C16.2998 7.40024 15.5281 6.88463 14.6788 6.53284C13.8295 6.18106 12.9193 6 12 6C10.1435 6 8.36304 6.7375 7.05029 8.05025C5.73754 9.36301 5.00004 11.1435 5.00004 13C5.00004 14.8565 5.73754 16.637 7.05029 17.9497C8.36304 19.2625 10.1435 20 12 20Z" fill="#111111"/>
</svg>
