<svg width="24" height="24" viewBox="0 0 24 24" fill="none" xmlns="http://www.w3.org/2000/svg">
<path d="M14.3145 15L15.0735 17.079C15.3285 17.778 16.1745 18.162 16.9635 17.934C17.751 17.709 18.183 16.9575 17.928 16.2585L14.853 7.8435C14.5575 7.0305 13.8405 6.393 12.9255 6.1305C11.3505 5.6775 9.657 6.444 9.1455 7.842L6.075 16.257C5.82 16.9575 6.252 17.7075 7.0395 17.9355C7.827 18.1605 8.6745 17.778 8.9295 17.079L9.687 15H14.3145ZM13.2195 12H10.782L12 8.664L13.2195 12ZM6 3H18C18.7956 3 19.5587 3.31607 20.1213 3.87868C20.6839 4.44129 21 5.20435 21 6V18C21 18.7956 20.6839 19.5587 20.1213 20.1213C19.5587 20.6839 18.7956 21 18 21H6C5.20435 21 4.44129 20.6839 3.87868 20.1213C3.31607 19.5587 3 18.7956 3 18V6C3 5.20435 3.31607 4.44129 3.87868 3.87868C4.44129 3.31607 5.20435 3 6 3Z" fill="#111111"/>
</svg>
