<svg width="24" height="24" viewBox="0 0 24 24" fill="none" xmlns="http://www.w3.org/2000/svg">
<path d="M12 20C14.1217 20 16.1566 19.1571 17.6569 17.6569C19.1571 16.1566 20 14.1217 20 12C20 9.87827 19.1571 7.84344 17.6569 6.34315C16.1566 4.84285 14.1217 4 12 4C9.87827 4 7.84344 4.84285 6.34315 6.34315C4.84285 7.84344 4 9.87827 4 12C4 14.1217 4.84285 16.1566 6.34315 17.6569C7.84344 19.1571 9.87827 20 12 20ZM12 22C6.477 22 2 17.523 2 12C2 6.477 6.477 2 12 2C17.523 2 22 6.477 22 12C22 17.523 17.523 22 12 22Z" fill="#111111"/>
<path d="M7.00001 12C7.00001 10.29 6.46201 8.671 5.50001 7.334C4.52213 8.69308 3.99729 10.3257 4.00001 12C4.00001 13.71 4.53801 15.329 5.50001 16.666C6.47788 15.3069 7.00272 13.6743 7.00001 12ZM2.00001 12C1.99844 10.5554 2.3106 9.1276 2.91489 7.81541C3.51919 6.50322 4.40122 5.33791 5.50001 4.4C6.5988 5.33791 7.48082 6.50322 8.08512 7.81541C8.68941 9.1276 9.00157 10.5554 9.00001 12C9.00157 13.4446 8.68941 14.8724 8.08512 16.1846C7.48082 17.4968 6.5988 18.6621 5.50001 19.6C4.40122 18.6621 3.51919 17.4968 2.91489 16.1846C2.3106 14.8724 1.99844 13.4446 2.00001 12ZM17 12C17 13.71 17.538 15.329 18.5 16.666C19.4779 15.3069 20.0027 13.6743 20 12C20 10.29 19.462 8.671 18.5 7.334C17.5221 8.69308 16.9973 10.3257 17 12ZM22 12C22.0016 13.4446 21.6894 14.8724 21.0851 16.1846C20.4808 17.4968 19.5988 18.6621 18.5 19.6C17.4012 18.6621 16.5192 17.4968 15.9149 16.1846C15.3106 14.8724 14.9984 13.4446 15 12C14.9984 10.5554 15.3106 9.1276 15.9149 7.81541C16.5192 6.50322 17.4012 5.33791 18.5 4.4C19.5988 5.33791 20.4808 6.50322 21.0851 7.81541C21.6894 9.1276 22.0016 10.5554 22 12Z" fill="#111111"/>
<path d="M13 11H21V13H13V21H11V13H3V11H11V3H13V11Z" fill="#111111"/>
</svg>
