<svg width="24" height="24" viewBox="0 0 24 24" fill="none" xmlns="http://www.w3.org/2000/svg">
<path d="M10.2 12.728V17.0912H12.6C13.9248 17.0912 15 16.1152 15 14.9088C15 13.704 13.9248 12.728 12.6 12.728H10.2ZM15.8224 10.744C17.2608 11.6688 18.2 13.1904 18.2 14.9104C18.2 17.72 15.6928 20 12.6 20H7V5.456C7 4.6496 7.7168 4 8.6 4H11.8C14.4512 4 16.6 5.9536 16.6 8.3632C16.6 9.2432 16.3136 10.0576 15.8224 10.744ZM10.2 6.9104V9.8192H11.8C12.6832 9.8192 13.4 9.168 13.4 8.3648C13.4 7.5616 12.6832 6.9104 11.8 6.9104H10.2Z" fill="#111111"/>
</svg>
