<svg width="24" height="24" viewBox="0 0 24 24" fill="none" xmlns="http://www.w3.org/2000/svg">
<path d="M8.1084 9.5H6.6C6.12261 9.5 5.66477 9.68964 5.32721 10.0272C4.98964 10.3648 4.8 10.8226 4.8 11.3V15.8C4.8 16.2774 4.98964 16.7352 5.32721 17.0728C5.66477 17.4104 6.12261 17.6 6.6 17.6H17.4C17.8774 17.6 18.3352 17.4104 18.6728 17.0728C19.0104 16.7352 19.2 16.2774 19.2 15.8V11.3C19.2 10.8226 19.0104 10.3648 18.6728 10.0272C18.3352 9.68964 17.8774 9.5 17.4 9.5H15.8916L15.5433 8.1491C15.4431 7.76296 15.2175 7.42101 14.902 7.17686C14.5865 6.9327 14.1989 6.80016 13.8 6.8H10.2C9.80099 6.79985 9.41324 6.93228 9.09768 7.17648C8.78212 7.42068 8.55665 7.76281 8.4567 8.1491L8.1084 9.5ZM6.7134 7.7C7.113 6.1475 8.5224 5 10.2 5H13.8C14.5982 5.00011 15.3737 5.26534 16.0048 5.75405C16.6359 6.24275 17.0868 6.92724 17.2866 7.7H17.4C18.3548 7.7 19.2705 8.07928 19.9456 8.75442C20.6207 9.42955 21 10.3452 21 11.3V15.8C21 16.7548 20.6207 17.6705 19.9456 18.3456C19.2705 19.0207 18.3548 19.4 17.4 19.4H6.6C5.64522 19.4 4.72955 19.0207 4.05442 18.3456C3.37928 17.6705 3 16.7548 3 15.8V11.3C3 10.3452 3.37928 9.42955 4.05442 8.75442C4.72955 8.07928 5.64522 7.7 6.6 7.7H6.7134ZM12 16.7C11.0452 16.7 10.1295 16.3207 9.45442 15.6456C8.77928 14.9705 8.4 14.0548 8.4 13.1C8.4 12.1452 8.77928 11.2295 9.45442 10.5544C10.1295 9.87928 11.0452 9.5 12 9.5C12.9548 9.5 13.8705 9.87928 14.5456 10.5544C15.2207 11.2295 15.6 12.1452 15.6 13.1C15.6 14.0548 15.2207 14.9705 14.5456 15.6456C13.8705 16.3207 12.9548 16.7 12 16.7ZM12 14.9C12.4774 14.9 12.9352 14.7104 13.2728 14.3728C13.6104 14.0352 13.8 13.5774 13.8 13.1C13.8 12.6226 13.6104 12.1648 13.2728 11.8272C12.9352 11.4896 12.4774 11.3 12 11.3C11.5226 11.3 11.0648 11.4896 10.7272 11.8272C10.3896 12.1648 10.2 12.6226 10.2 13.1C10.2 13.5774 10.3896 14.0352 10.7272 14.3728C11.0648 14.7104 11.5226 14.9 12 14.9ZM17.4 12.2C17.6387 12.2 17.8676 12.1052 18.0364 11.9364C18.2052 11.7676 18.3 11.5387 18.3 11.3C18.3 11.0613 18.2052 10.8324 18.0364 10.6636C17.8676 10.4948 17.6387 10.4 17.4 10.4C17.1613 10.4 16.9324 10.4948 16.7636 10.6636C16.5948 10.8324 16.5 11.0613 16.5 11.3C16.5 11.5387 16.5948 11.7676 16.7636 11.9364C16.9324 12.1052 17.1613 12.2 17.4 12.2Z" fill="#111111"/>
</svg>
