<svg width="24" height="24" viewBox="0 0 24 24" fill="none" xmlns="http://www.w3.org/2000/svg">
<path d="M14.314 12.071L9.36402 7.121C9.18187 6.9324 9.08107 6.6798 9.08335 6.4176C9.08563 6.1554 9.1908 5.90459 9.37621 5.71918C9.56161 5.53377 9.81243 5.4286 10.0746 5.42633C10.3368 5.42405 10.5894 5.52484 10.778 5.707L16.435 11.364C16.6225 11.5515 16.7278 11.8058 16.7278 12.071C16.7278 12.3362 16.6225 12.5905 16.435 12.778L10.778 18.435C10.5894 18.6172 10.3368 18.718 10.0746 18.7157C9.81243 18.7134 9.56161 18.6082 9.37621 18.4228C9.1908 18.2374 9.08563 17.9866 9.08335 17.7244C9.08107 17.4622 9.18187 17.2096 9.36402 17.021L14.314 12.071Z" fill="#111111"/>
</svg>
