<svg width="24" height="24" viewBox="0 0 24 24" fill="none" xmlns="http://www.w3.org/2000/svg">
<path d="M12.071 14.314L17.021 9.364C17.1133 9.26849 17.2236 9.19231 17.3456 9.1399C17.4676 9.08749 17.5988 9.05991 17.7316 9.05875C17.8644 9.0576 17.9961 9.0829 18.119 9.13318C18.2419 9.18346 18.3535 9.25772 18.4474 9.35161C18.5413 9.4455 18.6156 9.55715 18.6658 9.68005C18.7161 9.80295 18.7414 9.93463 18.7403 10.0674C18.7391 10.2002 18.7115 10.3314 18.6591 10.4534C18.6067 10.5754 18.5305 10.6858 18.435 10.778L12.778 16.435C12.5905 16.6225 12.3362 16.7278 12.071 16.7278C11.8059 16.7278 11.5515 16.6225 11.364 16.435L5.70702 10.778C5.61151 10.6858 5.53533 10.5754 5.48292 10.4534C5.43051 10.3314 5.40292 10.2002 5.40177 10.0674C5.40062 9.93463 5.42592 9.80295 5.4762 9.68005C5.52648 9.55715 5.60073 9.4455 5.69463 9.35161C5.78852 9.25772 5.90017 9.18346 6.02307 9.13318C6.14596 9.0829 6.27764 9.0576 6.41042 9.05875C6.5432 9.05991 6.67442 9.08749 6.79643 9.1399C6.91843 9.19231 7.02877 9.26849 7.12102 9.364L12.071 14.314Z" fill="#111111"/>
</svg>
