<svg width="24" height="24" viewBox="0 0 24 24" fill="none" xmlns="http://www.w3.org/2000/svg">
<path d="M9.75699 12L14.707 16.95C14.8025 17.0422 14.8787 17.1526 14.9311 17.2746C14.9835 17.3966 15.0111 17.5278 15.0122 17.6606C15.0134 17.7934 14.9881 17.9251 14.9378 18.048C14.8875 18.1709 14.8133 18.2825 14.7194 18.3764C14.6255 18.4703 14.5138 18.5445 14.3909 18.5948C14.268 18.6451 14.1364 18.6704 14.0036 18.6693C13.8708 18.6681 13.7396 18.6405 13.6176 18.5881C13.4956 18.5357 13.3852 18.4595 13.293 18.364L7.63599 12.707C7.44852 12.5195 7.3432 12.2652 7.3432 12C7.3432 11.7348 7.44852 11.4805 7.63599 11.293L13.293 5.636C13.4816 5.45384 13.7342 5.35305 13.9964 5.35533C14.2586 5.35761 14.5094 5.46277 14.6948 5.64818C14.8802 5.83359 14.9854 6.0844 14.9877 6.3466C14.9899 6.6088 14.8891 6.8614 14.707 7.05L9.75699 12Z" fill="#111111"/>
</svg>
