<svg width="24" height="24" viewBox="0 0 24 24" fill="none" xmlns="http://www.w3.org/2000/svg">
<path d="M13.4093 11.9953L16.9443 8.45929C17.0398 8.36704 17.116 8.2567 17.1684 8.13469C17.2208 8.01269 17.2484 7.88147 17.2495 7.74869C17.2507 7.61591 17.2254 7.48423 17.1751 7.36133C17.1248 7.23844 17.0506 7.12679 16.9567 7.03289C16.8628 6.939 16.7511 6.86475 16.6282 6.81447C16.5053 6.76419 16.3737 6.73888 16.2409 6.74004C16.1081 6.74119 15.9769 6.76878 15.8549 6.82119C15.7329 6.8736 15.6225 6.94978 15.5303 7.04529L11.9943 10.5803L8.45928 7.04529C8.36703 6.94978 8.25669 6.8736 8.13468 6.82119C8.01268 6.76878 7.88146 6.74119 7.74868 6.74004C7.6159 6.73888 7.48422 6.76419 7.36132 6.81447C7.23843 6.86475 7.12678 6.939 7.03288 7.03289C6.93899 7.12679 6.86474 7.23844 6.81446 7.36133C6.76418 7.48423 6.73887 7.61591 6.74003 7.74869C6.74118 7.88147 6.76877 8.01269 6.82118 8.13469C6.87359 8.2567 6.94977 8.36704 7.04528 8.45929L10.5803 11.9943L7.04528 15.5303C6.94977 15.6225 6.87359 15.7329 6.82118 15.8549C6.76877 15.9769 6.74118 16.1081 6.74003 16.2409C6.73887 16.3737 6.76418 16.5053 6.81446 16.6282C6.86474 16.7511 6.93899 16.8628 7.03288 16.9567C7.12678 17.0506 7.23843 17.1248 7.36132 17.1751C7.48422 17.2254 7.6159 17.2507 7.74868 17.2495C7.88146 17.2484 8.01268 17.2208 8.13468 17.1684C8.25669 17.116 8.36703 17.0398 8.45928 16.9443L11.9943 13.4093L15.5303 16.9443C15.6225 17.0398 15.7329 17.116 15.8549 17.1684C15.9769 17.2208 16.1081 17.2484 16.2409 17.2495C16.3737 17.2507 16.5053 17.2254 16.6282 17.1751C16.7511 17.1248 16.8628 17.0506 16.9567 16.9567C17.0506 16.8628 17.1248 16.7511 17.1751 16.6282C17.2254 16.5053 17.2507 16.3737 17.2495 16.2409C17.2484 16.1081 17.2208 15.9769 17.1684 15.8549C17.116 15.7329 17.0398 15.6225 16.9443 15.5303L13.4093 11.9953Z" fill="#111111"/>
</svg>
