<svg width="24" height="24" viewBox="0 0 24 24" fill="none" xmlns="http://www.w3.org/2000/svg">
<path d="M8.50203 14.348H11.331L14.038 11.77L12.624 10.423L8.50203 14.348ZM6.51503 16.253C6.07041 16.7289 5.72924 17.2917 5.51303 17.906L5.17903 18.86L6.18103 18.542C6.91117 18.3119 7.57937 17.9186 8.13503 17.392L9.33103 16.252H6.51503V16.253ZM16.866 11.77C16.9586 11.8561 17.0323 11.9603 17.0828 12.0762C17.1333 12.1921 17.1593 12.3171 17.1593 12.4435C17.1593 12.5699 17.1333 12.6949 17.0828 12.8108C17.0323 12.9267 16.9586 13.0309 16.866 13.117C16.6742 13.2961 16.4215 13.3957 16.159 13.3957C15.8966 13.3957 15.6439 13.2961 15.452 13.117L9.55003 18.738C8.7717 19.4754 7.83573 20.026 6.81303 20.348L3.91403 21.269C3.39103 21.435 2.82403 21.166 2.65003 20.667C2.5815 20.4718 2.5815 20.2592 2.65003 20.064L3.61603 17.304C3.9649 16.3137 4.54415 15.4205 5.30603 14.698L11.21 9.076C11.1175 8.9899 11.0437 8.88566 10.9933 8.76979C10.9428 8.65391 10.9168 8.52888 10.9168 8.4025C10.9168 8.27611 10.9428 8.15108 10.9933 8.03521C11.0437 7.91933 11.1175 7.8151 11.21 7.729C11.4019 7.54988 11.6546 7.45026 11.917 7.45026C12.1795 7.45026 12.4322 7.54988 12.624 7.729L16.866 3.689C18.038 2.573 19.937 2.573 21.109 3.689C21.3862 3.94744 21.6072 4.26014 21.7583 4.60765C21.9094 4.95517 21.9874 5.33005 21.9874 5.709C21.9874 6.08794 21.9094 6.46283 21.7583 6.81034C21.6072 7.15786 21.3862 7.47056 21.109 7.729L16.866 11.769V11.77ZM14.038 9.076L15.452 10.423L19.695 6.383C19.7876 6.2969 19.8613 6.19266 19.9118 6.07679C19.9623 5.96091 19.9883 5.83588 19.9883 5.7095C19.9883 5.58311 19.9623 5.45808 19.9118 5.34221C19.8613 5.22633 19.7876 5.12209 19.695 5.036C19.5032 4.85688 19.2505 4.75726 18.988 4.75726C18.7256 4.75726 18.4729 4.85688 18.281 5.036L14.038 9.076Z" fill="#111111"/>
</svg>
