<svg width="24" height="24" viewBox="0 0 24 24" fill="none" xmlns="http://www.w3.org/2000/svg">
<path d="M5.8 10.6H11.4V6.4C11.4 6.0287 11.5475 5.6726 11.8101 5.41005C12.0726 5.1475 12.4287 5 12.8 5C13.1713 5 13.5274 5.1475 13.7899 5.41005C14.0525 5.6726 14.2 6.0287 14.2 6.4V17.6C14.2 17.9713 14.0525 18.3274 13.7899 18.5899C13.5274 18.8525 13.1713 19 12.8 19C12.4287 19 12.0726 18.8525 11.8101 18.5899C11.5475 18.3274 11.4 17.9713 11.4 17.6V13.4H5.8V17.6C5.8 17.9713 5.6525 18.3274 5.38995 18.5899C5.1274 18.8525 4.7713 19 4.4 19C4.0287 19 3.6726 18.8525 3.41005 18.5899C3.1475 18.3274 3 17.9713 3 17.6V6.4C3 6.0287 3.1475 5.6726 3.41005 5.41005C3.6726 5.1475 4.0287 5 4.4 5C4.7713 5 5.1274 5.1475 5.38995 5.41005C5.6525 5.6726 5.8 6.0287 5.8 6.4V10.6ZM19.128 11.6906H17V9.2H21.704V19H19.128V11.6906Z" fill="#111111"/>
</svg>
