<svg width="24" height="24" viewBox="0 0 24 24" fill="none" xmlns="http://www.w3.org/2000/svg">
<path d="M4.8 10.6H10.4V6.4C10.4 6.0287 10.5475 5.6726 10.8101 5.41005C11.0726 5.1475 11.4287 5 11.8 5C12.1713 5 12.5274 5.1475 12.79 5.41005C13.0525 5.6726 13.2 6.0287 13.2 6.4V17.6C13.2 17.9713 13.0525 18.3274 12.79 18.5899C12.5274 18.8525 12.1713 19 11.8 19C11.4287 19 11.0726 18.8525 10.8101 18.5899C10.5475 18.3274 10.4 17.9713 10.4 17.6V13.4H4.8V17.6C4.8 17.9713 4.6525 18.3274 4.38995 18.5899C4.1274 18.8525 3.7713 19 3.4 19C3.0287 19 2.6726 18.8525 2.41005 18.5899C2.1475 18.3274 2 17.9713 2 17.6V6.4C2 6.0287 2.1475 5.6726 2.41005 5.41005C2.6726 5.1475 3.0287 5 3.4 5C3.7713 5 4.1274 5.1475 4.38995 5.41005C4.6525 5.6726 4.8 6.0287 4.8 6.4V10.6ZM22.832 16.6928V19H16V17.5804L16.14 17.236L18.639 14.5578C19.241 13.9488 19.7492 13.4798 19.9312 13.1424C20.1048 12.8204 20.186 12.5446 20.186 12.3206C20.186 12.1246 20.13 11.9818 20.0082 11.8628C19.9428 11.8011 19.8655 11.7535 19.781 11.7229C19.6964 11.6923 19.6065 11.6794 19.5168 11.685C19.4226 11.6817 19.3289 11.6999 19.2428 11.7382C19.1566 11.7765 19.0804 11.834 19.0198 11.9062C18.8728 12.07 18.7888 12.3094 18.7776 12.6412L18.7608 13.1144H16.2072L16.2296 12.602C16.2772 11.573 16.6104 10.74 17.2348 10.124C17.8592 9.508 18.6628 9.2 19.619 9.2C20.2126 9.2 20.746 9.3274 21.215 9.585C21.6854 9.8454 22.0634 10.222 22.3434 10.705C22.6206 11.1852 22.7634 11.685 22.7634 12.1932C22.7634 12.7756 22.4414 13.3818 22.125 14.023C21.8142 14.653 21.3774 15.2494 20.6354 16.2L20.473 16.3722L20.1174 16.6928H22.8306H22.832Z" fill="#111111"/>
</svg>
