<svg width="24" height="24" viewBox="0 0 24 24" fill="none" xmlns="http://www.w3.org/2000/svg">
<path d="M4.79274 10.5855H10.3782V6.39637C10.3782 6.02603 10.5253 5.67086 10.7872 5.40899C11.0491 5.14712 11.4042 5 11.7746 5C12.1449 5 12.5001 5.14712 12.762 5.40899C13.0238 5.67086 13.171 6.02603 13.171 6.39637V17.5673C13.171 17.9377 13.0238 18.2928 12.762 18.5547C12.5001 18.8166 12.1449 18.9637 11.7746 18.9637C11.4042 18.9637 11.0491 18.8166 10.7872 18.5547C10.5253 18.2928 10.3782 17.9377 10.3782 17.5673V13.3782H4.79274V17.5673C4.79274 17.9377 4.64562 18.2928 4.38375 18.5547C4.12188 18.8166 3.76671 18.9637 3.39637 18.9637C3.02603 18.9637 2.67086 18.8166 2.40899 18.5547C2.14712 18.2928 2 17.9377 2 17.5673V6.39637C2 6.02603 2.14712 5.67086 2.40899 5.40899C2.67086 5.14712 3.02603 5 3.39637 5C3.76671 5 4.12188 5.14712 4.38375 5.40899C4.64562 5.67086 4.79274 6.02603 4.79274 6.39637V10.5855ZM22.1817 14.0946L22.2418 14.1714C22.5965 14.6377 22.7724 15.1879 22.7724 15.8079C22.7724 16.6974 22.4387 17.4654 21.7852 18.0812C21.1345 18.6942 20.305 19 19.3234 19C18.3864 19 17.5988 18.7082 16.99 18.1245C16.3812 17.5408 16.0503 16.7518 15.9944 15.7842L15.9637 15.2675H18.4813L18.547 15.6794C18.6 16.0118 18.7034 16.2338 18.8472 16.3637C18.9868 16.4907 19.1684 16.555 19.4085 16.555C19.5167 16.5603 19.6249 16.5434 19.7262 16.5052C19.8276 16.467 19.92 16.4083 19.9978 16.3329C20.0701 16.2652 20.1272 16.1829 20.1652 16.0914C20.2033 15.9999 20.2214 15.9014 20.2184 15.8023C20.2184 15.5747 20.1249 15.3904 19.9056 15.2172C19.6683 15.0301 19.294 14.924 18.7676 14.917L18.2859 14.9114V13.2777L18.7676 13.2721C19.294 13.2665 19.6697 13.1604 19.9056 12.9719C20.1249 12.7987 20.2184 12.6158 20.2184 12.3882C20.2216 12.2889 20.2036 12.1901 20.1655 12.0984C20.1275 12.0066 20.0703 11.9241 19.9978 11.8562C19.92 11.7808 19.8276 11.7221 19.7262 11.6839C19.6249 11.6457 19.5167 11.6288 19.4085 11.6342C19.2035 11.6233 19.0023 11.6924 18.8472 11.8269C18.7034 11.9553 18.6 12.1773 18.547 12.5097L18.4813 12.9216H15.9637L15.9944 12.4049C16.0503 11.4373 16.3812 10.6483 16.99 10.066C17.5988 9.48095 18.3864 9.18911 19.322 9.18911C20.305 9.18911 21.1345 9.49631 21.7852 10.1079C22.4387 10.7237 22.7738 11.4917 22.7738 12.3826C22.7843 13.0052 22.5747 13.6115 22.1817 14.0946Z" fill="#111111"/>
</svg>
