<svg width="24" height="24" viewBox="0 0 24 24" fill="none" xmlns="http://www.w3.org/2000/svg">
<path d="M8.6368 16.8L11.7568 7.2H9.8C9.37565 7.2 8.96869 7.03143 8.66863 6.73137C8.36857 6.43131 8.2 6.02435 8.2 5.6C8.2 5.17565 8.36857 4.76869 8.66863 4.46863C8.96869 4.16857 9.37565 4 9.8 4H17.8C18.2243 4 18.6313 4.16857 18.9314 4.46863C19.2314 4.76869 19.4 5.17565 19.4 5.6C19.4 6.02435 19.2314 6.43131 18.9314 6.73137C18.6313 7.03143 18.2243 7.2 17.8 7.2H15.1216L12.0016 16.8H14.6C15.0243 16.8 15.4313 16.9686 15.7314 17.2686C16.0314 17.5687 16.2 17.9757 16.2 18.4C16.2 18.8243 16.0314 19.2313 15.7314 19.5314C15.4313 19.8314 15.0243 20 14.6 20H6.6C6.17565 20 5.76869 19.8314 5.46863 19.5314C5.16857 19.2313 5 18.8243 5 18.4C5 17.9757 5.16857 17.5687 5.46863 17.2686C5.76869 16.9686 6.17565 16.8 6.6 16.8H8.6368Z" fill="#111111"/>
</svg>
