<svg width="24" height="24" viewBox="0 0 24 24" fill="none" xmlns="http://www.w3.org/2000/svg">
<path d="M9.61198 17.337L13.358 13.59L14.385 13.773C15.4329 13.9609 16.5134 13.8094 17.4692 13.3407C18.425 12.8719 19.2062 12.1103 19.6992 11.1667C20.1921 10.2231 20.371 9.14678 20.2098 8.09446C20.0487 7.04215 19.5558 6.06874 18.803 5.31597C18.0502 4.56319 17.0768 4.07033 16.0245 3.90914C14.9722 3.74796 13.8959 3.92685 12.9523 4.41979C12.0087 4.91273 11.2471 5.69398 10.7783 6.64981C10.3095 7.60563 10.1581 8.68613 10.346 9.734L10.53 10.762L3.53598 17.756L3.71298 20.407L6.36398 20.584L8.19698 18.751L7.48998 18.044C7.30247 17.8564 7.19718 17.6019 7.19728 17.3366C7.19737 17.0714 7.30284 16.817 7.49048 16.6295C7.67812 16.442 7.93256 16.3367 8.19783 16.3368C8.4631 16.3369 8.71747 16.4424 8.90498 16.63L9.61198 17.337ZM10.319 3.902C11.1701 3.05086 12.2264 2.43358 13.3857 2.10979C14.545 1.78599 15.7683 1.76661 16.9373 2.05353C18.1063 2.34045 19.1815 2.92396 20.0592 3.74772C20.9369 4.57148 21.5873 5.60764 21.9477 6.75613C22.308 7.90462 22.3661 9.12663 22.1164 10.3041C21.8666 11.4816 21.3175 12.5748 20.5219 13.4782C19.7264 14.3815 18.7114 15.0644 17.5749 15.461C16.4384 15.8575 15.2188 15.9543 14.034 15.742L7.13698 22.64L2.70698 22.345C2.46505 22.329 2.23715 22.2257 2.0657 22.0543C1.89426 21.8828 1.79094 21.6549 1.77498 21.413L1.47998 16.983L8.37798 10.085C8.1784 8.97434 8.25061 7.83188 8.58844 6.75519C8.92627 5.67849 9.51967 4.69956 10.318 3.902H10.319ZM14.561 9.558C14.186 9.18285 13.9753 8.6741 13.9754 8.14365C13.9755 7.6132 14.1863 7.10452 14.5615 6.7295C14.9366 6.35449 15.4454 6.14386 15.9758 6.14395C16.5063 6.14404 17.015 6.35485 17.39 6.73C17.765 7.10515 17.9756 7.61391 17.9755 8.14436C17.9754 8.6748 17.7646 9.18349 17.3895 9.5585C17.0143 9.93352 16.5056 10.1441 15.9751 10.1441C15.4447 10.144 14.936 9.93315 14.561 9.558Z" fill="#111111"/>
</svg>
