<svg width="24" height="24" viewBox="0 0 24 24" fill="none" xmlns="http://www.w3.org/2000/svg">
<path d="M6.8359 12.3067C6.99753 12.1454 7.21649 12.0549 7.44477 12.0549C7.67305 12.0549 7.89201 12.1454 8.05364 12.3067C8.13349 12.3864 8.19683 12.4811 8.24005 12.5854C8.28327 12.6896 8.30552 12.8013 8.30552 12.9142C8.30552 13.027 8.28327 13.1388 8.24005 13.243C8.19683 13.3473 8.13349 13.442 8.05364 13.5217L6.22703 15.3457C6.0672 15.5052 5.9404 15.6947 5.85388 15.9032C5.76736 16.1118 5.72283 16.3354 5.72283 16.5612C5.72283 16.787 5.76736 17.0106 5.85388 17.2192C5.9404 17.4277 6.0672 17.6172 6.22703 17.7767C6.55028 18.0991 6.98821 18.2802 7.44477 18.2802C7.90133 18.2802 8.33925 18.0991 8.66251 17.7767L12.9237 13.5217C13.0036 13.442 13.0669 13.3473 13.1101 13.243C13.1533 13.1388 13.1756 13.027 13.1756 12.9142C13.1756 12.8013 13.1533 12.6896 13.1101 12.5854C13.0669 12.4811 13.0036 12.3864 12.9237 12.3067C12.8437 12.2269 12.7803 12.1321 12.737 12.0278C12.6937 11.9235 12.6714 11.8116 12.6714 11.6987C12.6714 11.5857 12.6937 11.4739 12.737 11.3695C12.7803 11.2652 12.8437 11.1705 12.9237 11.0907C13.0853 10.9295 13.3043 10.839 13.5326 10.839C13.7609 10.839 13.9798 10.9295 14.1415 11.0907C14.3813 11.33 14.5715 11.6142 14.7013 11.9271C14.8312 12.24 14.898 12.5754 14.898 12.9142C14.898 13.253 14.8312 13.5884 14.7013 13.9013C14.5715 14.2142 14.3813 14.4984 14.1415 14.7377L9.87936 18.9927C9.23297 19.6377 8.35707 20 7.44388 20C6.53069 20 5.6548 19.6377 5.0084 18.9927C4.68874 18.6737 4.43513 18.2947 4.2621 17.8776C4.08907 17.4604 4 17.0133 4 16.5616C4 16.11 4.08907 15.6628 4.2621 15.2457C4.43513 14.8285 4.68874 14.4496 5.0084 14.1306L6.8359 12.3058V12.3067ZM17.1645 11.6933C17.0029 11.8545 16.7839 11.9451 16.5556 11.9451C16.3273 11.9451 16.1084 11.8545 15.9467 11.6933C15.8669 11.6136 15.8035 11.5189 15.7603 11.4146C15.7171 11.3104 15.6949 11.1987 15.6949 11.0858C15.6949 10.973 15.7171 10.8612 15.7603 10.757C15.8035 10.6527 15.8669 10.558 15.9467 10.4783L17.7733 8.65432C17.9332 8.49481 18.06 8.30535 18.1465 8.09677C18.233 7.8882 18.2775 7.66461 18.2775 7.4388C18.2775 7.213 18.233 6.98941 18.1465 6.78083C18.06 6.57226 17.9332 6.38279 17.7733 6.22328C17.4501 5.90087 17.0122 5.71981 16.5556 5.71981C16.099 5.71981 15.6611 5.90087 15.3379 6.22328L11.0775 10.4783C10.9977 10.558 10.9344 10.6527 10.8911 10.757C10.8479 10.8612 10.8257 10.973 10.8257 11.0858C10.8257 11.1987 10.8479 11.3104 10.8911 11.4146C10.9344 11.5189 10.9977 11.6136 11.0775 11.6933C11.1575 11.7731 11.221 11.8679 11.2643 11.9722C11.3076 12.0765 11.3299 12.1884 11.3299 12.3013C11.3299 12.4143 11.3076 12.5261 11.2643 12.6305C11.221 12.7348 11.1575 12.8295 11.0775 12.9093C10.9159 13.0705 10.697 13.161 10.4687 13.161C10.2404 13.161 10.0214 13.0705 9.85981 12.9093C9.62 12.67 9.42974 12.3858 9.29992 12.0729C9.17011 11.76 9.10329 11.4246 9.10329 11.0858C9.10329 10.747 9.17011 10.4116 9.29992 10.0987C9.42974 9.7858 9.62 9.50158 9.85981 9.2623L14.1219 5.00732C14.7683 4.36227 15.6442 4 16.5574 4C17.4706 4 18.3465 4.36227 18.9929 5.00732C19.3125 5.32634 19.5661 5.70527 19.7392 6.12242C19.9122 6.53957 20.0013 6.98675 20.0013 7.43836C20.0013 7.88997 19.9122 8.33715 19.7392 8.7543C19.5661 9.17145 19.3125 9.55038 18.9929 9.8694L17.1645 11.6942V11.6933Z" fill="#111111"/>
</svg>
