<svg width="24" height="24" viewBox="0 0 24 24" fill="none" xmlns="http://www.w3.org/2000/svg">
<path d="M14.0988 15.5H13C12.8011 15.5 12.6103 15.421 12.4697 15.2803C12.329 15.1397 12.25 14.9489 12.25 14.75C12.25 14.5511 12.329 14.3603 12.4697 14.2197C12.6103 14.079 12.8011 14 13 14H14.5V12.5H13C12.8011 12.5 12.6103 12.421 12.4697 12.2803C12.329 12.1397 12.25 11.9489 12.25 11.75C12.25 11.5511 12.329 11.3603 12.4697 11.2197C12.6103 11.079 12.8011 11 13 11H14.5V9.5H13C12.8011 9.5 12.6103 9.42098 12.4697 9.28033C12.329 9.13968 12.25 8.94891 12.25 8.75C12.25 8.55109 12.329 8.36032 12.4697 8.21967C12.6103 8.07902 12.8011 8 13 8H14.0988C13.8355 7.54374 13.4567 7.16488 13.0005 6.90155C12.5443 6.63823 12.0268 6.49973 11.5 6.5C10.39 6.5 9.42025 7.103 8.90125 8H10C10.1989 8 10.3897 8.07902 10.5303 8.21967C10.671 8.36032 10.75 8.55109 10.75 8.75C10.75 8.94891 10.671 9.13968 10.5303 9.28033C10.3897 9.42098 10.1989 9.5 10 9.5H8.5V11H10C10.1989 11 10.3897 11.079 10.5303 11.2197C10.671 11.3603 10.75 11.5511 10.75 11.75C10.75 11.9489 10.671 12.1397 10.5303 12.2803C10.3897 12.421 10.1989 12.5 10 12.5H8.5V14H10C10.1989 14 10.3897 14.079 10.5303 14.2197C10.671 14.3603 10.75 14.5511 10.75 14.75C10.75 14.9489 10.671 15.1397 10.5303 15.2803C10.3897 15.421 10.1989 15.5 10 15.5H8.90125C9.1645 15.9563 9.54329 16.3351 9.9995 16.5984C10.4557 16.8618 10.9732 17.0003 11.5 17C12.61 17 13.5798 16.397 14.0988 15.5ZM12.9798 18.251C13.0158 18.466 13.0045 18.6862 12.9468 18.8964C12.889 19.1065 12.7861 19.3016 12.6453 19.468C12.5045 19.6343 12.3291 19.768 12.1314 19.8597C11.9337 19.9514 11.7183 19.9989 11.5004 19.9989C11.2824 19.9989 11.0671 19.9514 10.8693 19.8597C10.6716 19.768 10.4962 19.6343 10.3554 19.468C10.2146 19.3016 10.1117 19.1065 10.054 18.8964C9.99624 18.6862 9.98498 18.466 10.021 18.251C9.13856 17.9436 8.37364 17.3692 7.83233 16.6074C7.29101 15.8457 7.00013 14.9345 7 14V9.5C7 8.30653 7.47411 7.16193 8.31802 6.31802C9.16193 5.47411 10.3065 5 11.5 5C12.6935 5 13.8381 5.47411 14.682 6.31802C15.5259 7.16193 16 8.30653 16 9.5V14C15.9999 14.9344 15.7091 15.8456 15.168 16.6073C14.6268 17.369 13.8621 17.9434 12.9798 18.251Z" fill="#111111"/>
</svg>
