<svg width="24" height="24" viewBox="0 0 24 24" fill="none" xmlns="http://www.w3.org/2000/svg">
<path d="M8.55999 6.17732H18.856C19.1594 6.17732 19.4504 6.29785 19.6649 6.51239C19.8795 6.72693 20 7.01791 20 7.32132C20 7.62473 19.8795 7.91571 19.6649 8.13025C19.4504 8.34479 19.1594 8.46532 18.856 8.46532H8.55999C8.25658 8.46532 7.9656 8.34479 7.75106 8.13025C7.53652 7.91571 7.41599 7.62473 7.41599 7.32132C7.41599 7.01791 7.53652 6.72693 7.75106 6.51239C7.9656 6.29785 8.25658 6.17732 8.55999 6.17732ZM8.55999 15.3293H18.856C19.1594 15.3293 19.4504 15.4499 19.6649 15.6644C19.8795 15.8789 20 16.1699 20 16.4733C20 16.7767 19.8795 17.0677 19.6649 17.2823C19.4504 17.4968 19.1594 17.6173 18.856 17.6173H8.55999C8.25658 17.6173 7.9656 17.4968 7.75106 17.2823C7.53652 17.0677 7.41599 16.7767 7.41599 16.4733C7.41599 16.1699 7.53652 15.8789 7.75106 15.6644C7.9656 15.4499 8.25658 15.3293 8.55999 15.3293ZM8.55999 10.7533H18.856C19.1594 10.7533 19.4504 10.8739 19.6649 11.0884C19.8795 11.3029 20 11.5939 20 11.8973C20 12.2007 19.8795 12.4917 19.6649 12.7063C19.4504 12.9208 19.1594 13.0413 18.856 13.0413H8.55999C8.25658 13.0413 7.9656 12.9208 7.75106 12.7063C7.53652 12.4917 7.41599 12.2007 7.41599 11.8973C7.41599 11.5939 7.53652 11.3029 7.75106 11.0884C7.9656 10.8739 8.25658 10.7533 8.55999 10.7533ZM4.48506 6H5.30874L5.25497 8.46532H4.72758L4.78478 6.49764H4.24024L4.48506 6ZM4.5823 11.4283L4.0675 11.3677C4.08008 11.0885 4.17046 10.8654 4.33519 10.7018C4.41926 10.6203 4.51893 10.5566 4.62824 10.5145C4.73754 10.4724 4.85421 10.4529 4.97126 10.457C5.13027 10.457 5.27213 10.4913 5.39454 10.5588C5.51917 10.6277 5.62217 10.7299 5.69198 10.854C5.76316 10.9722 5.80147 11.1073 5.80295 11.2452C5.79795 11.419 5.75293 11.5893 5.67139 11.7429C5.58559 11.9179 5.43 12.1204 5.20578 12.3549L5.02503 12.5494H5.76519V13.0413H4L4.01716 12.7771L4.77906 11.9991C4.95982 11.8161 5.07994 11.6697 5.13714 11.5621C5.18779 11.477 5.21685 11.3808 5.22179 11.2819C5.22319 11.2459 5.2171 11.21 5.2039 11.1766C5.19071 11.1431 5.1707 11.1127 5.14515 11.0874C5.118 11.0614 5.08585 11.0412 5.05064 11.028C5.01544 11.0148 4.97792 11.0089 4.94037 11.0107C4.90097 11.0098 4.86186 11.0177 4.82586 11.0337C4.78986 11.0497 4.75786 11.0735 4.73216 11.1034C4.69326 11.1469 4.64407 11.2544 4.5823 11.4283ZM5.70571 16.4596C5.79723 16.5809 5.84413 16.7227 5.84413 16.8863C5.84562 16.9999 5.82293 17.1125 5.77757 17.2166C5.7322 17.3208 5.6652 17.4141 5.58101 17.4903C5.40117 17.6563 5.16318 17.7446 4.91863 17.7363C4.80454 17.7405 4.69073 17.7222 4.58373 17.6824C4.47674 17.6425 4.37867 17.5819 4.29515 17.5041C4.1327 17.3485 4.04347 17.138 4.0858 16.8142L4.60746 16.8623C4.62462 16.9778 4.66466 17.0613 4.72186 17.114C4.77906 17.1655 4.85342 17.1918 4.9438 17.1918C5.03875 17.1918 5.1154 17.162 5.17603 17.1025C5.20569 17.0748 5.22917 17.041 5.24494 17.0036C5.2607 16.9661 5.26841 16.9258 5.26755 16.8852C5.26745 16.8382 5.25606 16.792 5.23436 16.7504C5.21266 16.7088 5.18128 16.673 5.14286 16.6461C5.05706 16.5774 4.92893 16.5431 4.70127 16.4825L4.7539 16.0237C4.83345 16.0208 4.91195 16.0046 4.98613 15.9757C5.0286 15.9565 5.065 15.926 5.09138 15.8876C5.115 15.8541 5.12778 15.8142 5.12799 15.7732C5.12884 15.7499 5.12468 15.7268 5.1158 15.7053C5.10692 15.6837 5.09352 15.6644 5.07651 15.6485C5.03664 15.6132 4.9844 15.5951 4.93122 15.5982C4.87742 15.5979 4.82508 15.6156 4.7825 15.6485C4.73869 15.6804 4.70655 15.7259 4.69098 15.7778L4.63606 15.8178L4.12813 15.7538C4.14467 15.5772 4.21907 15.4111 4.33977 15.2813C4.41805 15.2001 4.5124 15.1361 4.61679 15.0933C4.72118 15.0506 4.83333 15.03 4.94609 15.033C5.16231 15.033 5.34649 15.1017 5.49407 15.2412C5.56453 15.3038 5.62087 15.3806 5.65933 15.4666C5.6978 15.5526 5.7175 15.6458 5.71715 15.74C5.71789 15.8581 5.68322 15.9736 5.61762 16.0718C5.55355 16.169 5.46203 16.2468 5.33619 16.2091C5.48291 16.2511 5.61238 16.3389 5.70571 16.4596Z" fill="#111111"/>
</svg>
