<svg width="24" height="24" viewBox="0 0 24 24" fill="none" xmlns="http://www.w3.org/2000/svg">
<path d="M14.738 7.972L5.7 17.01L5.109 19.026L7.084 18.455L16.152 9.387L14.738 7.972ZM16.28 6.43L17.694 7.844L19.012 6.526C19.1057 6.43224 19.1584 6.30508 19.1584 6.1725C19.1584 6.03992 19.1057 5.91276 19.012 5.819L18.304 5.112C18.2102 5.01827 18.0831 4.96561 17.9505 4.96561C17.8179 4.96561 17.6908 5.01827 17.597 5.112L16.281 6.43H16.28ZM19.719 3.698L20.426 4.405C20.8947 4.87382 21.158 5.50959 21.158 6.1725C21.158 6.83541 20.8947 7.47118 20.426 7.94L8.134 20.233L3.914 21.453C3.74199 21.5026 3.55982 21.5051 3.38651 21.4603C3.2132 21.4154 3.0551 21.3249 2.92872 21.1981C2.80233 21.0713 2.71231 20.9129 2.66803 20.7395C2.62375 20.566 2.62685 20.3839 2.677 20.212L3.925 15.957L16.185 3.697C16.6538 3.22832 17.2896 2.96503 17.9525 2.96503C18.6154 2.96503 19.2512 3.22832 19.72 3.697L19.719 3.698Z" fill="#111111"/>
</svg>
