<svg width="24" height="24" viewBox="0 0 24 24" fill="none" xmlns="http://www.w3.org/2000/svg">
<path d="M10.374 14.768L4.718 20.425C4.62509 20.5179 4.51479 20.5916 4.3934 20.6419C4.27201 20.6922 4.1419 20.7181 4.0105 20.7181C3.87911 20.7181 3.749 20.6922 3.62761 20.6419C3.50622 20.5916 3.39592 20.5179 3.303 20.425C3.21009 20.3321 3.13639 20.2218 3.08611 20.1004C3.03583 19.979 3.00995 19.8489 3.00995 19.7175C3.00995 19.5861 3.03583 19.456 3.08611 19.3346C3.13639 19.2132 3.21009 19.1029 3.303 19.01L8.96 13.354L4.718 9.11C5.51546 8.31185 6.49422 7.71853 7.57073 7.38071C8.64723 7.04289 9.7895 6.97059 10.9 7.17L14.617 3.454C14.9921 3.07906 15.5007 2.86843 16.031 2.86843C16.5613 2.86843 17.0699 3.07906 17.445 3.454L20.274 6.282C20.4598 6.46773 20.6072 6.68824 20.7078 6.93095C20.8083 7.17365 20.8601 7.43379 20.8601 7.6965C20.8601 7.95921 20.8083 8.21935 20.7078 8.46205C20.6072 8.70476 20.4598 8.92527 20.274 9.111L16.558 12.827C16.7575 13.9377 16.6851 15.0803 16.3471 16.157C16.0091 17.2336 15.4155 18.2125 14.617 19.01L10.374 14.768Z" fill="#111111"/>
</svg>
