<svg width="24" height="24" viewBox="0 0 24 24" fill="none" xmlns="http://www.w3.org/2000/svg">
<path d="M6.25798 8.884L11.97 18.977L17.588 9.147C16.258 9.042 14.876 8.694 13.346 8.155C12.951 8.015 12.748 7.984 12.566 8.007C12.412 8.027 10.843 8.576 9.92298 8.809C8.76198 9.103 7.53898 9.126 6.25798 8.884ZM4.84798 6.394C6.54998 7.064 8.07198 7.214 9.43198 6.87C10.17 6.683 11.91 6.074 12.315 6.023C12.844 5.956 13.345 6.033 14.011 6.268C15.785 6.894 17.307 7.224 18.714 7.177L19.601 5.625C17.2 4.54818 14.5974 3.99427 11.966 4C9.35889 3.99449 6.77988 4.5383 4.39698 5.596L4.84798 6.394ZM2.54198 4.268C5.45695 2.76982 8.68855 1.9921 11.966 2C15.328 2 18.572 2.8 21.462 4.306C21.5813 4.3682 21.6869 4.45386 21.7723 4.55783C21.8578 4.66181 21.9214 4.78196 21.9593 4.9111C21.9972 5.04023 22.0087 5.17569 21.993 5.30936C21.9773 5.44303 21.9348 5.57215 21.868 5.689L12.834 21.496C12.7463 21.6492 12.6196 21.7765 12.4667 21.8649C12.3139 21.9533 12.1404 21.9996 11.9638 21.9992C11.7873 21.9988 11.614 21.9516 11.4615 21.8626C11.3091 21.7735 11.183 21.6456 11.096 21.492L2.12998 5.65C2.0639 5.53292 2.02211 5.40371 2.0071 5.27011C1.9921 5.13651 2.00419 5.00125 2.04265 4.87242C2.08111 4.7436 2.14515 4.62385 2.23094 4.52035C2.31674 4.41684 2.42252 4.33169 2.54198 4.27V4.268ZM9.99998 12C9.73476 12 9.48041 11.8946 9.29287 11.7071C9.10533 11.5196 8.99998 11.2652 8.99998 11C8.99998 10.7348 9.10533 10.4804 9.29287 10.2929C9.48041 10.1054 9.73476 10 9.99998 10C10.2652 10 10.5195 10.1054 10.7071 10.2929C10.8946 10.4804 11 10.7348 11 11C11 11.2652 10.8946 11.5196 10.7071 11.7071C10.5195 11.8946 10.2652 12 9.99998 12ZM13 15C12.7348 15 12.4804 14.8946 12.2929 14.7071C12.1053 14.5196 12 14.2652 12 14C12 13.7348 12.1053 13.4804 12.2929 13.2929C12.4804 13.1054 12.7348 13 13 13C13.2652 13 13.5195 13.1054 13.7071 13.2929C13.8946 13.4804 14 13.7348 14 14C14 14.2652 13.8946 14.5196 13.7071 14.7071C13.5195 14.8946 13.2652 15 13 15Z" fill="#111111"/>
</svg>
