<svg width="24" height="24" viewBox="0 0 24 24" fill="none" xmlns="http://www.w3.org/2000/svg">
<path d="M9.85537 10.5522H6.52684C6.3944 10.1494 6.32716 9.72809 6.32769 9.30412V8.64426C6.32769 7.41253 6.817 6.23124 7.68796 5.36027C8.11922 4.92901 8.6312 4.58692 9.19467 4.35352C9.75814 4.12013 10.3621 4 10.972 4H12.9661C14.0225 4 15.0356 4.41964 15.7826 5.16661C16.5296 5.91359 16.9492 6.9267 16.9492 7.98307C16.9492 8.3352 16.8093 8.6729 16.5603 8.92189C16.3114 9.17088 15.9737 9.31076 15.6215 9.31076C15.2694 9.31076 14.9317 9.17088 14.6827 8.92189C14.4337 8.6729 14.2938 8.3352 14.2938 7.98307C14.2938 7.63095 14.154 7.29324 13.905 7.04425C13.656 6.79526 13.3183 6.65538 12.9661 6.65538H10.972C9.87263 6.65538 8.98307 7.54493 8.98307 8.64426V9.30412C8.98289 9.57651 9.06649 9.84235 9.22253 10.0656C9.37857 10.2889 9.59951 10.4587 9.85537 10.5522ZM16.7408 13.3403C16.8762 13.7399 16.9492 14.1688 16.9492 14.6149V15.3159C16.9492 16.5582 16.4557 17.7496 15.5773 18.6281C14.6988 19.5065 13.5074 20 12.2651 20H10.3108C9.25439 20 8.24128 19.5804 7.49431 18.8334C6.74733 18.0864 6.32769 17.0733 6.32769 16.0169V15.9492C6.32769 15.5971 6.46757 15.2594 6.71656 15.0104C6.96555 14.7614 7.30326 14.6215 7.65538 14.6215C8.00751 14.6215 8.34521 14.7614 8.5942 15.0104C8.84319 15.2594 8.98307 15.5971 8.98307 15.9492V16.0156C8.98307 16.3677 9.12295 16.7054 9.37194 16.9544C9.62093 17.2034 9.95864 17.3433 10.3108 17.3433H12.2651C13.3857 17.3433 14.2938 16.4365 14.2938 15.3159V14.6149C14.2938 14.3276 14.2007 14.0481 14.0283 13.8183C13.8559 13.5885 13.6137 13.4207 13.3379 13.3403H16.7408ZM5.66385 11.3156H17.6131C17.7891 11.3156 17.958 11.3855 18.0825 11.51C18.207 11.6345 18.2769 11.8034 18.2769 11.9794C18.2769 12.1555 18.207 12.3243 18.0825 12.4488C17.958 12.5733 17.7891 12.6433 17.6131 12.6433H5.66385C5.48778 12.6433 5.31893 12.5733 5.19444 12.4488C5.06994 12.3243 5 12.1555 5 11.9794C5 11.8034 5.06994 11.6345 5.19444 11.51C5.31893 11.3855 5.48778 11.3156 5.66385 11.3156Z" fill="#111111"/>
</svg>
