<svg width="24" height="24" viewBox="0 0 24 24" fill="none" xmlns="http://www.w3.org/2000/svg">
<path d="M18.514 2.37199L21.962 5.81899C22.2317 6.08885 22.4187 6.43024 22.5007 6.80286C22.5827 7.17549 22.5565 7.56381 22.425 7.92199L20.662 12.734C20.612 12.8704 20.5328 12.9943 20.43 13.097L12.107 21.42C11.9213 21.6058 11.7008 21.7532 11.4581 21.8537C11.2154 21.9543 10.9552 22.0061 10.6925 22.0061C10.4298 22.0061 10.1697 21.9543 9.92695 21.8537C9.68424 21.7532 9.46373 21.6058 9.278 21.42L2.914 15.056C2.53906 14.6809 2.32843 14.1723 2.32843 13.642C2.32843 13.1117 2.53906 12.603 2.914 12.228L11.247 3.89499C11.35 3.79208 11.4742 3.71291 11.611 3.66299L16.413 1.90799C16.771 1.77707 17.159 1.75118 17.5312 1.83339C17.9034 1.9156 18.2444 2.10247 18.514 2.37199ZM12.505 5.46599L4.328 13.642L10.692 20.006L18.86 11.839L20.547 7.23399L17.1 3.78599L12.505 5.46599ZM15.289 9.04599C15.1433 8.90826 15.0267 8.74271 14.9461 8.55913C14.8655 8.37556 14.8225 8.17769 14.8197 7.97722C14.8168 7.77674 14.8542 7.57774 14.9296 7.39196C15.005 7.20618 15.1169 7.0374 15.2586 6.8956C15.4003 6.75379 15.5691 6.64184 15.7548 6.56636C15.9405 6.49088 16.1395 6.45341 16.34 6.45615C16.5405 6.45889 16.7384 6.50179 16.922 6.58232C17.1056 6.66285 17.2712 6.77937 17.409 6.92499C17.674 7.20934 17.8182 7.58544 17.8114 7.97404C17.8045 8.36264 17.6471 8.73341 17.3722 9.00824C17.0974 9.28306 16.7267 9.44049 16.338 9.44734C15.9494 9.4542 15.5734 9.31095 15.289 9.04599Z" fill="#111111"/>
</svg>
