<svg width="24" height="24" viewBox="0 0 24 24" fill="none" xmlns="http://www.w3.org/2000/svg">
<path d="M12.4907 15.5054H7.00825L6.29276 17.4643C6.00626 18.2503 5.05378 18.6823 4.1673 18.4273C3.28231 18.1723 2.79482 17.3263 3.08282 16.5403L6.53876 7.07251C7.11475 5.50054 9.01671 4.63656 10.7897 5.14655C11.8202 5.44354 12.6271 6.16053 12.9601 7.07251L16.4176 16.5403C16.7041 17.3263 16.2181 18.1723 15.3316 18.4273C14.4466 18.6823 13.4941 18.2503 13.2061 17.4643L12.4907 15.5054ZM11.3972 12.5084L9.7502 7.9965L8.10023 12.5084H11.3972ZM18.0001 11.0204C17.2044 11.0204 16.4414 10.7044 15.8788 10.1418C15.3162 9.57918 15.0001 8.81613 15.0001 8.0205C15.0001 7.22486 15.3162 6.46181 15.8788 5.89921C16.4414 5.33661 17.2044 5.02055 18.0001 5.02055C18.7957 5.02055 19.5587 5.33661 20.1213 5.89921C20.6839 6.46181 21 7.22486 21 8.0205C21 8.81613 20.6839 9.57918 20.1213 10.1418C19.5587 10.7044 18.7957 11.0204 18.0001 11.0204Z" fill="#111111"/>
</svg>
