<svg width="24" height="24" viewBox="0 0 24 24" fill="none" xmlns="http://www.w3.org/2000/svg">
<path d="M7.18182 18.5455H17.3636C17.5565 18.5455 17.7415 18.6221 17.8779 18.7585C18.0143 18.8949 18.0909 19.0798 18.0909 19.2727C18.0909 19.4656 18.0143 19.6506 17.8779 19.787C17.7415 19.9234 17.5565 20 17.3636 20H7.18182C6.98893 20 6.80395 19.9234 6.66756 19.787C6.53117 19.6506 6.45455 19.4656 6.45455 19.2727C6.45455 19.0798 6.53117 18.8949 6.66756 18.7585C6.80395 18.6221 6.98893 18.5455 7.18182 18.5455ZM15.1818 6.90909C14.796 6.90909 14.4261 6.75584 14.1533 6.48306C13.8805 6.21028 13.7273 5.84031 13.7273 5.45455C13.7273 5.06878 13.8805 4.69881 14.1533 4.42603C14.4261 4.15325 14.796 4 15.1818 4H18.0909C18.4767 4 18.8466 4.15325 19.1194 4.42603C19.3922 4.69881 19.5455 5.06878 19.5455 5.45455C19.5455 5.84031 19.3922 6.21028 19.1194 6.48306C18.8466 6.75584 18.4767 6.90909 18.0909 6.90909V11.2727C18.0909 12.8158 17.4779 14.2957 16.3868 15.3868C15.2957 16.4779 13.8158 17.0909 12.2727 17.0909C10.7296 17.0909 9.24977 16.4779 8.15865 15.3868C7.06753 14.2957 6.45455 12.8158 6.45455 11.2727V6.90909C6.06878 6.90909 5.69881 6.75584 5.42603 6.48306C5.15325 6.21028 5 5.84031 5 5.45455C5 5.06878 5.15325 4.69881 5.42603 4.42603C5.69881 4.15325 6.06878 4 6.45455 4H9.36364C9.74941 4 10.1194 4.15325 10.3922 4.42603C10.6649 4.69881 10.8182 5.06878 10.8182 5.45455C10.8182 5.84031 10.6649 6.21028 10.3922 6.48306C10.1194 6.75584 9.74941 6.90909 9.36364 6.90909V11.2727C9.36364 12.0443 9.67013 12.7842 10.2157 13.3298C10.7612 13.8753 11.5012 14.1818 12.2727 14.1818C13.0443 14.1818 13.7842 13.8753 14.3298 13.3298C14.8753 12.7842 15.1818 12.0443 15.1818 11.2727V6.90909Z" fill="#111111"/>
</svg>
