<svg width="24" height="24" viewBox="0 0 24 24" fill="none" xmlns="http://www.w3.org/2000/svg">
<path d="M8.57143 6H18.8571C19.1602 6 19.4509 6.12041 19.6653 6.33474C19.8796 6.54906 20 6.83975 20 7.14286C20 7.44596 19.8796 7.73665 19.6653 7.95098C19.4509 8.16531 19.1602 8.28571 18.8571 8.28571H8.57143C8.26832 8.28571 7.97763 8.16531 7.76331 7.95098C7.54898 7.73665 7.42857 7.44596 7.42857 7.14286C7.42857 6.83975 7.54898 6.54906 7.76331 6.33474C7.97763 6.12041 8.26832 6 8.57143 6ZM8.57143 15.1429H18.8571C19.1602 15.1429 19.4509 15.2633 19.6653 15.4776C19.8796 15.6919 20 15.9826 20 16.2857C20 16.5888 19.8796 16.8795 19.6653 17.0938C19.4509 17.3082 19.1602 17.4286 18.8571 17.4286H8.57143C8.26832 17.4286 7.97763 17.3082 7.76331 17.0938C7.54898 16.8795 7.42857 16.5888 7.42857 16.2857C7.42857 15.9826 7.54898 15.6919 7.76331 15.4776C7.97763 15.2633 8.26832 15.1429 8.57143 15.1429ZM8.57143 10.5714H18.8571C19.1602 10.5714 19.4509 10.6918 19.6653 10.9062C19.8796 11.1205 20 11.4112 20 11.7143C20 12.0174 19.8796 12.3081 19.6653 12.5224C19.4509 12.7367 19.1602 12.8571 18.8571 12.8571H8.57143C8.26832 12.8571 7.97763 12.7367 7.76331 12.5224C7.54898 12.3081 7.42857 12.0174 7.42857 11.7143C7.42857 11.4112 7.54898 11.1205 7.76331 10.9062C7.97763 10.6918 8.26832 10.5714 8.57143 10.5714ZM5.14286 6C5.44596 6 5.73665 6.12041 5.95098 6.33474C6.16531 6.54906 6.28571 6.83975 6.28571 7.14286C6.28571 7.44596 6.16531 7.73665 5.95098 7.95098C5.73665 8.16531 5.44596 8.28571 5.14286 8.28571C4.83975 8.28571 4.54906 8.16531 4.33474 7.95098C4.12041 7.73665 4 7.44596 4 7.14286C4 6.83975 4.12041 6.54906 4.33474 6.33474C4.54906 6.12041 4.83975 6 5.14286 6ZM5.14286 15.1429C5.44596 15.1429 5.73665 15.2633 5.95098 15.4776C6.16531 15.6919 6.28571 15.9826 6.28571 16.2857C6.28571 16.5888 6.16531 16.8795 5.95098 17.0938C5.73665 17.3082 5.44596 17.4286 5.14286 17.4286C4.83975 17.4286 4.54906 17.3082 4.33474 17.0938C4.12041 16.8795 4 16.5888 4 16.2857C4 15.9826 4.12041 15.6919 4.33474 15.4776C4.54906 15.2633 4.83975 15.1429 5.14286 15.1429ZM5.14286 10.5714C5.44596 10.5714 5.73665 10.6918 5.95098 10.9062C6.16531 11.1205 6.28571 11.4112 6.28571 11.7143C6.28571 12.0174 6.16531 12.3081 5.95098 12.5224C5.73665 12.7367 5.44596 12.8571 5.14286 12.8571C4.83975 12.8571 4.54906 12.7367 4.33474 12.5224C4.12041 12.3081 4 12.0174 4 11.7143C4 11.4112 4.12041 11.1205 4.33474 10.9062C4.54906 10.6918 4.83975 10.5714 5.14286 10.5714Z" fill="#111111"/>
</svg>
