<svg width="24" height="24" viewBox="0 0 24 24" fill="none" xmlns="http://www.w3.org/2000/svg">
<path d="M15.1259 13.846L14.9419 12.81L19.4319 8.319L16.5809 5.467L12.0889 9.957L11.0539 9.773C10.1353 9.6083 9.18891 9.70141 8.31994 10.042L14.8579 16.579C15.198 15.7102 15.2908 14.7643 15.1259 13.846ZM10.8759 15.45L5.16994 21.154C4.98084 21.3431 4.72437 21.4493 4.45694 21.4493C4.18952 21.4493 3.93304 21.3431 3.74394 21.154C3.55484 20.9649 3.44861 20.7084 3.44861 20.441C3.44861 20.1736 3.55484 19.9171 3.74394 19.728L9.44894 14.024L5.16994 9.745C5.97416 8.93954 6.96142 8.34075 8.04736 7.99978C9.13331 7.65881 10.2857 7.58581 11.4059 7.787L15.1529 4.04C15.3402 3.85262 15.5626 3.70399 15.8074 3.60258C16.0522 3.50116 16.3145 3.44897 16.5794 3.44897C16.8444 3.44897 17.1067 3.50116 17.3515 3.60258C17.5963 3.70399 17.8186 3.85262 18.0059 4.04L20.8579 6.893C21.2361 7.27124 21.4485 7.78417 21.4485 8.319C21.4485 8.85383 21.2361 9.36676 20.8579 9.745L17.1109 13.492C17.3121 14.6123 17.2391 15.7646 16.8982 16.8506C16.5572 17.9365 15.9584 18.9238 15.1529 19.728L10.8759 15.45Z" fill="#111111"/>
</svg>
