<svg width="360" height="200" viewBox="0 0 360 200" fill="none" xmlns="http://www.w3.org/2000/svg">
<g clip-path="url(#clip0_22_18)">
<path d="M269.188 184.913C267.835 186.752 266.609 187.734 264.377 188.456C260.301 189.775 255.913 189.474 251.698 189.817C246.813 190.214 242.084 190.762 237.164 190.556C232.433 190.357 227.699 190.369 222.965 190.401C203.346 190.529 183.628 191.235 164.211 187.827C164.17 187.819 164.129 187.813 164.088 187.805C165.781 186.986 167.404 185.954 168.983 185.084C170.8 184.084 172.443 183.565 174.108 182.269C175.617 181.095 177.045 179.836 178.207 178.309C179.398 176.743 180.483 175.034 181.479 173.341C182.668 171.318 184.223 169.705 185.559 167.801C185.651 167.669 185.747 167.542 185.843 167.414C186.796 167.176 187.714 166.808 188.396 166.102C188.451 166.044 188.495 165.977 188.547 165.914C188.623 165.902 188.699 165.891 188.775 165.877C192.442 165.188 196.045 164.186 199.59 163.03C203.04 161.907 206.439 160.633 209.834 159.352C213.269 158.055 216.924 156.182 220.59 155.755C222.303 155.555 223.9 155.414 225.519 154.752C226.86 154.204 228.069 153.421 229.257 152.601C232.263 150.525 235.437 148.977 239.015 148.128C241.116 147.629 243.148 147.459 245.112 147.562C245.432 147.753 245.748 147.947 246.052 148.153C247.569 149.191 249.008 150.337 250.32 151.624C253.202 154.45 255.493 158.018 257.829 161.299C260.047 164.418 262.194 167.587 264.321 170.769C265.421 172.415 266.64 174.039 267.586 175.779C268.287 177.072 268.859 178.425 269.547 179.724C269.587 180.863 270.34 181.604 271.308 182.041C271.292 182.065 271.275 182.09 271.261 182.114C270.498 182.986 269.873 183.984 269.188 184.913ZM150.966 188.216C146.87 188.762 142.831 189.678 138.832 190.706C130.564 192.833 122.413 195.516 113.969 196.885C105.358 198.282 96.4791 197.701 87.8008 197.334C77.9277 196.916 68.0713 196.178 58.2286 195.299C53.1304 194.843 48.0351 194.349 42.9418 193.843C40.475 193.597 38.0102 193.349 35.5443 193.099C33.4461 192.886 30.2746 193.121 28.7526 191.402C25.7311 187.159 24.2542 182.119 22.3411 177.33C20.3408 172.323 18.3807 167.314 16.5715 162.233C13.6333 153.987 10.4785 145.857 7.3208 137.695C5.43322 132.814 3.52114 127.942 1.54143 123.096C1.50125 122.998 1.44638 122.919 1.38267 122.854C1.39345 122.78 1.39541 122.701 1.38071 122.616C1.09944 121.022 3.86024 121.227 4.85499 121.237C7.33943 121.265 9.82482 121.247 12.3093 121.215C17.9495 121.142 23.5877 120.954 29.223 120.72C40.3741 120.257 51.5173 119.612 62.6762 119.36C65.7957 119.289 68.9171 119.249 72.0386 119.249C73.6537 119.248 75.2708 119.248 76.8869 119.28C77.9248 119.301 79.0998 119.314 79.3243 120.58C79.3576 120.772 79.4517 120.901 79.5713 120.98C80.8061 124.574 81.7205 128.26 82.7447 131.918C83.8874 136.003 85.3105 140.003 86.71 144.007C88.0821 147.931 89.4502 151.856 90.8086 155.785C91.425 157.569 92.0719 159.342 92.6824 161.128C93.3704 163.141 93.7771 165.225 94.3975 167.257C94.9268 168.99 95.5922 170.678 96.2949 172.347C96.5967 173.065 96.9417 173.746 97.2965 174.437C97.8787 175.569 98.0825 176.807 98.4471 178.021C99.5692 181.753 100.938 185.417 101.985 189.161C102.553 191.192 103.509 193.492 105.682 194.211C108.275 195.068 111.515 193.956 114.089 193.546C123.09 192.108 132.191 191.039 140.903 188.238C141.46 188.058 141.487 187.416 141.197 187.082C141.169 187.027 141.136 186.974 141.091 186.923C140.066 185.752 138.148 185.162 136.707 184.92C135.33 184.69 133.976 184.145 132.582 183.885C130.357 183.471 128.219 182.735 126.017 182.207C124.479 181.84 122.936 181.498 121.392 181.157C121.863 180.818 122.285 180.409 122.616 179.973C123.859 178.337 124.169 176.641 126.376 175.944C128.206 175.367 130.47 175.66 132.177 176.527C133.682 177.291 134.879 178.551 135.927 179.848C137.167 181.385 138.105 183.403 139.704 184.594C140.878 185.469 142.194 185.904 143.633 186.065C146.292 186.363 148.937 186.838 151.586 187.217C153.335 187.468 155.079 187.74 156.822 188.017C154.868 188.048 152.9 187.958 150.966 188.216ZM99.4663 176.1C99.4222 176.12 99.3801 176.142 99.3399 176.169C99.3223 176.113 99.3047 176.057 99.287 176.001C99.3458 176.037 99.4056 176.068 99.4663 176.1ZM115.75 176.27C116 172.383 118.132 166.607 123.096 167.821C123.482 167.915 123.937 168.307 124.365 168.47C123.675 168.575 123.005 168.803 122.376 169.098C120.979 169.756 119.813 170.796 118.883 172.019C117.446 173.908 115.629 177.534 116.413 180.025C116.187 179.971 115.96 179.919 115.733 179.863C115.702 178.652 115.674 177.446 115.75 176.27ZM100.33 176.423C100.368 176.432 100.401 176.445 100.439 176.452C100.385 176.469 100.354 176.493 100.361 176.528C100.354 176.489 100.342 176.456 100.33 176.423ZM102.052 177.825C103.158 177.976 104.253 178.359 105.354 178.572C105.636 178.627 105.915 178.694 106.194 178.755C106.39 181.706 107.715 185.145 109.666 187.293C111.307 189.102 114.729 189.014 115.36 186.37C115.755 184.719 115.795 182.997 115.766 181.27C116.359 181.412 116.952 181.552 117.547 181.688C118.038 182.02 118.611 182.125 119.2 182.063C121.037 182.476 122.879 182.879 124.713 183.311C126.826 183.808 128.889 184.531 131.002 185C131.986 185.218 132.985 185.334 133.962 185.59C134.702 185.782 135.446 186.148 136.2 186.261C137.229 186.414 138.442 186.663 139.381 187.271C132.448 189.375 125.272 190.456 118.121 191.54C116.341 191.81 114.562 192.081 112.785 192.371C111.068 192.651 109.291 193.12 107.542 193.102C104.163 193.065 103.703 189.815 102.892 187.19C101.913 184.024 100.724 180.916 99.7888 177.728C100.544 177.862 101.283 177.719 102.052 177.825ZM114.329 181.196C114.33 182.919 114.871 187.315 112.291 187.168C110.082 187.043 108.8 183.318 108.169 181.593C107.875 180.785 107.686 179.941 107.599 179.087C108.862 179.408 110.115 179.769 111.375 180.129C112.355 180.409 113.34 180.668 114.327 180.917C114.328 181.01 114.329 181.103 114.329 181.196ZM108.982 169.636C109.04 169.65 109.097 169.656 109.152 169.654C108.767 170.892 107.498 172.61 107.249 173.137C106.63 174.451 106.275 175.887 106.191 177.339C106.132 177.328 106.075 177.314 106.015 177.303C105.853 177.271 103.359 176.737 101.738 176.518C101.972 176.499 102.211 176.468 102.459 176.414C104.119 176.053 104.833 175.019 105.748 173.699C106.735 172.273 107.74 170.841 108.982 169.636ZM100.784 167.811C102.799 164.685 105.206 161.837 107.595 158.993C108.19 158.282 108.84 157.221 109.676 156.76C110.501 156.303 111.62 156.316 112.528 156.232C114.599 156.036 116.683 156.021 118.76 156.116C122.739 156.301 126.68 156.898 130.621 157.442C131.764 157.935 133.003 158.266 134.158 158.626C136.221 159.27 138.256 160.001 140.312 160.658C141.639 161.082 143.025 161.358 144.415 161.555C145.055 161.806 145.702 162.042 146.371 162.239C147.284 162.509 148.209 162.734 149.144 162.917C149.975 163.08 151.002 163.052 151.743 163.496C152.891 164.183 153.871 165.452 154.952 166.278C156.195 167.226 157.516 168.072 158.946 168.711C164.436 171.165 170.536 169.083 176.302 168.081C177.17 168.135 178.038 168.169 178.907 168.169C180.51 168.168 182.108 168.054 183.691 167.81C182.054 170.037 180.535 172.324 179.016 174.659C177.96 176.283 176.942 177.887 175.544 179.245C173.796 180.937 172.026 182.205 169.795 183.105C167.02 184.226 164.498 186.447 161.636 187.392C157.649 186.732 153.655 186.147 149.654 185.559C147.408 185.23 144.999 185.067 142.794 184.559C140.183 183.958 139.1 181.766 137.616 179.798C135.646 177.187 133.37 175.001 130.037 174.443C127.21 173.969 124.053 174.68 122.527 177.323C121.899 178.411 121.486 179.612 120.343 180.318C119.966 180.551 119.609 180.667 119.288 180.689C119.013 180.628 118.739 180.565 118.463 180.502C117.931 180.186 117.621 179.505 117.673 178.663C117.793 176.719 118.682 174.647 119.799 173.08C120.908 171.527 122.484 170.256 124.383 169.858C125.12 169.704 126.181 169.757 126.266 168.757C126.364 167.605 124.828 166.912 123.961 166.635C122.373 166.128 120.55 166.159 119.058 166.948C116.246 168.434 114.897 171.872 114.51 174.846C114.31 176.392 114.305 177.95 114.317 179.506C113.659 179.337 113.003 179.162 112.348 178.978C110.752 178.526 109.169 178.033 107.559 177.641C107.596 176.63 107.77 175.623 108.102 174.665C108.733 172.839 110.296 171.329 110.671 169.401C110.743 169.03 110.712 168.577 110.573 168.174C110.691 167.851 110.471 167.457 110.159 167.314C110.149 167.31 110.138 167.305 110.127 167.301C110.127 167.301 110.127 167.3 110.126 167.3C110.034 167.26 109.933 167.243 109.831 167.258C109.674 167.18 109.493 167.136 109.29 167.136C108.747 167.136 108.34 167.581 108.192 168.096C108.089 168.214 108.014 168.349 107.982 168.508C107.967 168.577 107.964 168.651 107.966 168.728C107.385 169.294 106.844 169.902 106.332 170.555C105.372 171.78 104.484 173.849 103.152 174.69C101.536 175.713 99.2321 175.13 98.8891 173.154C98.5324 171.096 99.7182 169.464 100.784 167.811ZM158.494 128.034C158.956 133.407 159.852 138.742 160.663 144.069C161.07 146.744 161.452 149.763 160.411 152.357C160.031 153.303 158.866 155.193 157.644 155.159C156.106 155.115 155.245 152.535 154.966 151.326C154.15 147.781 154.681 143.515 155.224 139.96C155.748 136.526 156.71 133.192 157.823 129.907C158.035 129.277 158.263 128.653 158.494 128.034ZM128.728 154.524C125.907 151.606 125.996 146.629 126.373 142.854C126.776 138.805 127.966 134.852 129.158 130.977C131.48 123.434 134.368 116.084 137.149 108.702C139.702 101.923 142.061 95.0552 145.096 88.4692C148.247 81.6285 152.224 74.4055 157.932 69.3484C159.812 67.6824 162.525 66.8591 164.838 65.9477C166.971 65.1146 169.12 64.3208 171.231 63.4289C173.174 62.6057 175.075 61.4198 177.167 61.0376C178.611 60.773 180.021 60.8416 180.924 62.1157C181.62 63.0957 181.896 64.311 181.947 65.4969C181.958 65.8007 182.132 65.9967 182.35 66.0849C182.835 67.8686 183.322 69.6424 183.807 71.4163C184.178 72.7786 184.55 74.1409 184.913 75.5032C185.04 75.9736 185.169 76.444 185.289 76.9242C185.37 77.2477 185.352 77.8455 185.465 77.3359C185.413 77.5711 185.476 77.7672 185.595 77.9142C185.366 78.0808 185.105 78.2082 184.805 78.2866C183.961 78.5316 183.074 78.3355 182.247 78.5217C181.46 78.6981 181.183 79.2077 180.936 79.9428C180.448 81.3933 179.67 82.3146 178.405 83.2162C176.077 84.8725 173.441 86.3818 170.8 87.401C168.165 88.4105 166.995 91.5467 165.717 93.8812C164.192 96.6675 162.836 99.5448 161.681 102.505C159.085 109.164 158.01 116.023 158.209 123.163C158.225 123.744 158.25 124.325 158.279 124.905C157.557 126.609 156.892 128.344 156.302 130.126C155.129 133.659 154.187 137.237 153.71 140.933C153.281 144.269 152.859 148.146 153.591 151.461C153.978 153.214 155.267 156.538 157.487 156.625C159.501 156.704 161.237 154.132 161.804 152.532C162.604 150.272 162.556 147.687 162.234 145.343C161.677 141.273 160.953 137.227 160.43 133.151C160.087 130.481 159.815 127.791 159.673 125.097C161.734 120.293 164.279 115.758 166.908 111.186C168.795 107.901 170.858 104.82 173.511 102.099C174.006 101.592 174.134 101.246 174.47 100.662C174.971 99.7947 175.721 99.1254 176.46 98.4639C177.864 97.2074 179.394 96.1088 180.993 95.117C181.177 95.0033 181.364 94.8955 181.55 94.7838C181.077 95.7903 180.658 96.7889 180.379 97.9091C179.854 100.017 179.391 102.142 178.902 104.258C177.991 108.197 177.058 112.132 175.918 116.012C173.643 123.753 171.006 131.382 168.824 139.154C167.724 143.068 166.709 147.007 165.825 150.976C165.093 154.257 164.109 157.742 164.321 161.145C163.583 161.11 162.855 160.849 162.19 160.329C160.986 159.387 160.414 157.732 159.035 157.055C157.89 156.494 157.322 157.021 156.336 157.687C154.911 158.651 153.525 159.779 151.871 160.327C150.09 160.917 147.819 160.572 145.982 160.373C145.524 160.323 145.071 160.26 144.621 160.191C141.666 159.066 138.842 157.6 135.739 156.851C134.109 156.458 132.426 156.176 130.731 155.947C129.999 155.583 129.317 155.132 128.728 154.524ZM218.281 77.0222C219.278 74.0233 220.931 69.809 221.961 70.7303C222.157 70.9067 220.266 74.0135 220.061 74.3565C219.514 75.2777 218.922 76.1696 218.281 77.0222ZM178.729 46.3956C177.8 43.8279 177.691 41.4463 178.029 38.7806C178.236 37.1439 178.39 35.5562 178.483 33.9489C178.75 32.8023 179.661 30.2933 180.452 30.1757C180.989 30.0973 182.018 31.2146 182.323 31.6067C182.885 32.3417 182.819 33.1747 183.234 33.9489C183.898 35.1936 185.465 35.1348 186.697 35.125C188.819 35.125 190.54 34.635 192.341 33.5178C195.974 31.2538 199.496 28.5097 203.839 27.8335C205.641 27.5493 207.803 27.608 209.251 28.8723C210.948 30.3522 210.674 33.2433 211.603 35.223C212.528 37.1929 213.895 38.7316 215.444 40.2409C216.832 41.5836 218.131 43.0537 219.577 44.3474C221.536 46.082 224.442 47.6893 226.588 45.3176C227.878 43.8867 228.522 42.1226 230.245 41.0543C231.456 40.2997 232.788 40.2409 233.68 41.5247C234.546 42.789 233.949 44.3081 233.749 45.6802C233.433 47.8559 233.273 50.0709 232.846 52.2368C232.653 53.2168 232.441 54.3047 231.966 55.2063C231.178 56.6862 230.533 56.0295 229.326 56.3138C228.091 56.6176 227.201 58.0386 227.436 59.2833C227.682 60.5868 229.049 61.3512 230.144 61.8707C232.093 62.7821 234.283 63.7524 236.098 65.1048C236.508 66.3299 237.24 67.4472 238.363 68.1234C238.592 68.2606 238.827 68.3586 239.065 68.4468C239.296 68.9074 239.488 69.3877 239.632 69.9071C239.555 69.9855 239.481 70.0639 239.405 70.1325C238.063 71.4458 236.701 72.7395 235.329 74.0233C232.59 76.5813 229.679 78.855 226.836 81.2953C225.532 82.4028 224.275 83.5691 223.048 84.7745C222.249 85.5488 221.064 86.2935 221.203 87.5382C221.327 88.6457 222.303 89.5473 223.008 90.3294C224.19 91.6447 225.485 92.8521 226.764 94.0693C227.345 94.6221 227.926 95.1748 228.494 95.7403C229.01 96.2529 230.179 97.1673 230.389 97.8906C231.064 100.208 229.061 99.0979 228.354 98.6412C227.5 98.0885 226.763 97.3887 226.053 96.6674C223.922 94.5035 222.033 92.564 219.181 91.3487C218.147 90.9097 217.047 90.5774 215.938 90.4284C216.002 90.3324 216.048 90.2167 216.055 90.0766C216.251 86.6954 216.632 83.3338 217.392 80.031C220.402 76.5322 225.429 69.8189 222.447 69.1427C221.288 68.8781 219.813 70.1325 219.187 70.9949C218.043 72.5826 217.423 74.8564 216.854 76.6989C216.56 77.6593 216.308 78.6198 216.084 79.59C214.772 80.9425 213.324 82.1577 211.747 83.1966C209.994 84.353 207.881 85.5781 205.918 86.0584C205.394 86.1858 204.94 86.3132 204.433 86.519C202.878 87.1462 201.384 87.4402 199.774 87.1462C199.184 86.9012 198.589 86.6464 197.979 86.519C197.837 86.4896 197.691 86.47 197.545 86.4504C193.559 84.7549 190.282 81.1091 187.545 77.7965C188.38 76.4245 188.562 74.5819 188.358 72.9747C188.174 71.534 187.814 69.5739 187.01 68.339C186.858 68.1038 186.61 67.9372 186.42 67.7314C185.906 67.1727 185.696 66.5945 185.28 65.9869C184.699 65.144 183.836 64.4776 183.215 63.6348C183.172 63.5858 183.123 63.5367 183.072 63.4975C182.876 62.7723 182.678 62.047 182.487 61.3218C182.398 60.9886 182.303 60.6456 182.226 60.3123C182.211 60.2437 182.193 60.1752 182.176 60.1066C182.186 60.0772 182.198 59.9203 182.244 59.6557C182.613 57.4702 182.1 55.1475 181.506 53.06C180.839 50.7078 179.554 48.6889 178.729 46.3956ZM178.357 29.7151C178.206 27.6766 176.891 26.2751 175.629 24.7168C173.767 22.4235 173.55 19.8264 175.051 17.2684C176.361 15.0437 178.381 13.2895 180.276 11.5646C182.422 9.61429 184.963 7.80115 187.466 6.33107C192.891 3.1459 198.983 1.30341 205.296 1.33281C208.59 1.34261 211.908 1.85223 215.118 2.55788C216.708 2.91069 218.284 3.32227 219.843 3.79269C220.465 3.97891 221.109 4.12593 221.662 4.44936C221.963 4.63556 222.15 4.83156 222.485 4.96877C223.679 5.45879 225.008 5.68422 226.221 6.16444C227.587 6.70348 228.907 7.34056 230.173 8.0854C232.506 9.44768 234.626 11.1431 236.483 13.1032C240.72 17.5722 243.516 23.2174 243.804 29.4309C244.105 35.9483 241.715 42.0932 240.122 48.3067C239.739 49.8062 239.4 51.3057 239.058 52.8052C238.664 54.5497 237.647 55.8335 236.964 57.4408C236.214 59.2147 235.602 61.1552 235.71 63.0957C234.802 62.4881 233.859 61.9687 232.94 61.557C231.821 61.0572 229.59 60.5868 228.969 59.4009C228.636 58.7639 228.822 58.3915 229.393 57.9701C230.001 57.5291 230.2 57.725 230.894 57.6858C231.643 57.6466 232.177 57.3526 232.642 56.7645C233.796 55.3043 234.119 53.0992 234.39 51.3155C234.772 48.8164 235.115 46.2976 235.461 43.7985C235.925 40.4565 232.742 38.0259 229.743 39.7606C228.147 40.6721 227.075 42.1422 226.082 43.6515C224.401 46.1898 222.214 44.8765 220.4 43.2398C218.88 41.8579 217.472 40.3193 216.013 38.8688C213.888 36.7715 212.392 34.4781 211.927 31.4792C211.345 27.7256 208.305 26.089 204.683 26.3634C200.472 26.677 196.936 28.9409 193.473 31.1264C191.091 32.6357 188.5 34.4194 185.487 33.7039C184.051 33.3609 184.403 32.3122 183.794 31.2832C183.425 30.6559 182.813 30.1071 182.251 29.6661C181.216 28.8526 179.816 28.2745 178.937 29.5779C178.817 29.7543 178.696 29.9503 178.576 30.1561C178.561 29.9601 178.477 29.8131 178.357 29.7151ZM249.363 73.3177C248.989 72.71 248.604 72.1024 248.207 71.5046C247.735 70.7989 247.124 69.7405 246.382 68.8291C246.426 68.8486 246.472 68.8486 246.516 68.8682C248.73 69.4856 248.954 71.4458 249.363 73.3177ZM248.766 143.152C249.061 143.162 249.357 143.173 249.652 143.18C253.554 143.266 257.457 143.101 261.358 143.051C264.209 143.015 268.68 142.349 271.032 144.429C272.717 145.918 271.33 147.319 269.626 147.822C268.187 148.247 266.6 148.067 265.14 147.863C261.885 147.408 258.6 146.902 255.443 145.949C253.774 145.447 252.157 144.797 250.59 144.033C250.017 143.755 249.39 143.466 248.766 143.152ZM253.667 78.0317C258.155 79.933 263.16 79.8448 267.727 81.5795C272.448 83.373 276.938 86.0094 281.116 88.8221C284.481 91.0811 287.253 94.0958 289.177 97.6661C293.03 104.82 293.347 113.345 292.571 121.263C291.766 129.472 289.695 137.517 287.38 145.413C286.416 148.698 285.393 151.965 284.425 155.248C283.305 159.052 282.647 162.938 281.648 166.77C281.013 169.211 279.95 171.654 278.773 173.93C278.443 173.458 278.127 172.977 277.905 172.437C277.712 171.966 277.637 171.471 277.34 171.048C277.048 170.631 276.326 170.312 276.23 169.784C276.164 169.425 275.897 169.279 275.62 169.291C272.041 164.23 268.26 159.259 263.641 155.102C258.629 150.593 252.521 146.766 245.659 146.335C244.345 145.628 242.385 144.487 243.876 143.327C244.43 142.896 245.182 142.933 245.869 142.995C247.251 144.032 248.927 144.771 250.422 145.472C253.635 146.979 256.91 147.656 260.32 148.476C263.06 149.136 266.349 149.775 269.168 149.321C271.125 149.004 273.998 147.429 273.118 145.081C272.253 142.771 269.56 141.983 267.332 141.753C263.446 141.352 259.4 141.721 255.502 141.792C253.551 141.827 251.601 141.849 249.652 141.806C248.577 141.781 247.371 141.578 246.209 141.538C246.124 141.467 246.036 141.397 245.957 141.322C244.789 140.206 244.148 138.556 244.425 136.951C244.732 135.174 246.475 133.854 247.405 132.336C249.209 129.395 249.873 125.756 250.669 122.441C252.428 115.113 253.553 107.657 254.787 100.227C255.378 96.6694 256.16 93.2912 255.67 89.6679C255.222 86.3622 254.1 83.1084 252.817 80.0408C252.357 78.9431 251.856 77.8553 251.316 76.7969C252.009 77.3163 252.829 77.6789 253.667 78.0317ZM279.007 177.733C278.825 179.47 275.858 180.955 273.571 181.124C274.957 179.106 276.367 177.089 278.672 176.208C278.916 176.696 279.062 177.2 279.007 177.733ZM241.713 69.7895C241.961 69.5347 242.325 69.0446 242.602 68.8878C242.721 68.8192 242.827 68.7702 242.931 68.7212C243.353 68.6918 243.776 68.6624 244.195 68.6428C244.515 68.8192 244.75 69.1525 245.059 69.4465C246.475 70.7989 247.558 72.9551 248.555 74.631C248.949 75.2974 249.321 75.9638 249.68 76.6498C248.772 77.8847 247.592 78.9137 246.742 80.2074C245.537 82.0401 244.343 83.8925 243.267 85.8036C241.361 89.1916 239.642 92.7942 237.156 95.8148C236.545 96.5567 236.192 96.9575 235.721 95.9236C235.325 95.0572 234.822 94.2898 234.274 93.5126C233.268 92.0856 233.142 90.2206 232.039 88.8809C230.086 86.5092 226.75 85.9995 223.799 85.9407C223.946 85.8035 224.097 85.6663 224.24 85.5291C224.894 84.8921 225.558 84.2649 226.232 83.6572C227.739 82.2851 229.298 80.9719 230.93 79.7566C233.994 77.4731 236.731 74.6309 239.482 71.975C240.231 71.2497 240.976 70.5245 241.713 69.7895ZM189.874 162.005C189.908 161.84 189.932 161.674 189.962 161.509C190.522 160.453 191.028 159.362 191.42 158.265C192.962 153.942 194.551 149.618 196.054 145.28C197.571 140.908 198.569 136.394 199.671 131.907C200.918 126.825 202.783 122.036 204.538 117.116C206.122 112.672 208.198 108.039 208.169 103.251C208.156 101.409 207.914 99.6232 207.588 97.8288C208.572 95.4903 209.95 93.2107 212.311 92.1444C216.056 90.4519 220.817 93.2588 223.384 95.8638C225.064 97.5671 227.471 100.861 230.189 100.797C232.99 100.731 232.099 97.7023 230.955 96.3097C228.624 93.4744 225.544 91.3232 223.213 88.4692C222.853 88.038 222.757 87.6558 222.818 87.3128C225.079 87.2932 227.4 87.4011 229.412 88.5477C230.665 89.2602 231.314 90.1148 231.756 91.4565C232.026 92.2778 232.278 93.0206 232.751 93.7518C233.415 94.7838 234.051 95.6874 234.604 96.7929C234.813 97.2114 234.969 97.6416 235.387 97.8964C236.272 98.4374 237.145 97.8298 237.775 97.1859C240.384 94.5182 242.1 90.7773 243.87 87.5481C245.028 85.4409 246.32 83.4318 247.609 81.4129C248.397 80.1682 249.459 79.1392 250.373 78.0122C251.46 80.2369 252.372 82.5399 253.134 84.9117C253.76 86.862 254.264 88.8613 254.435 90.9027C254.627 93.197 254.224 95.3483 253.841 97.5966C253.158 101.615 252.53 105.642 251.837 109.658C251.156 113.609 250.409 117.549 249.492 121.452C248.583 125.313 247.841 129.554 245.431 132.795C244.513 134.031 243.459 134.889 243.115 136.446C242.831 137.727 243.007 139.06 243.545 140.249C243.781 140.77 244.085 141.237 244.439 141.663C244.357 141.68 244.276 141.697 244.197 141.72C242.166 142.265 240.809 144.317 242.633 145.916C242.788 146.052 242.951 146.179 243.117 146.302C240.001 146.419 237.056 147.107 234.082 148.318C230.953 149.593 228.511 151.87 225.48 153.279C223.651 154.128 221.747 154.193 219.79 154.477C217.64 154.788 215.573 155.733 213.548 156.489C209.759 157.905 205.987 159.375 202.168 160.709C198.455 162.006 194.691 163.181 190.851 164.046C190.364 164.156 189.862 164.242 189.352 164.319C189.594 163.544 189.729 162.714 189.874 162.005ZM198.374 131.414C197.46 135.109 196.645 138.828 195.529 142.47C194.296 146.493 192.625 150.36 191.247 154.333C191.154 154.6 191.064 154.867 190.976 155.133C191.714 151.514 193.097 148.031 194.203 144.515C195.455 140.532 196.673 136.539 197.982 132.574C198.111 132.186 198.243 131.8 198.374 131.414ZM206.621 106.08C206.321 107.912 205.659 109.668 205.039 111.408C204.261 113.587 203.568 115.793 202.772 117.965C202.353 119.108 201.93 120.244 201.515 121.381C201.58 121.082 201.65 120.785 201.706 120.485C202.451 116.538 202.951 112.688 204.207 108.865C205.13 106.052 205.699 103.211 206.631 100.403C206.871 102.286 206.924 104.234 206.621 106.08ZM214.68 90.0766C214.674 90.1775 214.689 90.2657 214.717 90.3431C213.347 90.3372 211.998 90.6518 210.781 91.4378C209.18 92.4718 208.022 93.9527 207.134 95.5972C206.734 93.9252 206.152 92.3817 205.013 91.0106C204.283 90.1295 203.436 89.2082 202.473 88.4889C203.329 88.3419 204.182 88.0772 205.056 87.7342C206.126 87.3128 206.601 87.3618 207.854 86.8228C210.662 85.6271 213.276 84.0198 215.565 82.0009C215.573 81.9911 215.585 81.9813 215.594 81.9715C215.114 84.6471 214.838 87.3618 214.68 90.0766ZM171.38 166.26C169.764 166.196 167.983 166.248 166.834 164.894C166.254 164.211 165.945 163.303 165.79 162.345C166.601 162.139 167.393 161.744 168.129 161.164C170.82 159.043 172.033 155.621 173.096 152.493C174.657 147.899 175.919 143.202 176.811 138.431C177.677 133.792 177.792 129.13 178.392 124.463C179.042 119.405 180.014 114.397 180.78 109.356C181.145 106.952 181.47 104.54 181.696 102.119C181.95 99.4116 182.231 96.736 183.345 94.2183C183.431 94.0399 183.444 93.8723 183.409 93.7243C185.7 92.4875 188.078 91.4095 190.449 90.3373C191.995 89.6375 193.577 88.979 195.086 88.2047C195.27 88.1067 195.476 87.9891 195.664 87.8421C196.212 87.7931 196.766 87.7636 197.296 87.8224C197.664 87.9695 198.035 88.1067 198.414 88.2341C198.672 88.3125 198.927 88.3713 199.179 88.4301C199.394 88.5183 199.599 88.5967 199.792 88.6653C201.798 89.3523 203.682 91.1732 204.754 93.002C205.575 94.4005 205.89 96.0471 206.174 97.6504C205.2 99.9614 204.302 102.422 203.929 104.882C203.701 106.399 203.109 107.822 202.628 109.276C202.035 111.074 201.604 112.816 201.29 114.687C200.655 118.462 200.171 122.261 198.852 125.874C197.479 129.627 196.241 133.426 195.039 137.237C192.78 144.402 190.082 151.475 189.002 158.925C188.916 159.522 188.834 160.143 188.738 160.767C187.919 162.258 187.03 163.504 185.985 164.829C185.545 164.915 185.11 165.013 184.693 165.138C184.146 165.301 183.68 165.652 183.159 165.864C181.875 166.385 180.283 166.212 178.908 166.344C178.128 166.42 177.352 166.521 176.578 166.632C174.852 166.508 173.131 166.328 171.38 166.26ZM164.48 162.512C164.899 164.919 166.09 166.872 168.686 167.422C169.353 167.563 170.033 167.613 170.714 167.645C169.634 167.843 168.554 168.036 167.468 168.202C165.416 168.516 163.48 168.714 161.448 168.161C159.542 167.645 157.805 166.668 156.214 165.516C154.844 164.524 153.726 163.091 152.344 162.161C152.078 161.983 151.769 161.899 151.446 161.85C151.795 161.783 152.14 161.694 152.475 161.573C153.988 161.03 155.289 160.073 156.599 159.171C157.594 158.485 158.024 157.74 159.09 158.901C159.724 159.593 160.192 160.401 160.898 161.046C161.979 162.032 163.223 162.507 164.48 162.512ZM186.832 76.0031C186.774 76.1991 186.703 76.3951 186.624 76.5715C186.599 76.4833 186.572 76.4049 186.553 76.3265C186.283 75.2778 185.997 74.2291 185.714 73.1903C185.129 71.0342 184.538 68.8781 183.95 66.7219C185.079 68.1136 186.125 69.5444 186.619 71.3183C187.04 72.8276 187.286 74.4742 186.832 76.0031ZM160.905 109.243C161.787 105.634 163.203 102.103 164.78 98.7461C165.443 97.3339 166.154 95.9432 166.904 94.5751C167.81 92.9197 168.959 89.9864 170.608 88.9691C171.367 88.5085 172.337 88.3908 173.145 88.0282C173.899 87.6852 174.544 87.156 175.251 86.7248C176.593 85.9015 178.01 85.1959 179.288 84.2649C180.325 83.5102 181.359 82.5791 181.937 81.4129C182.028 81.2267 182.109 81.0209 182.203 80.8347C182.526 80.2075 182.452 80.0408 183.144 79.884C183.803 79.7272 184.503 79.8056 185.171 79.6194C185.749 79.4528 186.234 79.1882 186.643 78.8452C188.948 81.609 191.594 84.5197 194.698 86.4798C194.684 86.4994 194.671 86.519 194.659 86.5484C194.606 86.5484 194.551 86.5483 194.498 86.5581C194.048 86.5679 193.829 86.9306 193.837 87.2834C193.595 87.401 193.35 87.5088 193.105 87.6264C192.334 87.9793 191.56 88.3321 190.785 88.6849C189.247 89.3817 187.704 90.0697 186.178 90.795C183.176 92.2219 180.225 93.793 177.561 95.7962C176.324 96.7263 175.13 97.7338 174.066 98.8589C173.716 99.2283 173.543 99.4791 173.287 99.9035C172.708 100.866 172.076 101.561 171.327 102.395C169.121 104.845 167.359 107.642 165.721 110.492C163.531 114.301 161.417 118.088 159.575 122.015C159.528 117.724 159.879 113.441 160.905 109.243ZM165.721 159.019C165.993 155.386 167.033 151.716 167.882 148.184C171.289 134.009 176.458 120.354 179.855 106.185C179.42 109.456 178.858 112.711 178.315 115.967C177.681 119.745 176.965 123.568 176.679 127.394C176.377 131.414 176.038 135.354 175.243 139.32C174.495 143.044 173.524 146.722 172.362 150.338C171.268 153.744 170.148 158.044 167.068 160.256C166.622 160.577 166.15 160.814 165.666 160.965C165.646 160.283 165.677 159.615 165.721 159.019ZM271.272 180.524C271.354 180.35 271.36 180.14 271.23 179.923C271.127 179.75 271.027 179.575 270.93 179.399C270.93 179.393 270.93 179.388 270.93 179.382C270.955 179.078 270.809 178.883 270.604 178.789C270.055 177.731 269.573 176.643 269.03 175.579C268.139 173.833 266.946 172.232 265.859 170.603C263.847 167.587 261.819 164.58 259.73 161.616C256.233 156.651 252.841 151.644 248.04 147.924C259.979 150.25 269.211 162.485 275.788 171.915C275.916 172.098 276.089 172.189 276.268 172.213C276.443 172.53 276.59 172.869 276.762 173.255C277.022 173.84 277.481 174.423 277.918 175.024C275.426 176.08 273.843 178.306 272.303 180.548C272.204 180.693 272.106 180.836 272.008 180.98C271.707 180.88 271.458 180.728 271.272 180.524ZM359.338 189.821C353.671 189.523 348.037 190.436 342.373 190.285C336.659 190.131 330.967 189.678 325.24 189.632C319.402 189.583 313.553 189.704 307.716 189.526C302.031 189.354 296.357 188.789 290.671 188.693C284.154 188.582 277.64 188.961 271.124 188.804C270.449 186.579 271.192 184.784 272.308 183.006C272.39 182.915 272.469 182.822 272.554 182.735C272.64 182.647 272.692 182.551 272.721 182.455C272.74 182.458 272.76 182.463 272.779 182.466C274.834 182.789 276.809 181.925 278.455 180.732C280.093 179.548 280.878 177.839 280.006 175.887C279.969 175.803 279.923 175.722 279.882 175.641C279.998 175.414 279.963 175.119 279.816 174.902C281.022 172.613 282.137 170.153 282.826 167.684C283.565 165.035 283.952 162.302 284.629 159.638C285.404 156.586 286.357 153.58 287.272 150.567C289.688 142.601 292.009 134.576 293.294 126.337C294.549 118.298 294.989 109.739 292.45 101.894C291.27 98.2453 289.414 94.8337 286.849 91.972C283.508 88.2439 278.994 85.6761 274.644 83.3142C271.368 81.5403 267.93 79.9526 264.295 79.0706C262.028 78.512 259.695 78.3356 257.422 77.8161C256.176 77.5221 254.958 77.1301 253.79 76.6008C252.807 76.1598 251.795 75.709 251.246 74.729C250.658 73.6803 250.632 72.3474 250.322 71.2106C249.749 69.0936 248.313 67.7215 246.112 67.3981C245.644 67.3295 245.144 67.3198 244.63 67.3296C244.032 67.0356 243.381 66.9571 242.678 67.2217C242.531 67.2707 242.389 67.3393 242.25 67.4177C241.421 67.4373 240.613 67.3981 239.888 67.1923C239.196 66.1045 238.286 65.1146 237.263 64.2522C236.643 61.8609 237.603 59.2049 238.706 57.0978C239.336 55.9021 239.995 54.8339 240.316 53.501C240.755 51.6781 241.14 49.8552 241.612 48.0421C243.234 41.8089 245.533 35.6739 245.166 29.1369C244.549 18.2191 236.584 8.75179 226.587 4.84137C225.414 4.38075 223.953 4.21413 222.85 3.64569C222.565 3.49869 222.354 3.22432 222.071 3.06752C221.35 2.67549 220.354 2.50888 219.572 2.28348C216.432 1.37202 213.232 0.695801 209.985 0.293991C203.818 -0.460648 197.694 0.215561 191.928 2.57748C186.715 4.7238 181.991 8.03638 177.895 11.888C174.747 14.838 171.211 18.9248 173.222 23.5016C174.247 25.8439 176.992 27.3532 176.996 30.0876C176.997 30.313 177.081 30.4698 177.206 30.5874C177.203 31.783 177.148 32.9591 177.066 34.1352C177.056 34.2136 177.039 34.292 177.034 34.3606C177.028 34.4194 177.03 34.4782 177.037 34.5272C176.956 35.6151 176.856 36.7127 176.76 37.8201C176.593 39.741 176.269 41.5248 176.524 43.4751C176.82 45.739 177.742 48.0127 178.81 50.0218C180.012 52.2857 180.807 54.9318 180.965 57.4996C181.02 58.411 180.782 59.2931 180.837 60.185C180.242 59.8027 179.537 59.5578 178.702 59.5382C176.962 59.4892 175.29 60.0478 173.745 60.7926C171.413 61.9099 169.017 62.8703 166.603 63.8014C164.815 64.4972 163.026 65.1833 161.265 65.9379C159.216 66.8199 157.726 67.5843 156.164 69.1622C153.524 71.8279 151.215 74.8171 149.191 77.9827C145.139 84.304 142.226 91.2781 139.569 98.2776C136.482 106.4 133.363 114.529 130.461 122.718C127.659 130.626 124.151 139.469 124.951 148.009C125.216 150.856 125.912 153.612 127.872 155.598C126.465 155.444 125.062 155.304 123.683 155.149C119.504 154.681 115.309 154.492 111.126 155.017C109.279 155.249 108.417 155.878 107.222 157.306C105.773 159.037 104.309 160.755 102.914 162.528C101.62 164.173 100.38 165.862 99.2674 167.635C98.4706 168.906 97.7228 170.056 97.5053 171.47C96.8535 169.971 96.2037 168.468 95.7235 166.892C94.6102 163.243 93.5968 159.623 92.3394 156.014C91.0477 152.305 89.7697 148.592 88.4711 144.884C87.0295 140.773 85.5349 136.665 84.3314 132.476C83.125 128.273 82.1223 124.016 80.6493 119.894C80.6101 119.784 80.5523 119.697 80.4827 119.627C80.0094 118.45 78.8431 117.997 77.523 117.918C74.5936 117.74 71.6113 117.863 68.677 117.889C61.9548 117.949 55.2366 118.182 48.5212 118.472C35.218 119.046 21.9197 119.821 8.59979 119.872C6.30549 119.881 -0.686223 118.787 0.0546971 122.982C0.0752782 123.094 0.115452 123.185 0.168375 123.256C0.173275 123.321 0.186038 123.39 0.215439 123.462C3.49077 131.474 6.61518 139.553 9.78859 147.606C13.5755 157.214 16.6686 167.073 20.5849 176.636C22.742 181.903 24.2875 187.568 27.6618 192.234C27.6765 192.254 27.6932 192.27 27.7089 192.287C27.7206 192.302 27.7284 192.318 27.7402 192.333C28.7065 193.466 29.9904 193.844 31.4281 194.044C33.6862 194.357 35.9746 194.517 38.2425 194.745C43.1378 195.238 48.0351 195.726 52.9344 196.187C62.3566 197.072 71.7887 197.857 81.2373 198.385C85.9436 198.648 90.6537 198.847 95.3658 198.963C99.973 199.078 104.626 199.269 109.224 198.862C118.203 198.068 126.863 195.369 135.52 193.011C139.87 191.825 144.248 190.702 148.697 189.945C152.416 189.311 156.103 189.635 159.82 189.179C160.427 189.104 161.022 188.971 161.61 188.794C163.02 189.027 164.431 189.26 165.843 189.488C184.322 192.484 203.032 191.933 221.678 191.785C226.95 191.742 232.216 191.739 237.483 191.942C242.675 192.142 247.669 191.425 252.822 191.113C257.139 190.853 261.676 191.04 265.768 189.413C267.305 188.801 268.436 188.08 269.471 186.797C269.477 186.789 269.484 186.78 269.491 186.774C269.436 187.682 269.567 188.637 269.965 189.665C270.08 189.959 270.302 190.161 270.629 190.168C276.531 190.336 282.429 190.046 288.333 190.048C294.018 190.052 299.738 190.422 305.413 190.772C316.964 191.482 328.561 190.678 340.12 191.523C346.537 191.992 352.922 190.857 359.338 191.195C360.222 191.242 360.219 189.868 359.338 189.821Z" fill="#2A324B"/>
</g>
<defs>
<clipPath id="clip0_22_18">
<rect width="360" height="199.11" fill="white"/>
</clipPath>
</defs>
</svg>
