<svg width="360" height="620" viewBox="0 0 360 620" fill="none" xmlns="http://www.w3.org/2000/svg">
<g clip-path="url(#clip0_53_48)">
<path d="M242.972 619.927C242.972 619.927 243.263 604.637 244.335 595.244C245.36 586.262 245.318 577.834 244.229 573.804L243.448 570.917L241.512 569.948C237.867 568.122 233.786 562.927 231.653 557.396C231.118 556.009 230.174 552.959 229.554 550.618C228.188 545.455 227.496 543.295 227.209 543.302C227.09 543.305 226.636 544.14 226.2 545.157C224.58 548.937 218.264 554.044 211.756 556.838C203.078 560.563 196.854 559.675 194.511 554.379C194.108 553.468 193.645 552.931 193.181 552.838C189.844 552.165 184.071 551.55 181.014 551.543C176.738 551.533 174.815 551.927 168.431 554.123C153.311 559.324 149.484 560.014 133.907 560.347L124.066 560.558L122.318 561.477C121.357 561.982 117.269 564.618 113.234 567.336C99.6332 576.494 90.9513 579.922 78.5716 581.022C76.442 581.211 73.0022 581.514 70.9274 581.695C67.2935 582.012 64.7331 582.572 58.6116 584.392C57.039 584.859 54.9829 585.241 54.0425 585.241C52.5488 585.241 52.2323 585.122 51.5392 584.298C51.1028 583.78 50.3764 582.292 49.9251 580.991C49.4738 579.691 48.8289 577.828 48.4921 576.852C48.0785 575.654 47.7292 575.115 47.4156 575.193C47.1603 575.257 44.74 575.387 42.037 575.482L37.1225 575.654L36.915 576.76C36.5791 578.551 36.9498 582.722 37.5467 583.867C38.4027 585.509 39.4886 586.026 42.511 586.229C46.0235 586.466 46.6534 587.002 46.5749 589.689C46.5124 591.828 45.4628 594.886 44.489 595.764C43.4272 596.723 39.9099 596.507 31.7867 594.986C27.8826 594.255 22.4362 593.434 19.6836 593.162C13.9201 592.592 11.6214 592.063 8.89191 590.679C4.81678 588.612 2.36771 586.27 0.831519 582.97C-0.769672 579.53 -0.0349637 577.005 2.83311 576.092C6.07567 575.06 11.9749 575.197 13.7275 576.345C14.6897 576.975 18.6207 576.639 19.65 575.838C20.0733 575.509 20.8258 575.239 21.3223 575.239C21.9179 575.239 22.2895 575.036 22.4148 574.641C22.5192 574.312 23.0867 573.783 23.6758 573.466C24.5614 572.989 25.1892 572.925 27.2989 573.097C35.7015 573.782 35.3705 573.79 36.4568 572.876C37.0043 572.415 37.9769 571.94 38.6182 571.82C40.1499 571.532 46.9968 571.941 48.2726 572.395C50.0455 573.027 54.6082 571.358 75.4969 562.437C89.6872 556.377 95.5479 553.632 98.3222 551.748C99.4064 551.012 101.408 549.092 102.856 547.399C106.833 542.749 110.619 540.155 114.664 539.307C115.794 539.07 117.501 538.43 118.457 537.884C120.961 536.455 128.324 533.237 135.036 530.639C152.389 523.923 165.307 520.744 179.65 519.661L180.706 519.581L179.861 518.342C177.226 514.479 172.572 501.073 166.187 478.955C165.116 475.244 164.187 472.155 164.122 472.091C164.058 472.027 163.698 472.813 163.323 473.837C161.679 478.323 158.269 482.513 153.081 486.424C151.648 487.504 147.625 490.206 144.141 492.429C136.81 497.107 134.812 498.539 132.097 501.063C129.172 503.782 127.691 504.676 126.37 504.522C125.399 504.409 125.2 504.518 124.701 505.446C124.389 506.025 123.88 506.728 123.57 507.009C123.037 507.491 123.064 507.607 124.077 509.112C125.991 511.956 126.302 516.102 124.847 519.391C123.539 522.349 121.54 523.597 118.097 523.606C115.561 523.612 114.34 523.296 110.353 521.601C106.327 519.888 104.164 519.708 100.001 520.738C95.9413 521.742 88.6893 521.822 85.573 520.897C82.9485 520.118 81.6368 518.932 81.6368 517.339C81.6368 514.343 84.2847 512.349 92.227 509.365C98.5609 506.984 100.728 505.421 103.558 501.19C104.151 500.303 105.227 498.96 105.949 498.205C107.026 497.08 107.473 496.834 108.445 496.834C109.102 496.834 109.807 497.049 110.029 497.316C110.249 497.582 110.613 499.303 110.838 501.141C111.297 504.89 111.601 505.665 112.863 506.311C114.026 506.907 117.156 507.589 117.95 507.42C118.459 507.312 118.332 507.155 117.29 506.605C113.693 504.706 112.405 501.733 114 499.011C115.138 497.068 116.692 496.262 118.411 496.72L119.71 497.067V495.703C119.71 493.737 121.335 490.708 126.632 482.799C135.659 469.324 146.661 455.222 152.977 449.033C159.149 442.985 164.579 440.373 167.967 441.822C168.666 442.121 169.963 442.583 170.851 442.85C174.022 443.803 176.542 445.731 179.913 449.781C186.457 457.644 195.506 473.678 199.365 484.251C200.782 488.132 200.99 488.519 201.27 487.8C201.443 487.356 202.258 483.63 203.082 479.519L204.579 472.045L203.906 470.906C202.921 469.235 202.764 466.688 203.442 463.349C203.98 460.701 203.983 460.399 203.496 458.908C202.631 456.263 202.501 454.734 203.049 453.635C203.522 452.687 203.494 452.557 202.279 450.14C200.063 445.73 199.17 440.535 200.271 438.457C201.371 436.381 202.227 436.027 206.447 435.904C209.172 435.825 210.594 435.926 211.586 436.27C212.34 436.531 212.957 436.681 212.957 436.604C212.957 436.526 212.399 435.636 211.717 434.625C209.919 431.96 207.218 427.251 204.806 422.574L202.7 418.492L202.873 424.365C203.062 430.749 202.873 431.784 201.565 431.597C201.179 431.542 200.69 431.133 200.478 430.689C199.658 428.972 198.783 417.227 199.072 411.815C199.157 410.218 197.179 404.142 193.766 395.521C190.584 387.48 188.611 381.579 187.921 378.042C187.334 375.025 187.415 374.318 188.712 371.16C189.076 370.273 189.675 368.496 190.042 367.212C190.6 365.263 190.841 364.844 191.506 364.677C192.118 364.524 192.265 364.317 192.143 363.786C182.34 293.898 166.931 181.317 158.309 118.752C157.251 111.074 142.354 0.992533 142.354 0.64034C142.354 0.150878 142.572 0 143.277 0C144.136 0 144.213 0.106041 144.392 1.53261C144.778 4.62437 188.528 323.893 191.665 346.477C192.54 352.777 193.501 359.631 193.8 361.709L194.344 365.486L195.286 364.693C197.354 362.953 199.316 364.264 200.161 367.949C200.443 369.183 201.123 371.416 201.671 372.912C202.916 376.31 203.167 378.893 202.64 382.881C202.129 386.757 202.428 388.475 204.458 393.323C206.381 397.915 209.556 403.422 214.517 410.77C220.599 419.781 222.198 422.454 223.472 425.741C224.767 429.083 224.915 429.238 230.542 433.102C234.627 435.907 237.11 437.86 241.177 441.468C245.201 445.037 247.517 446.54 252.612 448.891C258.72 451.71 261.282 453.482 267.324 459.067C269.276 460.871 271.267 462.558 271.748 462.815C272.549 463.242 272.652 463.229 272.958 462.656C273.143 462.312 273.293 461.153 273.293 460.08C273.293 457.754 272.866 457.343 269.88 456.797C265.863 456.062 264.904 454.885 264.904 450.688C264.904 449.37 264.768 448.436 264.575 448.436C264.393 448.436 264.082 448.079 263.884 447.643C263.595 447.009 263.629 446.687 264.052 446.041C264.343 445.596 264.582 444.632 264.582 443.898C264.582 442.832 264.387 442.383 263.614 441.66C263.081 441.163 262.646 440.467 262.646 440.114C262.646 439.283 265.095 435.96 266.623 434.72C267.497 434.01 268.109 433.031 268.941 431.013C270.136 428.112 270.682 427.464 271.928 427.464C272.977 427.464 274.162 428.743 276.026 431.888C278.378 435.856 280.073 437.84 283.037 440.093C284.51 441.212 286.101 442.548 286.571 443.061C287.787 444.386 288.268 446.395 288.017 449.097C287.764 451.819 288.173 452.998 289.896 454.511C290.562 455.096 291.159 455.522 291.223 455.459C291.286 455.395 291.129 454.551 290.873 453.584C290.617 452.616 290.321 450.735 290.214 449.404C289.858 444.96 289.01 443.558 285.058 440.874C281.917 438.74 281.608 438.372 280.716 435.707C280.274 434.385 279.17 432.558 277.295 430.045C273.876 425.461 273.193 424.173 273.159 422.245C273.11 419.51 275.036 418.004 279.908 416.967C283.576 416.187 290.558 416.174 293.137 416.942C297.995 418.39 302.903 422.221 307.438 428.106C308.602 429.616 309.611 430.924 309.68 431.012C309.749 431.101 309.976 430.943 310.183 430.662C310.843 429.766 311.916 429.4 313.876 429.4C318.434 429.4 326.103 433.458 331.224 438.58C336.747 444.105 338.341 448.831 338.955 461.504C339.412 470.936 341.35 477.407 345.446 483.182C348.444 487.409 353.027 489.906 357.564 489.787C359.482 489.736 359.743 489.803 359.93 490.394C360.231 491.342 359.542 491.994 358.239 491.994C357.297 491.994 356.738 492.347 354.783 494.172C350.649 498.033 348.723 499.054 345.528 499.079C344.53 499.086 343.088 498.872 342.324 498.603C341.559 498.333 340.84 498.224 340.724 498.361C340.609 498.497 340.332 499.262 340.11 500.061C339.888 500.859 339.07 502.701 338.291 504.154C337.02 506.525 336.911 506.897 337.222 507.789C337.972 509.941 336.45 511.685 334.777 510.589C333.694 509.879 333.452 508.761 334.108 507.493C334.706 506.336 334.824 506.585 332.207 503.498C331.327 502.46 328.763 500.179 326.507 498.429C323.121 495.801 322.265 494.961 321.589 493.604L320.77 491.961L319.975 493.349C318.601 495.747 318.321 496.899 318.725 498.487C319.026 499.67 318.995 500.079 318.533 501.006C316.946 504.191 314.834 502.262 315.855 498.562C316.166 497.439 316.085 497.182 314.603 494.597C312.251 490.494 310.876 488.791 305.465 483.283C299.497 477.208 298.612 475.744 298.639 471.99C298.667 467.931 300.153 465.129 306.68 456.825C308.563 454.429 310.641 451.387 311.299 450.065C312.43 447.793 312.496 447.491 312.491 444.58C312.486 442.759 312.327 441.235 312.097 440.854C311.768 440.307 311.707 440.536 311.699 442.352C311.675 447.596 308.804 452.241 303.176 456.141C300.643 457.896 298.112 458.819 295.556 458.92L293.459 459.003L293.071 462.189C292.558 466.401 292.888 468.19 295.143 473.442C297.137 478.084 297.416 480.064 296.411 482.431C295.722 484.055 295.996 487.046 296.86 487.32C298.643 487.886 299.022 493.21 298.479 510.063C298.018 524.381 297.773 527.284 296.88 529.035C294.414 533.868 285.322 532.715 271.441 525.808C266.978 523.587 265.115 522.164 264.591 520.578C264.115 519.135 263.262 518.959 261.442 519.927C260.587 520.382 259.425 520.711 258.673 520.711C257.792 520.711 256.906 521.013 255.898 521.658C250.194 525.31 242.698 527.105 238.206 525.895C233.605 524.656 228.96 518.866 224.706 509.067C222.373 503.692 221.573 500.884 221.542 497.963C221.509 494.859 222.17 493.36 224.604 491.027C225.474 490.192 226.184 489.234 226.183 488.897C226.177 487.791 224.339 485.044 221.795 482.34C219.192 479.573 215.538 476.537 215.538 477.141C215.538 477.332 216.124 478.654 216.84 480.079C217.556 481.503 218.586 483.994 219.129 485.615C219.975 488.14 220.101 488.935 220.005 491.166C219.865 494.409 219.094 496.087 217.342 496.956C216.272 497.487 215.954 497.513 214.781 497.163C211.141 496.077 208.412 490.266 207.457 481.573C206.864 476.165 207.868 473.603 210.581 473.603C211.178 473.603 211.666 473.522 211.666 473.423C211.666 473.202 211.017 470.385 210.822 469.762C210.739 469.496 210.384 469.896 209.963 470.73C209.364 471.918 209.002 472.229 207.757 472.628L206.268 473.106L205.73 476.178C205.434 477.867 204.698 481.543 204.093 484.346L202.995 489.443L203.812 490.638C206.214 494.149 208.193 499.518 208.23 502.625C208.247 504.017 208.042 504.85 207.366 506.144L206.48 507.839L207.644 511.29C210.047 518.412 214.087 525.729 218.455 530.874C220.825 533.665 224.83 537.662 225.043 537.448C225.259 537.232 223.577 533.282 222.453 531.367C221.878 530.386 220.282 527.986 218.908 526.034C211.367 515.323 209.824 512.708 208.884 509.04C208.252 506.57 208.482 504.739 209.76 502.09C210.845 499.84 211.978 498.77 213.273 498.77C215.003 498.77 215.393 499.635 217.191 507.456C219.21 516.238 221.458 521.214 226.39 527.82C228.435 530.558 230.829 532.649 231.919 532.649C232.172 532.649 233.054 532.053 233.88 531.325C235.627 529.784 237.819 528.601 239.519 528.282C241.881 527.839 243.523 529.327 242.461 530.948C241.429 532.524 237.571 534.363 234.382 534.8C233.145 534.97 232.755 535.22 231.754 536.486C231.108 537.304 230.039 538.637 229.378 539.45L228.177 540.927L229.106 542.838C229.617 543.888 230.628 546.999 231.352 549.749C233.302 557.162 235.318 561.466 238.533 565.076C239.938 566.655 242.188 568.383 242.467 568.097C242.53 568.032 241.502 565.221 240.184 561.849C236.121 551.463 233.952 544.1 233.937 540.641C233.928 538.701 234.71 536.73 235.7 536.2C236.958 535.527 239.46 535.954 241.547 537.198C243.958 538.635 248.864 543.473 251.004 546.523C255.934 553.548 257.616 560.412 255.51 564.914C253.984 568.176 250.791 570.57 247.367 571.018C246.147 571.177 245.736 571.359 245.817 571.704C247.398 578.401 247.511 583.035 246.363 594.153C245.173 605.675 244.903 619.771 244.903 619.771L242.972 619.927ZM43.22 593.974C43.9521 593.242 44.5272 591.372 44.5298 589.716C44.5316 588.366 44.1215 588.157 41.4541 588.15C38.3792 588.141 35.9706 586.262 35.1555 583.234C34.9682 582.539 34.8442 580.565 34.8799 578.847L34.9448 575.723L33.8498 575.653C33.2475 575.614 31.203 575.414 29.3065 575.209C24.5979 574.7 23.1627 575.164 24.8175 576.662C25.5943 577.365 25.7952 578.129 25.4492 579.064C25.0191 580.227 23.5849 579.883 22.6184 578.385C22.189 577.72 21.662 577.175 21.4472 577.175C20.782 577.175 20.182 578.18 20.2814 579.128C20.3492 579.775 20.1858 580.135 19.7091 580.39C18.781 580.887 17.7513 580.293 17.7513 579.261C17.7513 578.622 17.5883 578.466 16.9229 578.466C16.2316 578.466 16.1297 578.576 16.3069 579.135C16.8802 580.941 14.8081 582.663 13.4932 581.473C12.9803 581.009 12.8984 580.646 13.0614 579.558C13.2545 578.271 13.2208 578.201 12.2323 577.857C10.8801 577.385 4.99354 577.428 3.56143 577.919C2.01052 578.451 1.65535 579.56 2.40603 581.526C3.92993 585.516 8.20801 588.857 13.575 590.247C14.6737 590.532 17.7419 590.973 20.3932 591.227C23.0445 591.481 28.3625 592.265 32.2108 592.969C42.6409 594.877 42.3444 594.85 43.22 593.974ZM58.9419 582.169C65.0552 580.35 67.9051 579.817 73.5704 579.435C83.3031 578.778 88.6105 577.733 94.9529 575.222C100.873 572.878 104.868 570.587 115.264 563.573C122.92 558.407 122.445 558.539 134.229 558.334C149.012 558.078 152.934 557.375 167.552 552.36C176.698 549.222 179.675 548.93 189.002 550.258C191.177 550.568 193.03 550.747 193.121 550.656C193.212 550.566 193.141 549.49 192.964 548.265C192.488 544.968 192.563 538.927 193.12 535.732C194.098 530.123 197.359 521.232 201.545 512.764L204.276 507.237L202.936 502.439C202.199 499.8 201.496 497.458 201.373 497.234C201.247 497.003 200.833 497.912 200.42 499.331C198.386 506.302 195.395 513.29 193.546 515.397C192.342 516.768 191.119 516.828 190.445 515.548C188.938 512.684 194.381 494.364 198.027 490.03L198.893 489L197.837 485.912C195.446 478.923 192.64 473.18 186.938 463.601C181.254 454.052 176.924 448.564 173.148 446.124C170.961 444.71 170.044 444.548 170.044 445.575C170.044 447.637 166.907 450.157 164.339 450.157C162.262 450.157 161.176 449.011 161.173 446.819C161.173 445.935 161.097 445.211 161.005 445.211C160.357 445.207 156.742 448.141 153.88 450.995C149.933 454.932 145.518 460.188 140.103 467.397C129.313 481.765 121.646 493.522 121.646 495.702C121.646 496.24 122.194 496.945 123.45 498.026C125.34 499.651 126.163 500.857 126.163 502.002C126.163 502.562 126.294 502.645 126.889 502.461C127.666 502.22 128.316 501.714 132.019 498.464C133.324 497.319 136.309 495.141 138.654 493.624C140.999 492.107 144.443 489.882 146.308 488.68C157.204 481.655 160.947 477.135 162.663 468.925C162.858 467.992 162.74 466.649 162.238 464.085C161.527 460.458 161.588 458.98 162.459 458.645C164.063 458.03 164.944 460.08 165.064 464.712C165.151 468.061 165.307 468.8 167.612 476.786C173.068 495.691 177.223 508.387 179.734 513.831C181.538 517.743 182.76 519.362 184.458 520.089C185.632 520.593 185.88 520.842 185.796 521.435C185.684 522.227 185.802 522.218 181.02 521.8C176.184 521.377 164.827 523.214 154.557 526.082C144.755 528.818 130.824 534.073 122.066 538.338L118.452 540.097L119.474 541.548C120.333 542.765 120.514 543.346 120.6 545.164C120.721 547.701 119.954 549.395 118.125 550.627C114.018 553.395 108.971 547.914 111.571 543.509C111.954 542.86 112.143 542.328 111.991 542.328C111.14 542.328 106.634 546.135 104.24 548.877C101.056 552.523 99.2994 553.845 94.3798 556.296C86.9856 559.981 57.2867 572.456 52.3576 573.948C50.1058 574.63 50.0275 574.687 50.2263 575.512C50.6179 577.138 52.3325 581.856 52.7947 582.58C53.4341 583.581 54.4162 583.516 58.9419 582.169ZM249.256 568.506C252.184 567.171 254.153 564.432 254.484 561.233C254.99 556.328 250.553 547.841 244.484 542.101C240.399 538.239 237.072 536.806 236.157 538.515C235.196 540.31 236.85 547.564 240.257 556.495C241.245 559.085 242.714 562.982 243.522 565.156L244.992 569.109L246.478 569.102C247.296 569.098 248.546 568.83 249.256 568.506ZM208.44 556.035C214.009 554.006 218.782 551.016 222.15 547.447C224.229 545.242 224.943 543.996 223.524 545.045C221.972 546.194 215.523 549.091 211.997 550.224C207.175 551.773 203.218 552.596 199.325 552.86C197.595 552.977 196.179 553.175 196.179 553.299C196.179 554.013 197.839 555.824 199.086 556.469C200.363 557.131 200.86 557.202 203.277 557.068C205.151 556.965 206.787 556.637 208.44 556.035ZM201.56 550.696C209.353 549.632 218.511 546.222 223.551 542.506L225.594 541L220.636 535.933C217.099 532.319 215.005 529.861 213.332 527.358C210.707 523.433 207.636 517.349 206.311 513.451C205.829 512.031 205.322 510.742 205.186 510.587C204.705 510.038 200.207 519.736 197.727 526.672C195.584 532.664 194.869 535.905 194.665 540.554C194.502 544.281 194.919 549.983 195.412 550.781C195.636 551.144 198.573 551.103 201.56 550.696ZM117.416 548.601C119.148 547.143 119.155 543.982 117.429 542.256L116.485 541.312L115.597 541.999C113.177 543.87 112.281 546.414 113.453 548.088C114.489 549.566 116.031 549.766 117.416 548.601ZM229.239 536.503C230.083 535.428 230.722 534.509 230.658 534.461C230.594 534.413 230.006 534.052 229.351 533.658C225.663 531.442 219.422 521.849 217.156 514.918C216.609 513.244 215.664 509.653 215.056 506.938C214.448 504.223 213.788 501.698 213.589 501.327C213.247 500.687 213.197 500.681 212.617 501.206C211.428 502.282 210.578 504.582 210.602 506.658C210.645 510.265 211.948 512.641 221.049 525.712C224.383 530.5 226.689 534.866 227.008 536.995C227.128 537.799 227.334 538.457 227.465 538.457C227.597 538.457 228.395 537.577 229.239 536.503ZM240.06 530.501C240.495 530.049 240.462 530.022 239.737 530.236C238.383 530.635 235.865 531.995 235.865 532.328C235.865 532.722 239.408 531.18 240.06 530.501ZM293.976 529.33C294.655 528.873 295.226 528.127 295.474 527.373C295.945 525.944 296.44 515.611 296.658 502.642L296.812 493.446L296.366 502.158C295.789 513.397 294.967 524.072 294.551 525.712C294.141 527.327 293.739 527.872 292.324 528.735C289.666 530.355 286.096 529.484 275.806 524.704C267.016 520.621 266.962 520.599 267.648 521.357C267.985 521.729 270.3 523.032 272.793 524.252C283.353 529.42 291.087 531.274 293.976 529.33ZM291.362 527.069C291.825 526.835 292.331 526.167 292.551 525.5C293.167 523.626 294.587 502.507 294.565 495.544C294.555 492.258 294.538 492.18 294.007 492.952C293.706 493.39 291.675 496.003 289.495 498.76C283.986 505.723 282.737 508.503 283.032 513.137C283.153 515.046 283.241 515.224 284.999 517.167C286.828 519.188 288.458 521.942 288.458 523.009C288.458 523.814 287.573 524.582 286.644 524.582C284.442 524.582 282.722 522.451 281.834 518.621C281.23 516.02 281.239 516.028 276.567 513.612C271.428 510.955 271.281 510.028 275.552 507.24C276.883 506.371 278.853 504.8 279.93 503.748C283.119 500.632 288.472 493.068 292.314 486.247C293.805 483.601 293.98 483.1 293.782 482.052L293.557 480.863L292.776 482.395C291.986 483.946 291.133 484.366 290.485 483.525C290.314 483.303 289.931 482.108 289.633 480.869C289.336 479.631 288.623 477.829 288.049 476.866C286.742 474.672 281.652 469.493 279.827 468.5C279.073 468.09 278.456 467.81 278.456 467.877C278.456 467.945 279.619 468.917 281.041 470.037C284.465 472.734 287.09 475.615 288.066 477.746C288.797 479.344 288.847 479.755 288.693 482.915C288.482 487.229 287.593 490.578 285.556 494.737C282.06 501.873 276.962 505.401 270.228 505.345C265.394 505.304 261.48 503.41 256.985 498.936C251.292 493.269 248.32 486.443 247.923 478.12C247.76 474.7 247.355 472.312 246.938 472.312C246.844 472.312 246.341 472.672 245.819 473.111C244.23 474.447 242.622 474.762 240.46 474.159L238.608 473.642L237.692 474.51C236.245 475.881 235.334 477.702 234.291 481.309C233.734 483.236 232.821 485.472 232.142 486.572C230.67 488.957 230.721 489.316 233.229 494.278C237.662 503.049 243.427 509.374 252.722 515.665C256.386 518.145 257.043 518.373 258.44 517.651C259.005 517.359 260.073 517.115 260.814 517.108C261.947 517.098 262.444 516.853 263.936 515.568C267.862 512.189 269.918 511.079 271.087 511.704C272.28 512.343 271.803 513.554 269.373 516.06L267.066 518.439L271.228 520.409C285.371 527.102 288.952 528.287 291.362 527.069ZM246.654 523.6C249.397 522.881 252.742 521.467 254.267 520.38L255.232 519.693L252.735 518.063C245.623 513.42 238.712 506.919 235.141 501.513C232.393 497.353 229.389 491.196 229.173 489.283C229.025 487.973 229.149 487.588 230.302 485.789C231.127 484.502 231.909 482.653 232.455 480.702C233.445 477.168 234.175 475.626 235.806 473.626C236.507 472.766 236.82 472.147 236.592 472.071C236.095 471.905 230.492 465.548 227.422 461.665C224.374 457.811 220.862 452.649 217.811 447.541L215.446 443.582L214.733 444.638C214.34 445.218 213.399 446.855 212.641 448.275C210.993 451.36 210.815 451.597 209.569 452.359C209.037 452.685 208.779 452.951 208.996 452.952C209.811 452.954 210.368 454.986 211.639 462.585C212.357 466.882 213.177 471.195 213.46 472.17C213.945 473.836 214.085 473.998 215.806 474.874C219.514 476.762 225.498 482.717 227.318 486.331C228.614 488.904 228.448 489.7 226.075 492.287C222.873 495.775 222.653 497.479 224.633 503.442C225.936 507.368 229.333 514.389 231.518 517.672C233.538 520.708 236.037 523.067 237.954 523.747C239.886 524.434 243.718 524.369 246.654 523.6ZM285.75 521.467C285.476 520.962 284.951 520.186 284.583 519.743L283.913 518.936L284.423 520.215C284.936 521.5 285.865 522.766 286.114 522.517C286.187 522.444 286.023 521.971 285.75 521.467ZM120.672 521.113C123.82 519.532 124.766 513.824 122.458 510.337L121.669 509.143L119.246 509.326C116.462 509.537 113.62 509.037 111.763 508.011C109.973 507.021 109.088 505.069 108.841 501.558C108.732 500.025 108.52 498.77 108.369 498.77C107.92 498.77 107.061 499.759 105.131 502.498C102.948 505.595 100.681 507.786 98.5383 508.869C97.6718 509.307 94.8575 510.496 92.2844 511.512C87.0187 513.591 84.2228 515.26 83.7554 516.602C83.3368 517.804 83.9202 518.345 86.3438 519.005C88.9219 519.707 95.5599 519.703 98.4616 518.998C104.222 517.598 106.352 517.685 110.514 519.49C115.696 521.737 118.529 522.19 120.672 521.113ZM265.55 517.123C265.55 516.946 265.404 516.89 265.227 517C265.05 517.11 264.904 517.345 264.904 517.522C264.904 517.7 265.05 517.755 265.227 517.645C265.404 517.536 265.55 517.301 265.55 517.123ZM194.262 510.261C196.937 504.634 200.33 493.797 199.925 492.181C199.609 490.921 199.17 491.399 197.613 494.701C195.304 499.596 192.79 507.757 192.149 512.437C191.835 514.733 192.427 514.124 194.262 510.261ZM281.956 506.736C282.314 505.719 283.167 504.046 283.853 503.02C285.033 501.252 284.92 501.334 281.697 504.585C279.678 506.62 277.529 508.448 276.413 509.078C275.356 509.675 274.654 510.262 274.811 510.419C274.964 510.572 276.392 511.331 277.983 512.105L280.876 513.513L281.091 511.049C281.209 509.694 281.599 507.753 281.956 506.736ZM122.955 504.387L123.597 503.348L121.623 501.462C118.83 498.795 117.936 498.27 116.947 498.721C116.512 498.919 115.917 499.582 115.626 500.193C115.18 501.128 115.16 501.461 115.499 502.28C115.926 503.311 116.524 503.795 119.387 505.427C121.381 506.563 121.66 506.482 122.955 504.387ZM206.11 502.034C206.003 500.273 205.666 498.847 204.921 497C203.787 494.189 202.661 492.18 202.379 492.462C202.081 492.76 205.63 504.881 205.956 504.679C206.124 504.575 206.193 503.396 206.11 502.034ZM337.122 502.226C337.678 501.096 338.306 499.421 338.518 498.502C338.876 496.949 338.854 496.781 338.202 496.087C337.426 495.26 337.296 494.264 337.889 493.672C338.814 492.747 340.728 493.689 340.728 495.07C340.728 495.621 341.096 495.945 342.32 496.472C345.649 497.904 348.576 497.101 352.292 493.739C354.365 491.863 354.669 491.349 353.706 491.349C352.433 491.349 348.368 489.037 346.475 487.237C341.001 482.031 337.938 474.344 337.185 463.923C336.284 451.433 335.813 448.749 333.891 445.144C330.523 438.824 319.604 431.335 313.758 431.335C312.394 431.335 311.044 432.123 311.044 432.918C311.044 433.078 311.625 434.421 312.335 435.902C314.581 440.585 315.128 445.023 313.936 448.883C313.197 451.274 311.059 454.556 306.345 460.536C302.818 465.009 300.765 468.837 300.496 471.44C300.169 474.607 301.589 476.776 308.185 483.179C311.333 486.236 313.372 488.755 315.384 492.075C316.218 493.45 316.959 494.576 317.032 494.576C317.104 494.576 317.546 493.821 318.014 492.898C318.481 491.975 319.244 490.645 319.709 489.943C320.219 489.172 320.619 488.028 320.719 487.057C320.933 484.974 321.741 484.353 322.706 485.529C323.214 486.149 323.301 486.54 323.101 487.304C322.96 487.843 322.839 489.167 322.832 490.246C322.817 492.767 323.557 493.78 327.65 496.843C329.307 498.083 331.801 500.311 333.194 501.795C334.587 503.278 335.813 504.444 335.919 504.386C336.024 504.327 336.565 503.355 337.122 502.226ZM272.685 503.286C273.641 503.107 275.315 502.525 276.406 501.991C281.793 499.356 286.327 491.086 286.756 483.114C286.918 480.108 286.872 479.767 286.113 478.274C285.178 476.437 281.999 473.276 277.351 469.563C275.589 468.156 273.924 466.614 273.649 466.136C273.362 465.636 272.766 465.189 272.246 465.085C270.93 464.822 269.628 463.848 265.066 459.716C259.686 454.842 258.082 453.762 251.192 450.373C245.149 447.401 244.4 446.881 236.995 440.503C235.22 438.974 231.953 436.474 229.735 434.946C224.338 431.23 222.81 429.77 222.124 427.677C221.125 424.626 219.393 421.616 213.943 413.455C206.664 402.554 203.544 396.976 201.477 391.165C200.648 388.837 200.569 388.252 200.663 385.196C200.916 377.047 200.856 376.148 199.901 373.742C199.408 372.499 198.747 370.414 198.432 369.108C197.872 366.79 197.092 365.459 196.59 365.966C196.453 366.105 196.34 367.313 196.34 368.651C196.34 370.648 196.236 371.148 195.757 371.444C195.271 371.746 195.016 371.63 194.225 370.752L193.275 369.698V371.436C193.275 376.109 195.011 381.966 197.977 387.3C200.946 392.639 201.553 394.313 203.418 402.297C205.228 410.048 206.419 412.47 212.112 419.984C216.709 426.052 217.005 426.869 217.328 434.393L217.549 439.548L219.023 441.491C223.638 447.574 230.157 454.202 237.963 460.745C242.77 464.775 246.513 468.41 246.513 469.049C246.513 469.232 247.095 469.921 247.806 470.579C249.365 472.021 249.615 472.9 249.863 477.798C250.301 486.464 253.279 492.917 259.435 498.535C262.02 500.894 264.568 502.392 267.199 503.1C269.318 503.67 270.425 503.707 272.685 503.286ZM288.715 496.592C292.467 491.885 294.267 489.088 294.255 487.984C294.244 487.03 294.205 487.059 293.206 488.741C292.636 489.702 290.833 492.497 289.2 494.952C287.568 497.407 286.284 499.415 286.348 499.415C286.413 499.415 287.478 498.145 288.715 496.592ZM216.745 495.05C218.119 494.087 218.533 490.32 217.614 487.133C217.336 486.169 216.083 483.166 214.828 480.46L212.547 475.539H211.34C209.542 475.539 209.236 476.117 209.305 479.38C209.455 486.425 212.223 494.097 215.023 495.229C215.953 495.605 215.952 495.605 216.745 495.05ZM292.718 478.144C293.055 477.536 293.525 477.152 293.932 477.152C294.562 477.152 294.573 477.097 294.135 476.104C290.965 468.908 290.53 467.046 291.027 462.816C291.216 461.207 291.451 459.5 291.549 459.022C291.698 458.298 291.567 458.071 290.758 457.653C289.131 456.812 286.557 453.958 286.187 452.585C285.994 451.867 285.941 450.339 286.062 448.996C286.374 445.556 285.979 444.852 282.044 441.836C278.6 439.196 277.032 437.375 274.278 432.814C272.049 429.125 271.911 429.042 271.113 430.927C270.756 431.773 270.357 432.814 270.227 433.242C270.097 433.669 268.846 435.234 267.448 436.719C266.049 438.204 264.904 439.608 264.904 439.838C264.904 440.069 265.267 440.598 265.711 441.015C266.408 441.67 266.518 442.053 266.518 443.835C266.518 444.969 266.375 446.163 266.202 446.487C265.972 446.916 266.016 447.186 266.363 447.474C266.707 447.759 266.842 448.557 266.845 450.331C266.852 453.88 267.133 454.275 270.034 454.807C274.505 455.626 275.383 456.631 275.153 460.662C275.076 462.012 274.912 463.343 274.788 463.619C274.613 464.01 274.94 464.241 276.267 464.661C279.054 465.543 282.774 467.939 285.271 470.461C288.135 473.352 290.507 476.684 291.078 478.618C291.543 480.192 291.592 480.177 292.718 478.144ZM244.221 471.839C244.665 471.395 244.632 471.345 243.888 471.345C242.679 471.345 240.996 472 241.231 472.38C241.508 472.828 243.612 472.448 244.221 471.839ZM208.717 468.335C209.111 466.707 209.089 466.199 208.509 463.367C208.154 461.632 207.685 459.777 207.466 459.245L207.07 458.277L206.609 459.365C206.202 460.325 206.211 460.706 206.688 462.592C207.104 464.238 207.181 465.464 207.023 467.918L206.818 471.106L207.548 470.627C208.034 470.308 208.425 469.54 208.717 468.335ZM240.544 470.221C241.609 469.783 242.879 469.42 243.367 469.416C243.855 469.412 244.254 469.294 244.254 469.155C244.254 468.723 241.41 466.139 236.188 461.826C230.384 457.033 223.535 450.271 219.927 445.774C216.041 440.93 216.176 441.261 221.583 449.852C224.928 455.165 227.683 458.98 231.513 463.601C234.169 466.806 238.094 471.023 238.419 471.02C238.523 471.019 239.479 470.66 240.544 470.221ZM205.119 466.105C205.042 465.704 204.976 465.956 204.972 466.666C204.968 467.376 205.032 467.704 205.112 467.396C205.193 467.087 205.196 466.507 205.119 466.105ZM205.643 456.45C205.84 455.695 205.383 454.567 204.879 454.567C204.514 454.567 204.499 454.785 204.77 456.139C205.004 457.312 205.383 457.446 205.643 456.45ZM299.912 455.702C303.702 453.863 307.181 450.493 308.746 447.145C309.78 444.932 309.999 441.593 309.419 436.885C309.042 433.83 308.903 433.411 307.709 431.722C302.765 424.727 298.262 420.767 293.298 419.047C291.52 418.431 290.562 418.324 287.006 418.344C280.472 418.381 276.342 419.451 275.255 421.388C274.829 422.145 274.863 422.366 275.642 423.953C276.111 424.908 277.722 427.345 279.221 429.369C281.07 431.864 282.127 433.63 282.504 434.854C283.19 437.085 283.527 437.48 286.402 439.425C289.096 441.248 290.841 443.168 291.482 445.016C291.735 445.744 292.102 447.791 292.299 449.565C292.828 454.349 293.382 456.564 294.125 456.87C295.207 457.316 297.571 456.838 299.912 455.702ZM208.763 450.415C209.206 450.096 210.153 448.757 210.868 447.441C211.582 446.125 212.633 444.234 213.205 443.238L214.243 441.428L213.257 440.068C211.964 438.282 210.694 437.788 207.402 437.79C203.596 437.793 202.445 438.174 201.98 439.583C201.301 441.641 202.552 446.997 204.442 450.127C205.314 451.571 205.315 451.571 206.635 451.284C207.362 451.125 208.319 450.735 208.763 450.415ZM165.841 447.795C167.302 447.05 168.108 446.033 168.108 444.935C168.108 444.197 168.028 444.167 166.471 444.317C163.703 444.583 162.153 446.381 163.454 447.817C164.15 448.587 164.291 448.586 165.841 447.795ZM215.538 435.853C215.538 435.487 215.323 435.207 215.043 435.207C214.648 435.207 214.617 435.337 214.893 435.853C215.083 436.207 215.306 436.498 215.388 436.498C215.471 436.498 215.538 436.207 215.538 435.853ZM213.918 432.457C213.694 432.186 213.426 432.049 213.324 432.152C213.221 432.254 213.35 432.474 213.612 432.639C214.295 433.071 214.384 433.018 213.918 432.457ZM215.081 429.333C214.732 427.15 213.889 425.606 210.802 421.494C203.987 412.418 203.205 410.744 201.001 400.522C200.038 396.052 198.831 392.916 196.374 388.496C193.313 382.991 191.692 377.651 191.259 371.644C191.182 370.569 191.134 370.624 190.254 372.818L189.33 375.121L189.871 377.792C190.607 381.422 192.327 386.534 195.785 395.359C198.61 402.571 201.019 409.615 201.019 410.663C201.019 410.947 201.382 411.831 201.825 412.626C202.269 413.422 203.935 416.614 205.528 419.72C207.121 422.825 209.05 426.455 209.816 427.786L211.209 430.206L212.549 430.099C213.286 430.041 214.151 430.145 214.472 430.332C215.315 430.822 215.318 430.818 215.081 429.333Z" fill="#2A324B"/>
</g>
<defs>
<clipPath id="clip0_53_48">
<rect width="360" height="619.93" fill="white"/>
</clipPath>
</defs>
</svg>
