<svg width="360" height="325" viewBox="0 0 360 325" fill="none" xmlns="http://www.w3.org/2000/svg">
<g clip-path="url(#clip0_22_27)">
<path d="M48.1715 267.265C47.388 267.931 46.3555 268.081 45.2483 268.108C45.9406 267.714 46.6507 267.346 47.3743 267.02C47.6368 267.115 47.9035 267.183 48.1715 267.265ZM44.7301 263.755C43.7439 263.089 42.8542 262.3 41.9102 261.579C43.9492 262.463 45.9271 263.415 47.4615 264.952C47.4002 264.98 47.3389 265.007 47.2791 265.034C46.3867 264.708 45.5312 264.299 44.7301 263.755ZM49.918 227.151C51.4497 228.13 53.0806 228.933 54.7088 229.763C57.0716 230.946 59.6738 232.048 61.1211 234.387C61.5618 235.095 62.6445 237.285 62.1793 238.169C61.2788 239.896 59.7174 238.4 58.8196 237.802C56.684 236.387 54.7333 234.646 53.3145 232.497C52.1325 230.701 50.8443 229.069 49.918 227.151ZM19.0592 248.262C17.8976 248.058 16.9971 246.113 16.5713 245.215C16.5128 245.093 16.4652 244.97 16.4122 244.834C18.7994 242.046 19.4837 238.55 20.591 235.122C21.1745 233.313 23.1632 227.627 19.9558 227.178C16.2953 226.675 15.5675 229.926 14.9132 232.687C14.0223 236.428 13.1911 240.481 14.3134 244.277C14.3188 244.29 14.3243 244.317 14.3297 244.331C13.7407 244.698 13.0946 244.848 12.3913 244.657C11.5629 244.426 10.9495 243.964 10.4911 243.379C10.5401 243.147 10.5754 242.916 10.5849 242.658C10.6311 241.27 10.2516 239.788 10.189 238.4C10.1265 236.986 10.1319 235.584 10.204 234.183C10.355 231.245 10.8229 228.348 11.5303 225.505C11.567 225.369 11.5711 225.247 11.5534 225.138C11.518 224.852 11.3534 224.648 11.1344 224.526C11.1303 224.526 11.1249 224.526 11.1194 224.512C11.0977 224.498 11.076 224.485 11.0529 224.485C10.6597 224.281 10.1456 224.322 9.8912 224.811C9.30629 225.927 8.73355 226.988 8.39213 228.198C8.26699 228.647 8.46971 229.001 8.78121 229.178C8.21127 231.898 7.80184 234.659 7.56788 237.38C7.40328 239.284 7.50258 241.488 8.35002 243.284C8.2276 243.338 8.07253 243.406 7.87393 243.488C6.43206 244.086 5.48799 242.971 4.7589 241.842C3.65029 240.141 2.84237 238.183 2.34723 236.21C0.50545 228.838 3.24084 220.404 9.53745 215.983C11.5765 214.555 13.1762 214.501 15.6396 214.705C18.6635 214.949 21.656 215.466 24.6132 216.133C29.7658 217.289 34.8872 218.731 39.9474 220.241C41.981 220.839 44.1029 221.574 45.6563 223.097C45.8644 223.301 46.0481 223.505 46.2209 223.737C46.3841 224.077 46.5936 224.376 46.8384 224.662C47.8464 226.471 48.2259 228.606 49.4419 230.307C51.6673 233.435 53.9389 236.537 57.1124 238.795C58.2767 239.624 59.8927 241.094 61.3917 240.944C62.5697 240.808 63.6117 239.937 63.9123 238.808C64.8033 235.476 61.9005 231.776 59.2929 230.157C55.9222 228.076 47.8219 225.967 47.6206 221.315C47.5159 218.881 48.974 216.01 49.9507 213.861C50.8267 211.916 51.7789 210.025 52.6019 208.067C54.3947 203.809 55.7603 199.217 56.0052 194.597C56.2962 189.068 56.4255 183.532 57.375 178.066C58.2211 173.192 59.1256 168.306 59.6425 163.388C60.1295 158.753 60.5008 154.108 61.0191 149.476C62.1087 139.736 63.9517 129.936 68.5888 121.195C72.9063 113.053 79.762 104.744 89.1029 102.549C94.314 101.325 99.6462 100.789 104.965 100.272C107.636 100.012 111.506 100.102 114.356 98.9075C114.293 98.9388 114.228 98.97 114.168 99.0013C109.908 101.178 106.846 104.365 104.868 108.741C102.75 113.435 101.859 118.533 100.398 123.444C98.8002 128.814 96.0836 133.754 93.0407 138.432C90.6753 142.068 88.1548 145.598 86.5429 149.654C84.527 154.727 84.0645 160.22 84.0087 165.629C83.9448 171.778 84.3474 177.927 84.8507 184.053C85.3607 190.28 86.0164 196.492 86.6244 202.707C87.2406 209.019 87.5943 214.922 85.8287 221.098C84.108 227.124 81.1672 232.687 78.6793 238.414C77.5612 240.985 76.7926 243.8 75.3303 246.194C73.7987 248.711 71.8004 250.901 69.9478 253.173C68.5277 254.914 67.1089 256.696 66.0833 258.695C64.6047 257.838 62.7317 257.321 61.5632 257.172C60.9769 257.104 60.3634 257.063 59.7391 257.063C58.9909 256.478 58.2482 255.893 57.53 255.267C54.8612 252.969 52.1149 250.901 49.1903 248.915C46.1937 246.875 43.1358 244.929 40.0222 243.079C38.5204 242.182 36.8351 241.42 35.4326 240.4C34.4192 239.652 33.7691 238.55 32.8169 237.734C31.8566 236.904 30.8826 236.537 29.9454 236.509C31.4471 234.959 33.1107 233.599 34.9565 232.497C34.9674 232.497 34.9784 232.497 34.9879 232.497C36.1278 232.157 37.0827 231.599 38.0879 230.96C38.5409 230.674 38.5966 230.157 38.4021 229.776C38.2579 229.395 37.8975 229.137 37.3969 229.327C30.5031 231.136 25.6729 237.094 22.7443 243.27C22.7307 243.297 22.7157 243.324 22.6994 243.365C22.1526 244.249 21.6261 245.174 21.4248 246.154C20.7719 247.364 19.9556 248.425 19.0592 248.262ZM16.6421 233.163C16.8298 232.374 16.9686 231.531 17.2216 230.769C17.816 228.946 20.0985 228.28 19.7544 230.769C19.4782 232.782 18.7846 234.632 18.3411 236.577C18.0215 238.006 17.1522 240.917 15.8001 242.848C15.1621 239.665 15.9076 236.251 16.6421 233.163ZM116.851 97.146C118.973 94.5683 118.358 91.0125 117.404 88.0839C116.656 85.7865 115.527 83.6359 114.712 81.3643C113.797 78.8179 113.321 76.0865 112.57 73.4843C111.282 69.0309 110.311 64.406 108.822 60.0246C108.009 57.6333 106.854 55.3889 105.97 53.0261C104.993 50.4171 104.629 47.7496 104.798 44.9666C104.921 42.9099 105.288 40.8736 105.741 38.8658C106.355 36.1453 107.62 34.0927 108.96 31.6932C113.789 23.0447 118.137 14.486 126.387 8.51447C132.084 4.38882 139.966 2.06961 146.942 1.80435C152.045 1.60983 156.99 2.9007 161.993 3.7019C166.493 4.42419 171.031 5.21042 175.083 7.41269C183.022 11.7274 188.686 19.6835 192.866 27.5009C197.201 35.6094 200.097 44.3831 202.781 53.1472C205.738 62.8077 209.088 72.3553 211.754 82.1015C212.026 83.085 212.203 84.029 212.706 84.9146C213.332 86.0014 213.359 86.7019 213.536 87.9846C213.781 89.5979 214.475 91.0493 214.937 92.5836C214.829 92.7618 214.774 92.9822 214.828 93.2393C215.277 95.4579 215.726 97.7689 216.298 100.056C216.379 101.229 216.624 102.384 216.869 103.534C216.964 104.021 217.291 105.185 217.467 106.088C217.223 106.215 217.059 106.458 217.114 106.835C217.127 106.91 217.141 106.993 217.155 107.073C217.141 107.073 217.141 107.073 217.141 107.074C217.141 107.08 217.155 107.088 217.155 107.096C217.209 107.461 217.318 107.838 217.535 108.131C218.42 110.604 219.141 113.288 219.63 115.815C220.215 118.838 220.038 122.131 220.297 125.215C220.555 128.131 220.514 130.931 218.964 133.519C216.624 137.443 213.21 139.62 208.626 139.379C200.995 138.976 192.486 138.068 185.484 134.897C183.283 133.9 180.927 132.872 179.197 131.136C177.363 129.298 176.599 126.789 176.121 124.299C174.164 114.076 177.329 104.675 180.452 95.0702C180.583 94.6662 180.43 94.3479 180.169 94.1588C180.364 93.8745 180.555 93.5862 180.736 93.2883C182.195 90.8833 183.148 88.1996 183.547 85.4165C184.008 82.2022 183.854 79.5089 185.837 76.7503C187.014 75.1125 188.418 73.6081 189.268 71.7622C189.981 70.2129 190.435 68.4922 190.806 66.8368C191.851 62.1942 192.078 56.896 189.214 52.8329C186.805 49.4173 182.971 48.6379 179.675 51.319C178.273 52.4589 176.622 54.5169 176.012 56.6226C170.067 48.0557 162.94 39.9254 152.726 36.6323C144.496 33.9798 135.067 33.72 126.502 33.7417C123.385 33.7513 119.53 33.5377 116.94 35.5903C113.934 37.9721 112.797 42.1849 112.291 45.8113C111.678 50.1982 111.869 54.8094 112.979 59.1078C113.676 61.7997 114.959 64.2835 115.681 66.9728C116.543 70.1966 116.894 73.5061 117.268 76.8115C117.559 79.3865 117.855 82.0077 118.71 84.467C119.55 86.8842 121.486 88.8987 122.013 91.403C122.834 95.3123 118.223 97.1119 115.126 98.5402C115.791 98.1757 116.377 97.72 116.851 97.146ZM177.955 96.9433C174.448 107.693 170.771 118.389 166.65 128.919C164.669 133.982 162.323 137.963 156.982 139.935C153.323 141.286 149.301 141.414 145.466 140.867C141.447 140.296 138.827 138.632 137.978 134.549C136.938 129.546 137.001 124.348 136.03 119.317C134.881 113.371 132.874 107.685 130.294 102.252C133.687 105.828 137.514 109.006 141.535 111.502C144.992 113.65 149.117 115.541 153.285 115.195C155.324 115.026 157.029 114.136 158.876 113.333C161.713 112.101 164.242 110.886 166.44 108.662C169.154 105.913 171.873 103.169 174.589 100.424C175.727 99.2748 176.879 98.1403 177.955 96.9433ZM176.278 60.2014C176.911 61.155 178.404 60.3089 177.826 59.2969C176.507 56.9831 179.803 53.2233 181.574 52.1487C185.877 49.537 188.99 54.7768 189.562 58.4943C190.163 62.4119 189.292 66.6409 187.921 70.3177C186.701 73.5904 183.639 75.7791 182.526 79.1239C181.818 81.2568 182.082 83.5339 181.695 85.7239C181.196 88.5478 180.071 91.2016 178.428 93.5481C176.811 95.8564 174.69 97.7717 172.718 99.7672C170.303 102.206 167.887 104.645 165.473 107.088C163.638 108.946 161.641 110.188 159.257 111.233C157.194 112.137 155.155 113.311 152.863 113.43C149.237 113.621 145.689 111.94 142.672 110.096C135.935 105.981 129.721 99.8297 125.318 93.1277C124.891 92.4354 124.461 91.7457 124.021 91.0629C123.928 90.9187 123.814 90.818 123.69 90.7514C123.23 89.0211 122.154 87.5725 121.305 85.981C119.914 83.3706 119.48 80.3754 119.137 77.4739C118.808 74.6936 118.556 71.9023 118.016 69.1505C117.423 66.1117 116.279 63.379 115.265 60.4789C113.759 56.1751 113.451 51.3584 113.955 46.8478C114.359 43.2336 115.46 37.9205 119.213 36.2895C122.517 34.8545 127.235 35.491 130.721 35.6121C135.43 35.7767 140.172 36.0882 144.842 36.7411C149.155 37.3451 153.393 38.4238 157.265 40.4669C162.962 43.4716 167.72 48.4216 171.613 53.4981C173.27 55.6595 174.772 57.9339 176.278 60.2014ZM256.928 186.414C257.908 187.174 258.901 187.939 259.867 188.717C265.008 192.818 270.898 198.05 272.544 204.679C270.83 205.047 267.729 200.83 266.926 199.906C264.301 196.906 261.798 193.89 259.676 190.507C258.805 189.121 257.88 187.758 256.928 186.414ZM239.993 121.787C247.556 124.77 254.643 128.054 259.05 135.19C264.247 143.577 267.171 153.085 270.694 162.231C273.605 169.778 275.89 177.548 278.502 185.198C279.781 188.95 281.1 192.69 282.624 196.348C284.229 200.177 286.527 203.564 288.201 207.359C289.166 209.536 289.697 211.603 290.363 213.875C291.112 216.405 292.064 218.826 292.757 221.383C293.669 224.757 293.614 228.402 293.07 231.844C292.118 237.829 290.635 243.855 288.69 249.595C288.037 251.499 287.357 253.567 285.643 254.791C284.052 255.907 282.011 256.043 280.148 255.825C274.775 255.199 269.674 252.166 265.199 249.323C255.065 242.848 245.489 234.728 238.66 224.757C234.022 217.996 230.131 210.624 227.016 203.047C224.282 196.416 221.684 189.485 220.419 182.403C219.902 179.477 220.174 176.541 220.011 173.609C220.133 173.006 220.242 172.402 220.256 171.786C220.283 170.596 219.929 169.49 219.725 168.344C219.725 167.321 219.698 166.304 219.576 165.301C219.576 164.884 219.562 164.468 219.494 164.055C219.426 163.603 219.263 163.189 219.072 162.792C218.692 161.38 218.215 159.957 217.739 158.647C216.978 156.513 215.808 153.916 214.107 152.054C213.903 151.473 213.767 150.899 213.754 150.448C220.718 152.907 226.445 157.408 231.9 162.321C234.443 164.6 236.892 166.957 239.313 169.35C241.177 171.493 243.013 173.656 244.876 175.793C246.713 177.887 248.712 179.757 250.807 181.527C252.725 183.835 254.643 186.145 256.33 188.652C258.357 191.651 260.193 194.712 262.505 197.51C264.518 199.959 266.572 202.626 268.967 204.72C270.49 206.067 272.394 207.182 274.204 205.768C274.462 205.577 274.503 205.183 274.435 204.897C273.306 199.294 269.293 194.852 265.28 191.016C261.39 187.3 256.888 184.3 252.739 180.89C250.385 178.016 247.883 175.268 245.257 172.686C243.339 170.801 241.394 168.812 239.408 166.813C237.722 164.838 236.021 162.89 234.239 161.041C231.247 157.951 228.091 154.969 224.595 152.447C221.902 150.513 218.787 148.636 215.427 148.287C214.788 148.222 213.876 148.111 213.169 148.323C212.108 148.013 211.047 147.749 209.945 147.547C206.328 146.882 202.432 146.658 198.822 147.447C196.343 147.988 193.082 148.366 190.88 149.924C189.945 149.985 189.026 150.389 188.318 150.974C187.768 151.43 187.366 152.03 186.931 152.587C185.643 154.234 184.998 153.986 183.294 153.73C179.829 153.21 178.264 156.103 177.213 158.921C176.454 160.951 175.795 163.026 175.527 165.183C175.191 167.887 175.486 170.617 175.082 173.316C174.747 175.546 174.089 177.737 173.958 179.995C173.897 181.065 174.015 182.14 173.962 183.212C173.889 184.704 173.455 186.128 173.236 187.597C172.997 189.2 173.16 190.922 173.818 192.371C169.502 196.787 165.349 201.36 161.108 205.849C158.816 208.271 156.667 210.597 153.833 212.406C152.035 213.548 150.362 214.827 148.471 215.82C146.353 216.949 144.139 217.86 141.954 218.84C137.939 220.649 134.5 222.825 131.237 225.791C127.865 228.851 124.867 232.252 121.685 235.503C120.099 237.122 118.478 238.699 116.824 240.25C115.418 241.57 113.884 242.753 112.884 244.426C111.193 247.255 111.101 250.751 112.4 253.757C113.696 256.75 116.149 258.641 118.958 260.069C107.572 260.083 96.1857 260.273 84.8031 260.6C79.29 260.749 73.7796 260.885 68.2773 261.266C68.1808 260.736 67.9102 260.259 67.5198 259.824C69.7519 255.267 73.815 251.84 76.5613 247.609C78.0862 245.256 78.8493 242.535 79.9443 239.964C81.1046 237.258 82.375 234.591 83.587 231.898C85.8885 226.784 87.9915 221.533 88.7492 215.942C89.5286 210.189 88.5846 204.353 88.0119 198.615C86.8271 186.753 85.3812 174.734 85.8736 162.793C86.0954 157.411 87.0543 152.137 89.5749 147.335C91.6683 143.35 94.4541 139.77 96.7352 135.893C99.3932 131.375 101.42 126.67 102.773 121.609C104.093 116.679 105.09 111.465 107.772 107.047C110.411 102.701 114.423 101.004 118.702 98.7483C120.835 97.6248 122.988 96.1339 123.679 93.899C123.715 93.9548 123.751 94.0106 123.789 94.0663C128.757 102.163 132.643 110.875 134.391 120.265C135.351 125.427 135.078 130.948 136.482 136.011C137.593 140.02 140.67 141.896 144.634 142.543C152.334 143.803 161.436 142.208 165.859 135.101C167.403 132.623 168.278 129.683 169.318 126.974C170.666 123.468 171.967 119.945 173.229 116.409C173.443 115.81 173.651 115.21 173.863 114.612C173.648 117.346 173.692 120.126 174.1 122.985C174.512 125.861 175.158 128.86 176.926 131.238C178.507 133.365 180.833 134.679 183.182 135.8C184.576 136.465 185.99 137.121 187.422 137.703C189.585 138.582 191.854 138.858 194.131 139.278C198.595 140.104 203.077 140.69 207.606 141.093C211.768 141.463 215.073 140.656 218.025 137.6C220.256 135.282 221.875 132.557 222.174 129.308C222.541 125.513 221.861 121.406 221.671 117.603C221.535 114.865 220.732 111.856 219.793 109.101C220.541 110.368 221.412 111.565 222.432 112.649C226.976 117.43 234.035 119.434 239.993 121.787ZM215.1 193.078C212.067 199.591 208.313 205.754 205.456 212.351C202.801 218.486 201.343 224.621 201.68 231.327C202.008 237.829 203.669 244.086 205.651 250.234C207.762 256.791 209.932 263.293 211.074 270.067C209.836 268.924 208.34 267.986 206.967 267.197C202.874 264.844 198.099 264.177 193.492 263.592C176.948 261.511 160.228 260.64 143.521 260.287C145.216 258.069 146.589 255.594 147.911 253.186C148.955 251.282 150.185 249.459 151.158 247.541C152.126 245.61 152.878 243.569 153.707 241.597C155.325 237.706 156.728 233.898 158.031 229.885C159.321 225.927 160.75 221.968 162.958 218.418C164.149 216.5 165.653 214.949 167.063 213.222C167.936 212.147 168.31 210.773 169.276 209.78C170.642 208.366 172.391 207.196 173.931 205.985C176.317 204.108 178.716 202.258 181.119 200.395C184.903 197.467 188.936 194.687 192.469 191.451C192.479 191.441 192.486 191.431 192.494 191.421C194.102 192.837 196.216 194.215 198.382 193.259C199.776 192.643 200.408 191.277 200.512 189.816C200.75 186.448 199.049 183.069 197.931 179.975C197.212 177.98 195.856 176.348 195.624 174.181C195.482 172.826 195.796 171.492 195.717 170.149C195.694 169.736 195.227 168.074 195.265 167.168C196.632 168.623 197.096 171.444 197.537 173.162C198.111 175.401 198.731 177.601 199.515 179.777C200.516 182.556 202.039 186.357 205.424 186.762C208.694 187.153 209.932 183.891 210.353 181.23C210.544 180.032 210.666 178.828 210.734 177.619C211.156 178.554 211.673 179.452 212.285 180.292C213.849 182.448 215.876 182.518 217.399 181.358C217.345 182.454 217.427 183.577 217.467 184.621C217.59 187.757 216.42 190.247 215.1 193.078ZM139.357 262.109C138.615 262.708 137.789 263.184 136.823 263.415C134.252 264.041 131.576 263.034 129.173 262.205C128.935 262.123 128.694 262.041 128.455 261.96C132.09 261.987 135.723 262.041 139.357 262.109ZM177.011 195.358C180.39 196.547 182.057 192.392 182.865 189.826C183.849 186.704 184.013 183.43 184.148 180.166C184.65 181.606 185.273 183 186.043 184.289C187.319 186.424 189.298 188.438 191.176 190.204C184.842 196.002 177.507 200.83 170.803 206.189C169.788 207.006 168.646 207.794 167.758 208.747C166.666 209.916 166.146 211.481 165.096 212.705C163.843 214.16 162.635 215.589 161.602 217.207C157.449 223.75 156.284 231.436 153.145 238.387C149.78 245.854 146.587 253.921 141.214 260.246C135.211 260.137 129.213 260.083 123.224 260.069C121.382 259.335 119.59 258.491 117.951 257.444C114.428 255.199 112.298 250.955 113.736 246.82C114.449 244.78 115.962 243.488 117.502 242.073C119.164 240.522 120.795 238.944 122.392 237.339C128.447 231.218 133.797 224.58 141.771 220.894C143.94 219.887 146.157 218.989 148.298 217.915C150.482 216.84 152.386 215.453 154.426 214.147C157.215 212.365 159.363 210.297 161.629 207.903C166.042 203.265 170.35 198.503 174.823 193.91C175.393 194.535 176.113 195.042 177.011 195.358ZM189.986 152.156C190.304 152.423 190.768 152.485 191.126 152.085C191.179 152.027 191.238 151.981 191.292 151.926C191.575 151.961 191.878 152.042 192.213 152.19C193.527 152.769 194.229 154.103 195.922 153.958C197.568 153.82 198.228 152.473 199.418 151.6C201.622 149.984 202.643 152.325 204.688 152.697C206.856 153.092 208.218 150.785 210.517 151.628C211.319 151.921 212.013 152.38 212.625 152.959C213.495 156.199 214.978 159.489 216.665 162.323C216.855 162.653 217.059 162.944 217.223 163.234C217.263 163.337 217.291 163.442 217.318 163.543C218.025 165.9 217.603 168.195 217.875 170.602C217.998 171.673 218.079 172.719 218.147 173.766C218.134 173.826 218.134 173.883 218.12 173.945C217.903 175.113 217.943 176.33 217.712 177.481C217.331 179.32 215.903 181.332 214.039 179.637C212.951 178.651 212.475 176.79 212.013 175.449C211.251 173.196 210.87 171.078 210.707 168.898C210.666 167.392 210.625 165.892 210.625 164.396C210.639 163.241 208.871 163.243 208.83 164.396C208.789 166.134 208.789 167.955 208.939 169.781C209.02 172.912 209.102 176.043 208.816 179.161C208.667 180.691 208.544 183.041 207.419 184.255C205.596 186.233 203.466 183.908 202.536 182.279C200.676 179.021 199.958 175.132 198.973 171.561C198.542 169.998 197.289 164.485 194.785 164.961C192.562 165.387 193.938 169.414 193.949 170.756C193.97 173.853 193.877 175.935 195.378 178.705C196.383 180.555 197.083 182.722 197.757 184.719C198.632 187.316 200.004 194.114 194.725 190.934C192.519 189.604 190.64 187.019 188.921 185.118C187.078 183.076 186.055 180.455 185.31 177.835C184.991 176.717 184.714 175.566 184.522 174.406C184.771 172.16 185.169 169.91 185.748 167.74C186.222 165.964 186.732 164.447 186.368 162.603C186.258 162.041 185.515 161.774 185.053 162.065C183.39 163.114 183.181 165.257 182.895 167.041C182.492 169.552 182.411 171.925 182.744 174.384C182.624 175.433 182.531 176.484 182.471 177.544C182.197 182.386 182.48 187.838 179.92 192.168C177.774 195.798 174.885 191.822 174.88 189.217C174.878 186.928 175.735 184.712 175.763 182.403C175.823 177.53 177.032 172.829 177.143 167.934C177.197 165.484 177.636 163.19 178.417 160.868C179.152 158.687 180.01 155.23 182.913 155.498C184.163 155.614 185.186 156.176 186.418 155.592C187.098 155.267 187.557 154.659 188.025 154.097C188.653 153.341 189.234 152.55 189.986 152.156ZM212.067 150.399C211.809 150.26 211.564 150.129 211.292 150.024C209.904 149.472 208.503 149.517 207.135 150.112C205.498 150.827 204.684 150.695 203.148 149.807C202.457 149.407 201.743 149.105 200.925 149.083C199.621 149.048 198.856 149.676 197.964 150.53C196.676 151.766 195.48 152.62 193.829 151.273C193.608 151.094 193.418 150.906 193.223 150.73C193.95 150.457 194.723 150.28 195.48 150.101C197.136 149.71 198.782 149.21 200.464 148.943C204.187 148.354 208.408 148.833 212.04 149.894C212.04 150.06 212.04 150.229 212.067 150.399ZM61.4952 260.749C61.5129 260.804 61.536 260.858 61.5645 260.899C61.74 261.212 61.9331 261.497 62.1453 261.769C58.2318 262.137 54.2763 262.694 50.575 263.81C50.4499 263.769 50.337 263.715 50.2459 263.647C48.132 262.15 52.7908 260.314 53.6723 260.015C55.3359 259.43 57.1505 258.967 58.9637 258.858C59.7935 259.511 60.6505 260.123 61.4952 260.749ZM66.2221 261.416C65.8834 261.443 65.5446 261.47 65.2045 261.497C64.9815 261.293 64.7625 261.089 64.5407 260.885C63.8688 260.287 63.1737 259.715 62.4664 259.158C62.6051 259.185 62.7466 259.226 62.884 259.267C63.8607 259.566 65.8126 260.355 66.2221 261.416ZM64.8047 263.306C64.9434 263.293 65.0821 263.293 65.2209 263.279C64.7992 263.551 64.2945 263.769 63.7641 263.973C64.1177 263.769 64.4633 263.551 64.8047 263.306ZM50.5628 265.891C50.556 265.864 50.5464 265.85 50.5382 265.823C50.7804 265.741 51.0212 265.66 51.2647 265.592C51.2838 265.592 51.3014 265.592 51.3177 265.605C52.8317 265.796 54.3688 265.918 55.8922 265.891C54.1226 266.136 52.3407 266.177 50.5628 265.891ZM39.0619 258.396C36.2992 257.09 33.5745 255.689 30.9778 254.07C28.577 252.574 25.4172 250.901 24.7112 247.936C24.265 246.045 25.2253 243.188 26.0591 241.379C26.5501 240.645 27.0603 239.924 27.6003 239.23C28.7429 238.223 30.2311 237.911 31.7451 239.162C32.4143 239.72 32.8836 240.495 33.4984 241.107C34.3186 241.923 35.2843 242.399 36.2841 242.971C41.4422 245.922 46.4603 249.119 51.3096 252.56C53.3282 253.989 55.2026 255.58 57.0417 257.226C54.4626 257.58 51.8809 258.464 49.9221 259.824C49.0257 260.45 47.9864 261.47 47.7103 262.613C47.2831 262.286 46.8765 262.014 46.5433 261.824C44.2295 260.436 41.5022 259.552 39.0619 258.396ZM211.822 276.215C211.428 278.596 209.455 280.228 207.449 281.33C205.017 282.649 202.207 283.234 199.57 284.01C196.602 284.88 193.629 285.751 190.644 286.553C184.847 288.145 178.999 289.546 173.073 290.552C167.021 291.586 161.052 291.777 154.953 292.157C152.13 292.321 149.327 292.824 146.497 293.028C143.177 293.273 139.85 293.409 136.521 293.477C124.37 293.695 112.161 293.082 100.06 292.021C87.9956 290.974 75.9655 289.451 64.115 286.92C58.236 285.669 52.3148 284.635 46.4507 283.302C43.8349 282.717 40.6479 282.377 38.4402 280.772C37.4962 280.092 36.8515 279.208 36.5005 278.228C37.4935 275.345 39.3093 272.665 41.9455 270.421C42.1373 270.257 42.3347 270.094 42.5305 269.945C42.7631 269.917 42.9957 269.904 43.2338 269.904C44.8906 269.863 46.6683 270.081 48.2367 269.4C48.9495 269.101 49.801 268.462 50.2825 267.686C52.5133 267.999 54.8136 267.891 57.0036 267.482C59.2684 267.047 61.5387 266.612 63.6947 265.769C65.1679 265.184 67.1402 264.517 67.9523 263.062C70.904 262.858 73.8613 262.722 76.8089 262.626C92.2383 262.137 107.665 261.878 123.092 261.933C125.788 263.048 128.583 264.041 131.339 264.803C134.926 265.769 138.364 265.551 141.163 262.926C141.426 262.681 141.674 262.422 141.923 262.164C145.812 262.245 149.7 262.341 153.59 262.463C166.333 262.885 179.074 263.647 191.738 265.17C197.39 265.85 202.964 266.612 207.826 269.795C209.986 271.21 212.298 273.345 211.822 276.215ZM359.138 289.233C318.48 290.552 277.781 290.43 237.096 290.199C231.614 290.171 225.955 289.736 220.501 290.226C218.093 290.43 215.944 291.11 213.686 291.913C212.026 292.511 210.312 292.919 208.979 294.103C208.639 294.021 208.258 294.103 208 294.47C201.992 302.931 192.726 308.249 183.209 311.922C173.12 315.812 162.431 318.356 151.781 320.124C139.51 322.151 127.081 322.858 114.657 322.491C102.33 322.11 89.9422 321.008 77.9706 317.934C70.1791 315.921 62.7479 312.956 55.7957 308.889C49.0978 304.971 42.3481 299.993 38.3354 293.205C35.9631 289.179 35.1389 284.853 35.8489 280.772C37.6282 282.949 40.6533 283.778 43.4976 284.458C48.9291 285.764 54.4218 286.798 59.8982 287.886C70.7639 290.063 81.6949 292.198 92.751 293.178C104.172 294.198 115.583 295.028 127.051 295.245C138.483 295.476 149.774 294.429 161.15 293.749C172.31 293.069 183.233 290.525 193.961 287.505C198.674 286.172 204.027 285.234 208.354 282.881C211.278 281.289 213.917 278.528 213.672 274.964C213.631 274.365 213.495 273.808 213.319 273.291C213.319 273.236 213.319 273.182 213.305 273.128C211.782 260.246 205.689 248.589 203.896 235.802C202.891 228.634 203.591 221.846 206.241 215.113C208.843 208.475 212.557 202.353 215.699 195.975C216.978 193.358 218.841 190.234 219.263 187.321C219.317 186.944 219.331 186.554 219.331 186.156C220.147 189.548 221.303 192.882 222.446 196.095C227.275 209.78 233.994 223.886 244.101 234.455C251.392 242.073 260.22 249.065 269.579 253.934C273.428 255.961 277.999 258.029 282.474 257.675C286.283 257.362 288.568 254.982 289.887 251.554C291.982 246.086 293.315 240.209 294.417 234.483C294.879 232.075 295.192 229.735 295.192 227.273C295.206 222.907 294.091 219.017 292.608 214.922C291.914 212.977 291.656 210.896 290.894 208.992C290.01 206.788 289.03 204.489 287.888 202.421C286.976 200.762 285.861 199.275 285.072 197.53C284.229 195.642 283.467 193.719 282.746 191.784C279.903 184.232 277.563 176.503 274.965 168.863C272.258 160.853 269.307 152.82 266.028 145.026C263.009 137.845 259.445 130.471 252.807 126.02C246.944 122.097 240.061 120.039 233.6 117.332C230.376 115.98 227.003 114.505 224.418 112.091C222.038 109.862 220.487 106.982 219.385 103.94C218.215 100.684 217.481 97.2847 216.787 93.8963C216.937 93.7072 217.005 93.461 216.937 93.1686C216.733 92.1171 216.338 91.1608 215.971 90.1597C215.481 88.8389 215.536 87.8704 215.359 86.5088C215.264 85.7266 214.965 85.222 214.597 84.5214C213.904 83.1965 213.55 81.82 213.142 80.3808C211.618 74.948 209.891 69.5763 208.122 64.2224C205.055 54.9563 202.582 45.4944 198.943 36.4242C195.551 27.9743 191.179 19.8563 184.997 13.1053C181.966 9.79584 178.492 6.93387 174.381 5.06079C170.271 3.19043 165.828 2.51712 161.407 1.80298C156.306 0.978668 151.349 -0.271423 146.138 0.0523376C142.317 0.289001 138.592 1.24664 134.939 2.35117C127.261 4.67313 120.9 9.85706 116.065 16.1809C113.14 20.0059 110.935 24.2758 108.661 28.5007C107.503 30.6513 105.871 32.7692 104.904 34.9918C104.015 37.0349 103.69 39.6235 103.354 41.8189C102.888 44.8673 102.753 47.9796 103.466 51.0034C104.049 53.4695 105.204 55.7343 106.167 58.0631C107.764 61.9208 108.512 66.0356 109.681 70.0306C111.154 75.0581 112.239 80.2176 114.289 85.041C115.257 87.3181 116.323 89.7257 116.477 92.2313C116.54 93.2937 116.452 94.3833 115.935 95.3368C114.963 97.131 112.985 97.4085 111.168 97.7268C105.829 98.6572 100.369 98.8245 95.0023 99.623C90.1068 100.351 85.3554 101.266 81.14 103.984C77.4442 106.366 74.4121 109.587 71.7379 113.046C65.7541 120.787 62.4051 130.003 60.6436 139.556C58.8222 149.437 58.7148 159.534 56.99 169.419C56.061 174.754 55.0856 180.098 54.6966 185.505C54.4993 188.261 54.3919 191.021 54.2518 193.781C54.1049 196.712 53.6777 199.181 52.7242 201.945C51.8604 204.462 51.2035 206.924 50.0813 209.359C49.1386 211.399 48.1361 213.412 47.3063 215.507C46.618 217.248 45.9651 219.057 45.8264 220.935C42.2353 218.309 37.2078 217.602 33.0264 216.432C27.7296 214.963 22.3838 213.589 16.9033 213.018C15.0139 212.827 12.6185 212.311 10.8447 213.113C9.0859 213.916 7.43869 215.208 6.07571 216.555C1.08222 221.506 -0.970405 229.001 0.430657 235.843C1.03869 238.822 2.45327 243.107 5.13297 244.848C6.62925 245.827 8.42892 245.895 9.54024 244.997C11.0161 246.48 13.2442 247.119 14.9935 246.126C15.83 247.99 17.2066 249.962 19.1545 250.085C20.3243 250.153 21.101 249.595 21.7281 248.806C23.1359 252.683 27.3786 255.322 30.7153 257.308C32.7339 258.505 34.8233 259.579 36.8936 260.695C39.3148 261.987 41.3198 263.538 43.5425 265.116C44.0553 265.483 44.5912 265.796 45.1408 266.081C44.0009 266.707 42.9018 267.428 41.8653 268.203C40.6628 268.353 39.5052 268.652 38.4252 269.319C35.5578 271.06 33.7392 274.719 34.5336 278.052C34.2262 278.99 33.9962 279.97 33.8561 280.976C32.9665 287.465 35.774 293.531 39.8766 298.401C49.1467 309.419 63.8103 316.139 77.4931 319.662C88.2812 322.437 99.4313 323.62 110.539 324.123C122.138 324.654 133.73 324.341 145.254 322.872C155.895 321.512 166.456 319.295 176.696 316.071C185.297 313.377 193.848 309.827 201.012 304.25C204.103 301.842 206.823 299.081 209.143 295.925C209.401 295.993 209.673 295.925 209.918 295.681C211.265 294.266 213.618 293.817 215.413 293.164C217.848 292.293 220.337 291.94 222.922 291.913C227.656 291.885 232.376 291.967 237.096 291.994C246.917 292.049 256.751 292.089 266.573 292.117C286.514 292.157 306.455 292.103 326.397 291.79C337.306 291.627 348.229 291.382 359.138 291.015C360.28 290.988 360.294 289.192 359.138 289.233Z" fill="#2A324B"/>
</g>
<defs>
<clipPath id="clip0_22_27">
<rect width="360" height="324.365" fill="white"/>
</clipPath>
</defs>
</svg>
